<svg width="640" height="500" viewBox="0 0 640 500" fill="none" xmlns="http://www.w3.org/2000/svg">
<rect width="640" height="500" fill="white"/>
<rect x="47" y="45" width="545" height="410" rx="20" fill="#F5F4F8"/>
<path d="M245.451 231.186V227.636H262.176V231.186H255.941V248H251.686V231.186H245.451ZM263.265 248V232.727H267.371V235.392H267.53C267.809 234.444 268.276 233.728 268.932 233.244C269.588 232.754 270.344 232.509 271.199 232.509C271.411 232.509 271.64 232.522 271.885 232.548C272.131 232.575 272.346 232.611 272.532 232.658V236.416C272.333 236.357 272.058 236.304 271.706 236.257C271.355 236.211 271.033 236.188 270.742 236.188C270.119 236.188 269.562 236.323 269.071 236.595C268.587 236.86 268.203 237.232 267.918 237.709C267.64 238.186 267.5 238.736 267.5 239.359V248H263.265ZM278.639 248.288C277.665 248.288 276.796 248.119 276.034 247.781C275.272 247.437 274.669 246.929 274.224 246.26C273.787 245.584 273.568 244.742 273.568 243.734C273.568 242.886 273.724 242.173 274.036 241.597C274.347 241.02 274.771 240.556 275.308 240.205C275.845 239.853 276.455 239.588 277.138 239.409C277.827 239.23 278.55 239.104 279.305 239.031C280.194 238.938 280.91 238.852 281.453 238.773C281.997 238.687 282.391 238.561 282.636 238.395C282.882 238.229 283.004 237.984 283.004 237.659V237.599C283.004 236.97 282.805 236.482 282.408 236.138C282.017 235.793 281.46 235.621 280.737 235.621C279.975 235.621 279.368 235.79 278.918 236.128C278.467 236.459 278.169 236.877 278.023 237.381L274.105 237.062C274.304 236.134 274.695 235.332 275.278 234.656C275.862 233.973 276.614 233.45 277.536 233.085C278.464 232.714 279.537 232.528 280.757 232.528C281.606 232.528 282.418 232.628 283.193 232.827C283.975 233.026 284.668 233.334 285.271 233.751C285.881 234.169 286.362 234.706 286.713 235.362C287.064 236.012 287.24 236.791 287.24 237.699V248H283.223V245.882H283.104C282.858 246.359 282.53 246.78 282.119 247.145C281.708 247.503 281.214 247.785 280.638 247.99C280.061 248.189 279.395 248.288 278.639 248.288ZM279.852 245.365C280.475 245.365 281.026 245.242 281.503 244.997C281.98 244.745 282.355 244.407 282.626 243.983C282.898 243.559 283.034 243.078 283.034 242.541V240.92C282.902 241.007 282.719 241.086 282.487 241.159C282.262 241.225 282.007 241.288 281.722 241.348C281.437 241.401 281.152 241.451 280.866 241.497C280.581 241.537 280.323 241.573 280.091 241.607C279.594 241.679 279.16 241.795 278.788 241.955C278.417 242.114 278.129 242.329 277.923 242.601C277.718 242.866 277.615 243.197 277.615 243.595C277.615 244.172 277.824 244.613 278.241 244.918C278.666 245.216 279.203 245.365 279.852 245.365ZM294.762 239.17V248H290.526V232.727H294.563V235.422H294.742C295.08 234.534 295.647 233.831 296.442 233.314C297.238 232.79 298.202 232.528 299.336 232.528C300.397 232.528 301.321 232.76 302.11 233.224C302.899 233.688 303.512 234.351 303.95 235.213C304.387 236.068 304.606 237.089 304.606 238.276V248H300.37V239.031C300.377 238.097 300.138 237.367 299.654 236.844C299.17 236.313 298.504 236.048 297.656 236.048C297.085 236.048 296.582 236.171 296.144 236.416C295.713 236.661 295.375 237.019 295.13 237.49C294.891 237.954 294.769 238.514 294.762 239.17ZM320.652 237.082L316.774 237.321C316.708 236.99 316.565 236.691 316.346 236.426C316.127 236.154 315.839 235.939 315.481 235.78C315.13 235.614 314.709 235.531 314.218 235.531C313.562 235.531 313.009 235.67 312.558 235.949C312.107 236.221 311.882 236.585 311.882 237.043C311.882 237.407 312.028 237.715 312.319 237.967C312.611 238.219 313.111 238.421 313.821 238.574L316.585 239.131C318.07 239.436 319.177 239.926 319.906 240.602C320.635 241.278 321 242.167 321 243.267C321 244.268 320.705 245.146 320.115 245.902C319.531 246.658 318.729 247.248 317.708 247.672C316.694 248.089 315.524 248.298 314.199 248.298C312.177 248.298 310.566 247.877 309.366 247.036C308.173 246.187 307.474 245.034 307.268 243.575L311.434 243.357C311.56 243.973 311.865 244.444 312.349 244.768C312.833 245.087 313.453 245.246 314.208 245.246C314.951 245.246 315.547 245.103 315.998 244.818C316.456 244.527 316.688 244.152 316.694 243.695C316.688 243.31 316.525 242.995 316.207 242.75C315.889 242.498 315.398 242.306 314.735 242.173L312.091 241.646C310.599 241.348 309.489 240.831 308.76 240.095C308.037 239.359 307.676 238.421 307.676 237.281C307.676 236.3 307.941 235.455 308.471 234.746C309.008 234.036 309.761 233.49 310.728 233.105C311.703 232.721 312.843 232.528 314.149 232.528C316.078 232.528 317.596 232.936 318.703 233.751C319.816 234.567 320.466 235.677 320.652 237.082ZM323.667 253.727V232.727H327.843V235.293H328.032C328.218 234.882 328.486 234.464 328.837 234.04C329.195 233.609 329.659 233.251 330.229 232.966C330.806 232.674 331.522 232.528 332.377 232.528C333.491 232.528 334.518 232.82 335.46 233.403C336.401 233.98 337.153 234.852 337.717 236.018C338.28 237.179 338.562 238.634 338.562 240.384C338.562 242.087 338.287 243.526 337.737 244.699C337.193 245.866 336.451 246.75 335.509 247.354C334.575 247.95 333.527 248.249 332.367 248.249C331.545 248.249 330.846 248.113 330.269 247.841C329.699 247.569 329.232 247.228 328.867 246.817C328.503 246.399 328.224 245.978 328.032 245.554H327.903V253.727H323.667ZM327.813 240.364C327.813 241.272 327.939 242.064 328.191 242.74C328.443 243.416 328.808 243.943 329.285 244.321C329.762 244.692 330.342 244.878 331.025 244.878C331.714 244.878 332.298 244.689 332.775 244.311C333.252 243.927 333.613 243.396 333.859 242.72C334.111 242.037 334.237 241.252 334.237 240.364C334.237 239.482 334.114 238.706 333.869 238.037C333.623 237.367 333.262 236.844 332.785 236.466C332.308 236.088 331.721 235.899 331.025 235.899C330.335 235.899 329.752 236.081 329.275 236.446C328.804 236.811 328.443 237.328 328.191 237.997C327.939 238.667 327.813 239.455 327.813 240.364ZM348.286 248.298C346.742 248.298 345.406 247.97 344.279 247.314C343.159 246.651 342.294 245.73 341.684 244.55C341.074 243.363 340.769 241.988 340.769 240.423C340.769 238.846 341.074 237.467 341.684 236.287C342.294 235.1 343.159 234.179 344.279 233.523C345.406 232.86 346.742 232.528 348.286 232.528C349.831 232.528 351.163 232.86 352.283 233.523C353.41 234.179 354.279 235.1 354.888 236.287C355.498 237.467 355.803 238.846 355.803 240.423C355.803 241.988 355.498 243.363 354.888 244.55C354.279 245.73 353.41 246.651 352.283 247.314C351.163 247.97 349.831 248.298 348.286 248.298ZM348.306 245.017C349.009 245.017 349.595 244.818 350.066 244.42C350.537 244.016 350.891 243.466 351.13 242.77C351.375 242.074 351.498 241.282 351.498 240.393C351.498 239.505 351.375 238.713 351.13 238.017C350.891 237.321 350.537 236.771 350.066 236.366C349.595 235.962 349.009 235.76 348.306 235.76C347.597 235.76 347 235.962 346.516 236.366C346.039 236.771 345.678 237.321 345.433 238.017C345.194 238.713 345.075 239.505 345.075 240.393C345.075 241.282 345.194 242.074 345.433 242.77C345.678 243.466 346.039 244.016 346.516 244.42C347 244.818 347.597 245.017 348.306 245.017ZM358.558 248V232.727H362.664V235.392H362.823C363.102 234.444 363.569 233.728 364.225 233.244C364.881 232.754 365.637 232.509 366.492 232.509C366.704 232.509 366.933 232.522 367.178 232.548C367.424 232.575 367.639 232.611 367.825 232.658V236.416C367.626 236.357 367.351 236.304 366.999 236.257C366.648 236.211 366.326 236.188 366.035 236.188C365.412 236.188 364.855 236.323 364.364 236.595C363.88 236.86 363.496 237.232 363.211 237.709C362.933 238.186 362.793 238.736 362.793 239.359V248H358.558ZM378.904 232.727V235.909H369.706V232.727H378.904ZM371.794 229.068H376.03V243.307C376.03 243.698 376.09 244.003 376.209 244.222C376.328 244.434 376.494 244.583 376.706 244.669C376.925 244.755 377.177 244.798 377.462 244.798C377.661 244.798 377.86 244.782 378.059 244.749C378.257 244.709 378.41 244.679 378.516 244.659L379.182 247.811C378.97 247.877 378.672 247.954 378.287 248.04C377.903 248.133 377.435 248.189 376.885 248.209C375.864 248.249 374.97 248.113 374.201 247.801C373.438 247.49 372.845 247.006 372.421 246.349C371.997 245.693 371.788 244.865 371.794 243.864V229.068ZM388.459 248.298C386.888 248.298 385.536 247.98 384.402 247.344C383.275 246.701 382.407 245.793 381.797 244.619C381.187 243.439 380.882 242.044 380.882 240.433C380.882 238.862 381.187 237.483 381.797 236.297C382.407 235.11 383.266 234.186 384.373 233.523C385.486 232.86 386.792 232.528 388.29 232.528C389.298 232.528 390.236 232.691 391.104 233.016C391.979 233.334 392.741 233.814 393.391 234.457C394.047 235.1 394.558 235.909 394.922 236.884C395.287 237.851 395.469 238.985 395.469 240.284V241.447H382.573V238.822H391.482C391.482 238.213 391.349 237.672 391.084 237.202C390.819 236.731 390.451 236.363 389.98 236.098C389.516 235.826 388.976 235.69 388.36 235.69C387.717 235.69 387.147 235.839 386.65 236.138C386.159 236.429 385.775 236.824 385.496 237.321C385.218 237.812 385.075 238.358 385.069 238.962V241.457C385.069 242.213 385.208 242.866 385.486 243.416C385.771 243.966 386.172 244.391 386.689 244.689C387.206 244.987 387.819 245.136 388.529 245.136C388.999 245.136 389.43 245.07 389.821 244.938C390.212 244.805 390.547 244.606 390.826 244.341C391.104 244.076 391.316 243.751 391.462 243.366L395.38 243.625C395.181 244.566 394.773 245.388 394.157 246.091C393.547 246.787 392.758 247.33 391.79 247.722C390.829 248.106 389.719 248.298 388.459 248.298ZM292.031 282V278.898L299.28 272.186C299.896 271.589 300.414 271.053 300.831 270.575C301.255 270.098 301.577 269.631 301.796 269.173C302.014 268.709 302.124 268.209 302.124 267.672C302.124 267.075 301.988 266.562 301.716 266.131C301.444 265.693 301.073 265.358 300.602 265.126C300.132 264.888 299.598 264.768 299.002 264.768C298.378 264.768 297.835 264.894 297.371 265.146C296.907 265.398 296.549 265.759 296.297 266.23C296.045 266.701 295.919 267.261 295.919 267.911H291.833C291.833 266.578 292.134 265.421 292.737 264.44C293.341 263.459 294.186 262.7 295.273 262.163C296.36 261.626 297.613 261.358 299.031 261.358C300.49 261.358 301.759 261.616 302.84 262.134C303.927 262.644 304.772 263.353 305.375 264.261C305.978 265.17 306.28 266.21 306.28 267.384C306.28 268.152 306.128 268.911 305.823 269.661C305.524 270.41 304.991 271.241 304.222 272.156C303.453 273.064 302.369 274.155 300.97 275.428L297.997 278.341V278.48H306.548V282H292.031ZM308.922 278.42V275.03L317.424 261.636H320.347V266.33H318.617L313.258 274.811V274.97H325.339V278.42H308.922ZM318.697 282V277.386L318.776 275.885V261.636H322.813V282H318.697ZM339.354 278.182V277.108C339.354 276.293 339.526 275.544 339.871 274.861C340.222 274.171 340.729 273.621 341.392 273.21C342.061 272.793 342.877 272.584 343.838 272.584C344.812 272.584 345.631 272.789 346.294 273.2C346.963 273.611 347.467 274.161 347.805 274.851C348.15 275.534 348.322 276.286 348.322 277.108V278.182C348.322 278.997 348.15 279.75 347.805 280.439C347.461 281.122 346.953 281.669 346.284 282.08C345.614 282.497 344.799 282.706 343.838 282.706C342.863 282.706 342.045 282.497 341.382 282.08C340.719 281.669 340.215 281.122 339.871 280.439C339.526 279.75 339.354 278.997 339.354 278.182ZM342.247 277.108V278.182C342.247 278.652 342.36 279.097 342.585 279.514C342.817 279.932 343.235 280.141 343.838 280.141C344.441 280.141 344.852 279.935 345.071 279.524C345.296 279.113 345.409 278.666 345.409 278.182V277.108C345.409 276.624 345.303 276.173 345.091 275.756C344.879 275.338 344.461 275.129 343.838 275.129C343.241 275.129 342.827 275.338 342.595 275.756C342.363 276.173 342.247 276.624 342.247 277.108ZM328.903 266.528V265.455C328.903 264.633 329.079 263.88 329.43 263.197C329.782 262.508 330.289 261.958 330.952 261.547C331.621 261.136 332.43 260.93 333.378 260.93C334.359 260.93 335.181 261.136 335.844 261.547C336.506 261.958 337.01 262.508 337.355 263.197C337.7 263.88 337.872 264.633 337.872 265.455V266.528C337.872 267.35 337.696 268.103 337.345 268.786C337 269.468 336.493 270.015 335.824 270.426C335.161 270.83 334.345 271.033 333.378 271.033C332.41 271.033 331.591 270.827 330.922 270.416C330.259 269.999 329.755 269.452 329.41 268.776C329.072 268.093 328.903 267.344 328.903 266.528ZM331.817 265.455V266.528C331.817 267.012 331.929 267.46 332.155 267.871C332.387 268.282 332.794 268.487 333.378 268.487C333.988 268.487 334.402 268.282 334.621 267.871C334.846 267.46 334.959 267.012 334.959 266.528V265.455C334.959 264.971 334.853 264.52 334.64 264.102C334.428 263.685 334.007 263.476 333.378 263.476C332.788 263.476 332.38 263.688 332.155 264.112C331.929 264.536 331.817 264.984 331.817 265.455ZM330.216 282L344.216 261.636H346.821L332.821 282H330.216Z" fill="black"/>
<g opacity="0.4">
<mask id="path-3-inside-1_101_23" fill="white">
<path d="M490.817 211.967C497.629 242.561 496.099 274.423 486.388 304.223C476.676 334.024 459.139 360.669 435.61 381.375C412.08 402.081 383.422 416.088 352.628 421.931C321.835 427.775 290.037 425.242 260.558 414.595L284.335 348.757C302.022 355.145 321.101 356.665 339.577 353.159C358.053 349.653 375.248 341.249 389.366 328.825C403.484 316.401 414.006 300.414 419.833 282.534C425.659 264.654 426.577 245.537 422.49 227.18L490.817 211.967Z"/>
</mask>
<path d="M490.817 211.967C497.629 242.561 496.099 274.423 486.388 304.223C476.676 334.024 459.139 360.669 435.61 381.375C412.08 402.081 383.422 416.088 352.628 421.931C321.835 427.775 290.037 425.242 260.558 414.595L284.335 348.757C302.022 355.145 321.101 356.665 339.577 353.159C358.053 349.653 375.248 341.249 389.366 328.825C403.484 316.401 414.006 300.414 419.833 282.534C425.659 264.654 426.577 245.537 422.49 227.18L490.817 211.967Z" fill="#A0ACC5" stroke="#F5F4F8" stroke-width="12" mask="url(#path-3-inside-1_101_23)"/>
</g>
<g opacity="0.4">
<mask id="path-4-inside-2_101_23" fill="white">
<path d="M266.58 416.647C229.609 404.796 197.629 380.987 175.673 348.969L233.404 309.381C246.578 328.592 265.766 342.878 287.948 349.988L266.58 416.647Z"/>
</mask>
<path d="M266.58 416.647C229.609 404.796 197.629 380.987 175.673 348.969L233.404 309.381C246.578 328.592 265.766 342.878 287.948 349.988L266.58 416.647Z" fill="#A0ACC5" stroke="#F5F4F8" stroke-width="12" mask="url(#path-4-inside-2_101_23)"/>
</g>
<mask id="path-5-inside-3_101_23" fill="white">
<path d="M320 75C361.373 75 401.408 89.6584 433 116.374C464.592 143.089 485.696 180.133 492.569 220.931L423.541 232.559C419.418 208.08 406.755 185.853 387.8 169.824C368.845 153.795 344.824 145 320 145V75Z"/>
</mask>
<path d="M320 75C361.373 75 401.408 89.6584 433 116.374C464.592 143.089 485.696 180.133 492.569 220.931L423.541 232.559C419.418 208.08 406.755 185.853 387.8 169.824C368.845 153.795 344.824 145 320 145V75Z" fill="#AC387E" stroke="#F5F4F8" stroke-width="12" mask="url(#path-5-inside-3_101_23)"/>
<g opacity="0.4">
<mask id="path-6-inside-4_101_23" fill="white">
<path d="M178.858 353.46C159.358 326.857 147.773 295.285 145.439 262.383C143.105 229.481 150.117 196.589 165.667 167.5C181.217 138.41 204.671 114.308 233.326 97.9714C261.981 81.6348 294.67 73.7293 327.623 75.1661L324.574 145.1C304.802 144.238 285.189 148.981 267.996 158.783C250.803 168.585 236.73 183.046 227.4 200.5C218.07 217.953 213.863 237.688 215.263 257.43C216.664 277.171 223.615 296.114 235.315 312.076L178.858 353.46Z"/>
</mask>
<path d="M178.858 353.46C159.358 326.857 147.773 295.285 145.439 262.383C143.105 229.481 150.117 196.589 165.667 167.5C181.217 138.41 204.671 114.308 233.326 97.9714C261.981 81.6348 294.67 73.7293 327.623 75.1661L324.574 145.1C304.802 144.238 285.189 148.981 267.996 158.783C250.803 168.585 236.73 183.046 227.4 200.5C218.07 217.953 213.863 237.688 215.263 257.43C216.664 277.171 223.615 296.114 235.315 312.076L178.858 353.46Z" fill="#A0ACC5" stroke="#F5F4F8" stroke-width="12" mask="url(#path-6-inside-4_101_23)"/>
</g>
</svg>
