<svg width="640" height="500" viewBox="0 0 640 500" fill="none" xmlns="http://www.w3.org/2000/svg">
<rect width="640" height="500" fill="white"/>
<rect width="640" height="500" fill="#F5F4F7"/>
<path d="M296.256 229.68C296.142 229.282 295.981 228.931 295.774 228.626C295.567 228.316 295.314 228.054 295.014 227.842C294.72 227.624 294.383 227.458 294.002 227.344C293.626 227.229 293.209 227.172 292.752 227.172C291.897 227.172 291.146 227.385 290.498 227.809C289.855 228.234 289.354 228.852 288.995 229.663C288.636 230.469 288.456 231.455 288.456 232.62C288.456 233.785 288.633 234.776 288.987 235.593C289.341 236.41 289.842 237.033 290.49 237.463C291.138 237.888 291.903 238.1 292.785 238.1C293.585 238.1 294.268 237.959 294.835 237.676C295.406 237.387 295.842 236.982 296.142 236.459C296.446 235.936 296.599 235.318 296.599 234.605L297.318 234.711H293.005V232.048H300.005V234.156C300.005 235.626 299.694 236.889 299.074 237.945C298.453 238.996 297.598 239.808 296.509 240.379C295.42 240.946 294.173 241.229 292.768 241.229C291.2 241.229 289.823 240.883 288.636 240.191C287.448 239.494 286.523 238.506 285.859 237.227C285.2 235.942 284.87 234.417 284.87 232.653C284.87 231.297 285.066 230.088 285.458 229.026C285.856 227.959 286.411 227.055 287.125 226.315C287.838 225.574 288.668 225.011 289.616 224.624C290.563 224.237 291.589 224.044 292.695 224.044C293.642 224.044 294.524 224.183 295.341 224.461C296.158 224.733 296.882 225.119 297.514 225.62C298.151 226.121 298.671 226.718 299.074 227.409C299.477 228.095 299.735 228.852 299.85 229.68H296.256ZM306.173 241.237C305.373 241.237 304.66 241.098 304.034 240.82C303.407 240.537 302.912 240.121 302.547 239.571C302.188 239.015 302.008 238.324 302.008 237.496C302.008 236.799 302.136 236.214 302.392 235.74C302.648 235.266 302.996 234.885 303.437 234.597C303.878 234.308 304.379 234.09 304.94 233.943C305.506 233.796 306.1 233.693 306.721 233.633C307.45 233.557 308.038 233.486 308.485 233.42C308.931 233.35 309.255 233.246 309.457 233.11C309.658 232.974 309.759 232.772 309.759 232.506V232.457C309.759 231.939 309.596 231.539 309.269 231.256C308.948 230.973 308.49 230.831 307.897 230.831C307.271 230.831 306.772 230.97 306.402 231.248C306.032 231.52 305.787 231.863 305.667 232.277L302.449 232.016C302.612 231.253 302.934 230.594 303.413 230.039C303.892 229.478 304.51 229.048 305.267 228.749C306.029 228.444 306.911 228.291 307.913 228.291C308.61 228.291 309.277 228.373 309.914 228.536C310.557 228.7 311.126 228.953 311.621 229.296C312.122 229.639 312.517 230.08 312.806 230.619C313.094 231.153 313.238 231.792 313.238 232.538V241H309.939V239.26H309.841C309.639 239.652 309.37 239.998 309.032 240.298C308.694 240.592 308.289 240.823 307.815 240.992C307.341 241.155 306.794 241.237 306.173 241.237ZM307.17 238.836C307.682 238.836 308.134 238.735 308.526 238.533C308.918 238.326 309.225 238.049 309.449 237.7C309.672 237.352 309.784 236.957 309.784 236.516V235.185C309.675 235.255 309.525 235.321 309.334 235.381C309.149 235.435 308.94 235.487 308.705 235.536C308.471 235.579 308.237 235.62 308.003 235.658C307.769 235.691 307.556 235.721 307.366 235.748C306.958 235.808 306.601 235.903 306.296 236.034C305.991 236.165 305.754 236.342 305.585 236.565C305.417 236.783 305.332 237.055 305.332 237.382C305.332 237.855 305.504 238.218 305.847 238.468C306.195 238.713 306.636 238.836 307.17 238.836ZM326.376 232.032L323.191 232.228C323.136 231.956 323.019 231.711 322.839 231.493C322.66 231.27 322.423 231.093 322.129 230.962C321.84 230.826 321.495 230.758 321.092 230.758C320.553 230.758 320.098 230.872 319.728 231.101C319.357 231.324 319.172 231.624 319.172 231.999C319.172 232.299 319.292 232.552 319.532 232.759C319.771 232.966 320.182 233.132 320.765 233.257L323.035 233.714C324.255 233.965 325.164 234.368 325.763 234.923C326.362 235.479 326.662 236.208 326.662 237.112C326.662 237.934 326.42 238.656 325.935 239.277C325.456 239.897 324.797 240.382 323.958 240.73C323.125 241.074 322.164 241.245 321.075 241.245C319.414 241.245 318.091 240.899 317.106 240.208C316.126 239.511 315.551 238.563 315.382 237.365L318.805 237.186C318.908 237.692 319.159 238.079 319.556 238.346C319.954 238.607 320.463 238.738 321.083 238.738C321.693 238.738 322.183 238.621 322.554 238.386C322.929 238.147 323.12 237.839 323.125 237.463C323.12 237.148 322.986 236.889 322.725 236.688C322.464 236.481 322.061 236.323 321.516 236.214L319.344 235.781C318.119 235.536 317.207 235.111 316.608 234.507C316.014 233.902 315.717 233.132 315.717 232.195C315.717 231.389 315.935 230.695 316.371 230.113C316.812 229.53 317.43 229.081 318.225 228.765C319.025 228.449 319.962 228.291 321.034 228.291C322.619 228.291 323.866 228.626 324.775 229.296C325.69 229.966 326.224 230.878 326.376 232.032ZM335.526 228.455V231.068H327.971V228.455H335.526ZM329.686 225.449H333.165V237.145C333.165 237.466 333.214 237.717 333.312 237.896C333.41 238.071 333.547 238.193 333.721 238.264C333.9 238.335 334.107 238.37 334.341 238.37C334.505 238.37 334.668 238.356 334.832 238.329C334.995 238.297 335.12 238.272 335.207 238.256L335.754 240.845C335.58 240.899 335.335 240.962 335.019 241.033C334.704 241.109 334.32 241.155 333.868 241.172C333.029 241.204 332.294 241.093 331.663 240.837C331.036 240.581 330.549 240.183 330.201 239.644C329.852 239.105 329.681 238.424 329.686 237.602V225.449ZM343.326 241.245C342.057 241.245 340.96 240.975 340.034 240.436C339.114 239.892 338.404 239.135 337.903 238.166C337.402 237.191 337.151 236.061 337.151 234.776C337.151 233.48 337.402 232.348 337.903 231.379C338.404 230.404 339.114 229.647 340.034 229.108C340.96 228.563 342.057 228.291 343.326 228.291C344.595 228.291 345.689 228.563 346.609 229.108C347.535 229.647 348.248 230.404 348.749 231.379C349.25 232.348 349.501 233.48 349.501 234.776C349.501 236.061 349.25 237.191 348.749 238.166C348.248 239.135 347.535 239.892 346.609 240.436C345.689 240.975 344.595 241.245 343.326 241.245ZM343.342 238.55C343.919 238.55 344.401 238.386 344.788 238.06C345.174 237.728 345.466 237.276 345.662 236.704C345.863 236.132 345.964 235.481 345.964 234.752C345.964 234.022 345.863 233.371 345.662 232.8C345.466 232.228 345.174 231.776 344.788 231.444C344.401 231.112 343.919 230.946 343.342 230.946C342.76 230.946 342.27 231.112 341.872 231.444C341.48 231.776 341.183 232.228 340.982 232.8C340.786 233.371 340.688 234.022 340.688 234.752C340.688 235.481 340.786 236.132 340.982 236.704C341.183 237.276 341.48 237.728 341.872 238.06C342.27 238.386 342.76 238.55 343.342 238.55ZM362.201 232.032L359.016 232.228C358.961 231.956 358.844 231.711 358.665 231.493C358.485 231.27 358.248 231.093 357.954 230.962C357.665 230.826 357.32 230.758 356.917 230.758C356.378 230.758 355.923 230.872 355.553 231.101C355.183 231.324 354.997 231.624 354.997 231.999C354.997 232.299 355.117 232.552 355.357 232.759C355.596 232.966 356.007 233.132 356.59 233.257L358.861 233.714C360.08 233.965 360.99 234.368 361.589 234.923C362.188 235.479 362.487 236.208 362.487 237.112C362.487 237.934 362.245 238.656 361.76 239.277C361.281 239.897 360.622 240.382 359.784 240.73C358.951 241.074 357.989 241.245 356.9 241.245C355.24 241.245 353.917 240.899 352.931 240.208C351.951 239.511 351.376 238.563 351.208 237.365L354.63 237.186C354.733 237.692 354.984 238.079 355.381 238.346C355.779 238.607 356.288 238.738 356.909 238.738C357.518 238.738 358.009 238.621 358.379 238.386C358.754 238.147 358.945 237.839 358.951 237.463C358.945 237.148 358.812 236.889 358.55 236.688C358.289 236.481 357.886 236.323 357.341 236.214L355.169 235.781C353.944 235.536 353.032 235.111 352.433 234.507C351.839 233.902 351.542 233.132 351.542 232.195C351.542 231.389 351.76 230.695 352.196 230.113C352.637 229.53 353.255 229.081 354.05 228.765C354.85 228.449 355.787 228.291 356.86 228.291C358.444 228.291 359.691 228.626 360.6 229.296C361.515 229.966 362.049 230.878 362.201 232.032ZM277.685 252.273H282.046L286.653 263.511H286.849L291.455 252.273H295.817V269H292.386V258.113H292.248L287.919 268.918H285.583L281.254 258.072H281.115V269H277.685V252.273ZM304.383 269.245C303.092 269.245 301.981 268.984 301.05 268.461C300.125 267.933 299.411 267.187 298.91 266.223C298.409 265.254 298.159 264.108 298.159 262.784C298.159 261.494 298.409 260.361 298.91 259.387C299.411 258.412 300.116 257.652 301.026 257.108C301.941 256.563 303.013 256.291 304.244 256.291C305.071 256.291 305.842 256.425 306.555 256.691C307.274 256.953 307.9 257.348 308.434 257.876C308.973 258.404 309.392 259.068 309.692 259.869C309.991 260.664 310.141 261.595 310.141 262.662V263.618H299.547V261.461H306.866C306.866 260.96 306.757 260.517 306.539 260.13C306.321 259.743 306.019 259.441 305.632 259.223C305.251 259 304.807 258.888 304.301 258.888C303.773 258.888 303.305 259.011 302.896 259.256C302.493 259.496 302.177 259.82 301.949 260.228C301.72 260.631 301.603 261.08 301.598 261.576V263.626C301.598 264.246 301.712 264.783 301.941 265.235C302.175 265.687 302.504 266.035 302.929 266.28C303.354 266.525 303.857 266.648 304.44 266.648C304.826 266.648 305.18 266.593 305.502 266.484C305.823 266.375 306.098 266.212 306.327 265.994C306.555 265.777 306.73 265.51 306.849 265.194L310.067 265.406C309.904 266.179 309.569 266.855 309.063 267.432C308.562 268.004 307.914 268.45 307.119 268.771C306.329 269.087 305.417 269.245 304.383 269.245ZM315.891 261.747V269H312.411V256.455H315.727V258.668H315.875C316.152 257.938 316.618 257.361 317.271 256.936C317.925 256.506 318.717 256.291 319.648 256.291C320.519 256.291 321.279 256.482 321.927 256.863C322.575 257.244 323.078 257.789 323.438 258.496C323.797 259.199 323.977 260.037 323.977 261.012V269H320.497V261.633C320.503 260.865 320.307 260.266 319.909 259.836C319.512 259.4 318.965 259.183 318.268 259.183C317.799 259.183 317.386 259.283 317.026 259.485C316.672 259.686 316.395 259.98 316.193 260.367C315.997 260.748 315.896 261.208 315.891 261.747ZM337.157 260.032L333.972 260.228C333.917 259.956 333.8 259.711 333.621 259.493C333.441 259.27 333.204 259.093 332.91 258.962C332.622 258.826 332.276 258.758 331.873 258.758C331.334 258.758 330.879 258.872 330.509 259.101C330.139 259.324 329.953 259.624 329.953 259.999C329.953 260.299 330.073 260.552 330.313 260.759C330.552 260.966 330.963 261.132 331.546 261.257L333.817 261.714C335.036 261.965 335.946 262.368 336.545 262.923C337.144 263.479 337.443 264.208 337.443 265.112C337.443 265.934 337.201 266.656 336.716 267.277C336.237 267.897 335.578 268.382 334.74 268.73C333.907 269.074 332.946 269.245 331.856 269.245C330.196 269.245 328.873 268.899 327.887 268.208C326.907 267.511 326.332 266.563 326.164 265.365L329.586 265.186C329.689 265.692 329.94 266.079 330.337 266.346C330.735 266.607 331.244 266.738 331.865 266.738C332.475 266.738 332.965 266.621 333.335 266.386C333.711 266.147 333.901 265.839 333.907 265.463C333.901 265.148 333.768 264.889 333.506 264.688C333.245 264.481 332.842 264.323 332.298 264.214L330.125 263.781C328.9 263.536 327.988 263.111 327.389 262.507C326.795 261.902 326.499 261.132 326.499 260.195C326.499 259.389 326.716 258.695 327.152 258.113C327.593 257.53 328.211 257.081 329.006 256.765C329.806 256.449 330.743 256.291 331.816 256.291C333.4 256.291 334.647 256.626 335.556 257.296C336.471 257.966 337.005 258.878 337.157 260.032ZM343.212 269.237C342.411 269.237 341.698 269.098 341.072 268.82C340.445 268.537 339.95 268.121 339.585 267.571C339.226 267.015 339.046 266.324 339.046 265.496C339.046 264.799 339.174 264.214 339.43 263.74C339.686 263.266 340.034 262.885 340.475 262.597C340.916 262.308 341.417 262.09 341.978 261.943C342.544 261.796 343.138 261.693 343.759 261.633C344.488 261.557 345.076 261.486 345.523 261.42C345.969 261.35 346.293 261.246 346.495 261.11C346.696 260.974 346.797 260.772 346.797 260.506V260.457C346.797 259.939 346.634 259.539 346.307 259.256C345.986 258.973 345.528 258.831 344.935 258.831C344.309 258.831 343.81 258.97 343.44 259.248C343.07 259.52 342.825 259.863 342.705 260.277L339.487 260.016C339.65 259.253 339.972 258.594 340.451 258.039C340.93 257.478 341.548 257.048 342.305 256.749C343.067 256.444 343.949 256.291 344.951 256.291C345.648 256.291 346.315 256.373 346.952 256.536C347.595 256.7 348.164 256.953 348.659 257.296C349.16 257.639 349.555 258.08 349.844 258.619C350.132 259.153 350.277 259.792 350.277 260.538V269H346.977V267.26H346.879C346.677 267.652 346.408 267.998 346.07 268.298C345.733 268.592 345.327 268.823 344.853 268.992C344.379 269.155 343.832 269.237 343.212 269.237ZM344.208 266.836C344.72 266.836 345.172 266.735 345.564 266.533C345.956 266.326 346.263 266.049 346.487 265.7C346.71 265.352 346.822 264.957 346.822 264.516V263.185C346.713 263.255 346.563 263.321 346.372 263.381C346.187 263.435 345.978 263.487 345.743 263.536C345.509 263.579 345.275 263.62 345.041 263.658C344.807 263.691 344.595 263.721 344.404 263.748C343.996 263.808 343.639 263.903 343.334 264.034C343.029 264.165 342.792 264.342 342.623 264.565C342.455 264.783 342.37 265.055 342.37 265.382C342.37 265.855 342.542 266.218 342.885 266.468C343.233 266.713 343.674 266.836 344.208 266.836ZM352.976 269V256.455H356.455V269H352.976ZM354.724 254.837C354.206 254.837 353.763 254.666 353.392 254.323C353.028 253.974 352.845 253.558 352.845 253.073C352.845 252.594 353.028 252.183 353.392 251.84C353.763 251.491 354.206 251.317 354.724 251.317C355.241 251.317 355.682 251.491 356.047 251.84C356.417 252.183 356.602 252.594 356.602 253.073C356.602 253.558 356.417 253.974 356.047 254.323C355.682 254.666 355.241 254.837 354.724 254.837ZM369.681 260.032L366.495 260.228C366.441 259.956 366.324 259.711 366.144 259.493C365.964 259.27 365.728 259.093 365.434 258.962C365.145 258.826 364.799 258.758 364.396 258.758C363.857 258.758 363.403 258.872 363.032 259.101C362.662 259.324 362.477 259.624 362.477 259.999C362.477 260.299 362.597 260.552 362.836 260.759C363.076 260.966 363.487 261.132 364.07 261.257L366.34 261.714C367.56 261.965 368.469 262.368 369.068 262.923C369.667 263.479 369.967 264.208 369.967 265.112C369.967 265.934 369.724 266.656 369.24 267.277C368.76 267.897 368.102 268.382 367.263 268.73C366.43 269.074 365.469 269.245 364.38 269.245C362.719 269.245 361.396 268.899 360.41 268.208C359.43 267.511 358.856 266.563 358.687 265.365L362.109 265.186C362.213 265.692 362.463 266.079 362.861 266.346C363.258 266.607 363.767 266.738 364.388 266.738C364.998 266.738 365.488 266.621 365.858 266.386C366.234 266.147 366.425 265.839 366.43 265.463C366.425 265.148 366.291 264.889 366.03 264.688C365.768 264.481 365.365 264.323 364.821 264.214L362.648 263.781C361.423 263.536 360.511 263.111 359.912 262.507C359.319 261.902 359.022 261.132 359.022 260.195C359.022 259.389 359.24 258.695 359.675 258.113C360.116 257.53 360.734 257.081 361.529 256.765C362.33 256.449 363.266 256.291 364.339 256.291C365.924 256.291 367.171 256.626 368.08 257.296C368.995 257.966 369.528 258.878 369.681 260.032Z" fill="black"/>
<mask id="path-3-inside-1_102_70" fill="white">
<path d="M320 100C346.865 100 373.238 107.215 396.361 120.892C419.485 134.568 438.511 154.204 451.452 177.747C464.392 201.29 470.772 227.877 469.925 254.729C469.078 281.581 461.035 307.713 446.637 330.394L395.982 298.236C404.621 284.628 409.447 268.949 409.955 252.837C410.463 236.726 406.635 220.774 398.871 206.648C391.107 192.522 379.691 180.741 365.817 172.535C351.943 164.329 336.119 160 320 160L320 100Z"/>
</mask>
<path d="M320 100C346.865 100 373.238 107.215 396.361 120.892C419.485 134.568 438.511 154.204 451.452 177.747C464.392 201.29 470.772 227.877 469.925 254.729C469.078 281.581 461.035 307.713 446.637 330.394L395.982 298.236C404.621 284.628 409.447 268.949 409.955 252.837C410.463 236.726 406.635 220.774 398.871 206.648C391.107 192.522 379.691 180.741 365.817 172.535C351.943 164.329 336.119 160 320 160L320 100Z" fill="#AC387E" stroke="#F5F4F8" stroke-width="12" mask="url(#path-3-inside-1_102_70)"/>
<mask id="path-4-inside-2_102_70" fill="white">
<path d="M274.211 392.84C242.522 382.682 215.111 362.275 196.291 334.83L245.775 300.898C257.066 317.365 273.513 329.609 292.527 335.704L274.211 392.84Z"/>
</mask>
<path d="M274.211 392.84C242.522 382.682 215.111 362.275 196.291 334.83L245.775 300.898C257.066 317.365 273.513 329.609 292.527 335.704L274.211 392.84Z" fill="#91C108" stroke="#F5F4F8" stroke-width="12" mask="url(#path-4-inside-2_102_70)"/>
<mask id="path-5-inside-3_102_70" fill="white">
<path d="M450.338 324.242C432.58 355.419 404.234 379.198 370.443 391.264C336.653 403.33 299.657 402.884 266.168 390.007L287.701 334.004C307.794 341.73 329.992 341.998 350.266 334.758C370.54 327.519 387.548 313.252 398.203 294.545L450.338 324.242Z"/>
</mask>
<path d="M450.338 324.242C432.58 355.419 404.234 379.198 370.443 391.264C336.653 403.33 299.657 402.884 266.168 390.007L287.701 334.004C307.794 341.73 329.992 341.998 350.266 334.758C370.54 327.519 387.548 313.252 398.203 294.545L450.338 324.242Z" fill="#F4BE37" stroke="#F5F4F8" stroke-width="12" mask="url(#path-5-inside-3_102_70)"/>
<mask id="path-6-inside-4_102_70" fill="white">
<path d="M199.021 338.68C182.307 315.878 172.377 288.815 170.376 260.614C168.375 232.412 174.386 204.219 187.715 179.285C201.043 154.352 221.147 133.693 245.708 119.69C270.27 105.687 298.288 98.9108 326.534 100.142L323.921 160.085C306.973 159.346 290.162 163.412 275.425 171.814C260.688 180.216 248.626 192.611 240.629 207.571C232.632 222.531 229.025 239.447 230.226 256.368C231.426 273.289 237.384 289.527 247.413 303.208L199.021 338.68Z"/>
</mask>
<path d="M199.021 338.68C182.307 315.878 172.377 288.815 170.376 260.614C168.375 232.412 174.386 204.219 187.715 179.285C201.043 154.352 221.147 133.693 245.708 119.69C270.27 105.687 298.288 98.9108 326.534 100.142L323.921 160.085C306.973 159.346 290.162 163.412 275.425 171.814C260.688 180.216 248.626 192.611 240.629 207.571C232.632 222.531 229.025 239.447 230.226 256.368C231.426 273.289 237.384 289.527 247.413 303.208L199.021 338.68Z" fill="#8626E5" stroke="#F5F4F8" stroke-width="12" mask="url(#path-6-inside-4_102_70)"/>
</svg>
