<svg width="1280" height="720" viewBox="0 0 1280 720" fill="none" xmlns="http://www.w3.org/2000/svg">
<rect width="1280" height="720" fill="black"/>
<path d="M259 315C254 296.5 264 267.5 312 264C314.667 264 323.6 266.7 338 277.5C356 291 323.5 303.5 346 315C368.5 326.5 395 343 404 372C413 401 378 422.5 374 432C370 441.5 432 556.5 432 563.5C432 570.5 407 570 395 570C383 570 368 526.5 363.5 526.5C359 526.5 360.5 570 346 570C331.5 570 295.5 409 291 406C286.5 403 259 481 249.5 482C240 483 226 421.5 225 387.5C224 353.5 264 333.5 259 315Z" fill="#FF00FF" fill-opacity="0.25"/>
</svg>
