<svg width="640" height="500" viewBox="0 0 640 500" fill="none" xmlns="http://www.w3.org/2000/svg">
<rect width="640" height="500" fill="white"/>
<rect width="640" height="500" fill="#F5F4F7"/>
<path d="M260.853 234.189V231.273H274.591V234.189H269.47V248H265.974V234.189H260.853ZM275.485 248V235.455H278.858V237.643H278.989C279.218 236.865 279.602 236.277 280.141 235.879C280.68 235.476 281.301 235.275 282.003 235.275C282.177 235.275 282.365 235.286 282.566 235.308C282.768 235.329 282.945 235.359 283.097 235.397V238.485C282.934 238.436 282.708 238.392 282.419 238.354C282.131 238.316 281.867 238.297 281.627 238.297C281.115 238.297 280.658 238.408 280.255 238.632C279.858 238.85 279.542 239.154 279.308 239.547C279.079 239.939 278.965 240.391 278.965 240.902V248H275.485ZM288.114 248.237C287.314 248.237 286.601 248.098 285.974 247.82C285.348 247.537 284.853 247.121 284.488 246.571C284.129 246.015 283.949 245.324 283.949 244.496C283.949 243.799 284.077 243.214 284.333 242.74C284.589 242.266 284.937 241.885 285.378 241.597C285.819 241.308 286.32 241.09 286.881 240.943C287.447 240.796 288.041 240.693 288.662 240.633C289.391 240.557 289.979 240.486 290.426 240.42C290.872 240.35 291.196 240.246 291.398 240.11C291.599 239.974 291.7 239.772 291.7 239.506V239.457C291.7 238.939 291.537 238.539 291.21 238.256C290.889 237.973 290.431 237.831 289.838 237.831C289.212 237.831 288.713 237.97 288.343 238.248C287.973 238.52 287.728 238.863 287.608 239.277L284.39 239.016C284.553 238.253 284.875 237.594 285.354 237.039C285.833 236.478 286.451 236.048 287.208 235.749C287.97 235.444 288.852 235.291 289.854 235.291C290.551 235.291 291.218 235.373 291.855 235.536C292.498 235.7 293.067 235.953 293.562 236.296C294.063 236.639 294.458 237.08 294.746 237.619C295.035 238.153 295.179 238.792 295.179 239.538V248H291.88V246.26H291.782C291.58 246.652 291.311 246.998 290.973 247.298C290.635 247.592 290.23 247.823 289.756 247.992C289.282 248.155 288.735 248.237 288.114 248.237ZM289.111 245.836C289.623 245.836 290.075 245.735 290.467 245.533C290.859 245.326 291.166 245.049 291.39 244.7C291.613 244.352 291.724 243.957 291.724 243.516V242.185C291.616 242.255 291.466 242.321 291.275 242.381C291.09 242.435 290.88 242.487 290.646 242.536C290.412 242.579 290.178 242.62 289.944 242.658C289.71 242.691 289.497 242.721 289.307 242.748C288.898 242.808 288.542 242.903 288.237 243.034C287.932 243.165 287.695 243.342 287.526 243.565C287.357 243.783 287.273 244.055 287.273 244.382C287.273 244.855 287.445 245.218 287.788 245.468C288.136 245.713 288.577 245.836 289.111 245.836ZM301.358 240.747V248H297.879V235.455H301.195V237.668H301.342C301.619 236.938 302.085 236.361 302.738 235.936C303.392 235.506 304.184 235.291 305.115 235.291C305.986 235.291 306.746 235.482 307.394 235.863C308.042 236.244 308.546 236.789 308.905 237.496C309.264 238.199 309.444 239.037 309.444 240.012V248H305.965V240.633C305.97 239.865 305.774 239.266 305.377 238.836C304.979 238.4 304.432 238.183 303.735 238.183C303.267 238.183 302.853 238.283 302.493 238.485C302.14 238.686 301.862 238.98 301.66 239.367C301.464 239.748 301.364 240.208 301.358 240.747ZM322.625 239.032L319.439 239.228C319.385 238.956 319.268 238.711 319.088 238.493C318.908 238.27 318.671 238.093 318.377 237.962C318.089 237.826 317.743 237.758 317.34 237.758C316.801 237.758 316.346 237.872 315.976 238.101C315.606 238.324 315.421 238.624 315.421 238.999C315.421 239.299 315.541 239.552 315.78 239.759C316.02 239.966 316.431 240.132 317.013 240.257L319.284 240.714C320.504 240.965 321.413 241.368 322.012 241.923C322.611 242.479 322.91 243.208 322.91 244.112C322.91 244.934 322.668 245.656 322.184 246.277C321.704 246.897 321.045 247.382 320.207 247.73C319.374 248.074 318.413 248.245 317.324 248.245C315.663 248.245 314.34 247.899 313.354 247.208C312.374 246.511 311.8 245.563 311.631 244.365L315.053 244.186C315.157 244.692 315.407 245.079 315.805 245.346C316.202 245.607 316.711 245.738 317.332 245.738C317.942 245.738 318.432 245.621 318.802 245.386C319.178 245.147 319.368 244.839 319.374 244.463C319.368 244.148 319.235 243.889 318.974 243.688C318.712 243.481 318.309 243.323 317.765 243.214L315.592 242.781C314.367 242.536 313.455 242.111 312.856 241.507C312.263 240.902 311.966 240.132 311.966 239.195C311.966 238.389 312.184 237.695 312.619 237.113C313.06 236.53 313.678 236.081 314.473 235.765C315.274 235.449 316.21 235.291 317.283 235.291C318.867 235.291 320.114 235.626 321.024 236.296C321.938 236.966 322.472 237.878 322.625 239.032ZM325.101 252.705V235.455H328.532V237.562H328.687C328.839 237.224 329.06 236.881 329.349 236.533C329.643 236.179 330.024 235.885 330.492 235.651C330.966 235.411 331.554 235.291 332.256 235.291C333.171 235.291 334.015 235.531 334.788 236.01C335.561 236.484 336.179 237.2 336.642 238.158C337.105 239.111 337.336 240.306 337.336 241.744C337.336 243.143 337.11 244.325 336.659 245.288C336.212 246.247 335.602 246.974 334.829 247.469C334.061 247.959 333.201 248.204 332.248 248.204C331.573 248.204 330.998 248.093 330.525 247.869C330.056 247.646 329.673 247.366 329.373 247.028C329.074 246.685 328.845 246.339 328.687 245.991H328.581V252.705H325.101ZM328.507 241.727C328.507 242.473 328.611 243.124 328.818 243.679C329.025 244.235 329.324 244.668 329.716 244.978C330.108 245.283 330.585 245.435 331.145 245.435C331.712 245.435 332.191 245.28 332.583 244.97C332.975 244.654 333.272 244.218 333.473 243.663C333.68 243.102 333.784 242.457 333.784 241.727C333.784 241.003 333.683 240.366 333.481 239.816C333.28 239.266 332.983 238.836 332.591 238.526C332.199 238.215 331.717 238.06 331.145 238.06C330.579 238.06 330.1 238.21 329.708 238.509C329.321 238.809 329.025 239.233 328.818 239.783C328.611 240.333 328.507 240.981 328.507 241.727ZM345.324 248.245C344.056 248.245 342.959 247.975 342.033 247.436C341.113 246.892 340.402 246.135 339.901 245.166C339.4 244.191 339.15 243.061 339.15 241.776C339.15 240.48 339.4 239.348 339.901 238.379C340.402 237.404 341.113 236.647 342.033 236.108C342.959 235.563 344.056 235.291 345.324 235.291C346.593 235.291 347.688 235.563 348.608 236.108C349.533 236.647 350.247 237.404 350.748 238.379C351.249 239.348 351.499 240.48 351.499 241.776C351.499 243.061 351.249 244.191 350.748 245.166C350.247 246.135 349.533 246.892 348.608 247.436C347.688 247.975 346.593 248.245 345.324 248.245ZM345.341 245.55C345.918 245.55 346.4 245.386 346.786 245.06C347.173 244.728 347.464 244.276 347.66 243.704C347.862 243.132 347.963 242.481 347.963 241.752C347.963 241.022 347.862 240.371 347.66 239.8C347.464 239.228 347.173 238.776 346.786 238.444C346.4 238.112 345.918 237.946 345.341 237.946C344.758 237.946 344.268 238.112 343.871 238.444C343.479 238.776 343.182 239.228 342.98 239.8C342.784 240.371 342.686 241.022 342.686 241.752C342.686 242.481 342.784 243.132 342.98 243.704C343.182 244.276 343.479 244.728 343.871 245.06C344.268 245.386 344.758 245.55 345.341 245.55ZM353.762 248V235.455H357.135V237.643H357.265C357.494 236.865 357.878 236.277 358.417 235.879C358.956 235.476 359.577 235.275 360.279 235.275C360.454 235.275 360.641 235.286 360.843 235.308C361.044 235.329 361.221 235.359 361.374 235.397V238.485C361.21 238.436 360.984 238.392 360.696 238.354C360.407 238.316 360.143 238.297 359.904 238.297C359.392 238.297 358.934 238.408 358.531 238.632C358.134 238.85 357.818 239.154 357.584 239.547C357.355 239.939 357.241 240.391 357.241 240.902V248H353.762ZM370.475 235.455V238.068H362.919V235.455H370.475ZM364.635 232.449H368.114V244.145C368.114 244.466 368.163 244.717 368.261 244.896C368.359 245.071 368.495 245.193 368.669 245.264C368.849 245.335 369.056 245.37 369.29 245.37C369.454 245.37 369.617 245.356 369.78 245.329C369.944 245.297 370.069 245.272 370.156 245.256L370.703 247.845C370.529 247.899 370.284 247.962 369.968 248.033C369.652 248.109 369.268 248.155 368.816 248.172C367.978 248.204 367.243 248.093 366.611 247.837C365.985 247.581 365.498 247.183 365.149 246.644C364.801 246.105 364.629 245.424 364.635 244.602V232.449ZM378.324 248.245C377.033 248.245 375.922 247.984 374.991 247.461C374.066 246.933 373.352 246.187 372.851 245.223C372.35 244.254 372.1 243.108 372.1 241.784C372.1 240.494 372.35 239.361 372.851 238.387C373.352 237.412 374.057 236.652 374.967 236.108C375.881 235.563 376.954 235.291 378.185 235.291C379.012 235.291 379.783 235.425 380.496 235.691C381.215 235.953 381.841 236.348 382.375 236.876C382.914 237.404 383.333 238.068 383.633 238.869C383.932 239.664 384.082 240.595 384.082 241.662V242.618H373.488V240.461H380.807C380.807 239.96 380.698 239.517 380.48 239.13C380.262 238.743 379.96 238.441 379.573 238.223C379.192 238 378.748 237.888 378.242 237.888C377.714 237.888 377.245 238.011 376.837 238.256C376.434 238.496 376.118 238.82 375.89 239.228C375.661 239.631 375.544 240.08 375.538 240.576V242.626C375.538 243.246 375.653 243.783 375.881 244.235C376.116 244.687 376.445 245.035 376.87 245.28C377.294 245.525 377.798 245.648 378.381 245.648C378.767 245.648 379.121 245.593 379.443 245.484C379.764 245.375 380.039 245.212 380.267 244.994C380.496 244.777 380.67 244.51 380.79 244.194L384.008 244.406C383.845 245.179 383.51 245.855 383.004 246.432C382.503 247.004 381.855 247.45 381.06 247.771C380.27 248.087 379.358 248.245 378.324 248.245ZM299.317 276V273.452L305.271 267.939C305.778 267.449 306.203 267.007 306.546 266.615C306.894 266.223 307.158 265.839 307.338 265.464C307.518 265.083 307.607 264.672 307.607 264.23C307.607 263.74 307.496 263.318 307.273 262.964C307.049 262.605 306.744 262.33 306.358 262.14C305.971 261.944 305.533 261.846 305.043 261.846C304.531 261.846 304.084 261.949 303.703 262.156C303.322 262.363 303.028 262.66 302.821 263.046C302.614 263.433 302.511 263.893 302.511 264.426H299.154C299.154 263.332 299.402 262.382 299.897 261.576C300.393 260.77 301.087 260.147 301.98 259.706C302.873 259.265 303.902 259.044 305.067 259.044C306.265 259.044 307.308 259.256 308.195 259.681C309.088 260.1 309.783 260.683 310.278 261.429C310.774 262.175 311.021 263.03 311.021 263.994C311.021 264.625 310.896 265.249 310.646 265.864C310.401 266.479 309.962 267.163 309.331 267.914C308.699 268.66 307.809 269.556 306.66 270.601L304.218 272.994V273.109H311.242V276H299.317ZM319.914 276.229C318.76 276.229 317.73 276.016 316.827 275.592C315.928 275.167 315.215 274.582 314.687 273.836C314.158 273.09 313.884 272.235 313.862 271.271H317.292C317.33 271.919 317.602 272.444 318.109 272.847C318.615 273.25 319.217 273.452 319.914 273.452C320.469 273.452 320.959 273.329 321.384 273.084C321.814 272.834 322.149 272.488 322.389 272.047C322.634 271.6 322.756 271.089 322.756 270.511C322.756 269.923 322.631 269.406 322.381 268.96C322.136 268.513 321.795 268.165 321.36 267.914C320.924 267.664 320.426 267.536 319.865 267.53C319.375 267.53 318.898 267.631 318.436 267.832C317.978 268.034 317.622 268.309 317.366 268.657L314.221 268.094L315.013 259.273H325.239V262.164H317.929L317.496 266.354H317.594C317.888 265.94 318.332 265.597 318.926 265.325C319.519 265.053 320.183 264.917 320.919 264.917C321.926 264.917 322.824 265.153 323.614 265.627C324.403 266.101 325.027 266.752 325.484 267.579C325.942 268.401 326.168 269.349 326.162 270.422C326.168 271.549 325.906 272.551 325.378 273.427C324.855 274.298 324.123 274.984 323.181 275.485C322.244 275.981 321.155 276.229 319.914 276.229ZM337.785 272.864V271.982C337.785 271.312 337.926 270.696 338.209 270.136C338.498 269.569 338.915 269.117 339.459 268.78C340.009 268.437 340.679 268.265 341.468 268.265C342.269 268.265 342.941 268.434 343.486 268.772C344.036 269.109 344.449 269.561 344.727 270.127C345.01 270.688 345.152 271.306 345.152 271.982V272.864C345.152 273.533 345.01 274.151 344.727 274.718C344.444 275.279 344.027 275.728 343.477 276.065C342.928 276.408 342.258 276.58 341.468 276.58C340.668 276.58 339.995 276.408 339.451 276.065C338.906 275.728 338.493 275.279 338.209 274.718C337.926 274.151 337.785 273.533 337.785 272.864ZM340.161 271.982V272.864C340.161 273.25 340.254 273.615 340.439 273.958C340.63 274.301 340.973 274.473 341.468 274.473C341.964 274.473 342.301 274.304 342.481 273.966C342.666 273.629 342.759 273.261 342.759 272.864V271.982C342.759 271.584 342.672 271.214 342.497 270.871C342.323 270.528 341.98 270.356 341.468 270.356C340.978 270.356 340.638 270.528 340.447 270.871C340.257 271.214 340.161 271.584 340.161 271.982ZM329.201 263.291V262.409C329.201 261.734 329.345 261.116 329.633 260.555C329.922 259.989 330.339 259.537 330.883 259.199C331.433 258.862 332.097 258.693 332.876 258.693C333.682 258.693 334.357 258.862 334.902 259.199C335.446 259.537 335.86 259.989 336.143 260.555C336.426 261.116 336.568 261.734 336.568 262.409V263.291C336.568 263.966 336.423 264.584 336.135 265.145C335.852 265.706 335.435 266.155 334.885 266.493C334.341 266.825 333.671 266.991 332.876 266.991C332.081 266.991 331.408 266.822 330.859 266.485C330.314 266.142 329.9 265.692 329.617 265.137C329.339 264.576 329.201 263.961 329.201 263.291ZM331.594 262.409V263.291C331.594 263.689 331.686 264.056 331.871 264.394C332.062 264.731 332.397 264.9 332.876 264.9C333.377 264.9 333.717 264.731 333.897 264.394C334.082 264.056 334.175 263.689 334.175 263.291V262.409C334.175 262.012 334.087 261.641 333.913 261.298C333.739 260.955 333.393 260.784 332.876 260.784C332.391 260.784 332.056 260.958 331.871 261.306C331.686 261.655 331.594 262.022 331.594 262.409ZM330.279 276L341.779 259.273H343.919L332.419 276H330.279Z" fill="black"/>
<mask id="path-3-inside-1_101_30" fill="white">
<path d="M466.415 217.401C472.253 243.624 470.942 270.934 462.618 296.477C454.294 322.02 439.262 344.859 419.094 362.607C398.926 380.355 374.361 392.361 347.967 397.37C321.573 402.379 294.318 400.207 269.05 391.082L289.43 334.649C304.591 340.124 320.944 341.427 336.78 338.422C352.617 335.416 367.356 328.213 379.457 317.564C391.557 306.915 400.576 293.212 405.571 277.886C410.565 262.56 411.352 246.174 407.849 230.44L466.415 217.401Z"/>
</mask>
<path d="M466.415 217.401C472.253 243.624 470.942 270.934 462.618 296.477C454.294 322.02 439.262 344.859 419.094 362.607C398.926 380.355 374.361 392.361 347.967 397.37C321.573 402.379 294.318 400.207 269.05 391.082L289.43 334.649C304.591 340.124 320.944 341.427 336.78 338.422C352.617 335.416 367.356 328.213 379.457 317.564C391.557 306.915 400.576 293.212 405.571 277.886C410.565 262.56 411.352 246.174 407.849 230.44L466.415 217.401Z" fill="#F4BE37" stroke="#F5F4F8" stroke-width="12" mask="url(#path-3-inside-1_101_30)"/>
<g opacity="0.4">
<mask id="path-4-inside-2_101_30" fill="white">
<path d="M274.211 392.84C242.522 382.682 215.111 362.275 196.291 334.83L245.775 300.898C257.066 317.365 273.513 329.609 292.527 335.704L274.211 392.84Z"/>
</mask>
<path d="M274.211 392.84C242.522 382.682 215.111 362.275 196.291 334.83L245.775 300.898C257.066 317.365 273.513 329.609 292.527 335.704L274.211 392.84Z" fill="#A0ACC5" stroke="#F5F4F8" stroke-width="12" mask="url(#path-4-inside-2_101_30)"/>
</g>
<g opacity="0.4">
<mask id="path-5-inside-3_101_30" fill="white">
<path d="M320 100C355.463 100 389.778 112.564 416.857 135.463C443.936 158.362 462.026 190.114 467.916 225.084L408.75 235.05C405.215 214.068 394.361 195.017 378.114 181.278C361.867 167.539 341.278 160 320 160L320 100Z"/>
</mask>
<path d="M320 100C355.463 100 389.778 112.564 416.857 135.463C443.936 158.362 462.026 190.114 467.916 225.084L408.75 235.05C405.215 214.068 394.361 195.017 378.114 181.278C361.867 167.539 341.278 160 320 160L320 100Z" fill="#A0ACC5" stroke="#F5F4F8" stroke-width="12" mask="url(#path-5-inside-3_101_30)"/>
</g>
<g opacity="0.4">
<mask id="path-6-inside-4_101_30" fill="white">
<path d="M199.021 338.68C182.307 315.878 172.377 288.815 170.376 260.614C168.375 232.412 174.386 204.219 187.715 179.285C201.043 154.352 221.147 133.693 245.708 119.69C270.27 105.687 298.288 98.9108 326.534 100.142L323.921 160.085C306.973 159.346 290.162 163.412 275.425 171.814C260.688 180.216 248.626 192.611 240.629 207.571C232.632 222.531 229.025 239.447 230.226 256.368C231.426 273.289 237.384 289.527 247.413 303.208L199.021 338.68Z"/>
</mask>
<path d="M199.021 338.68C182.307 315.878 172.377 288.815 170.376 260.614C168.375 232.412 174.386 204.219 187.715 179.285C201.043 154.352 221.147 133.693 245.708 119.69C270.27 105.687 298.288 98.9108 326.534 100.142L323.921 160.085C306.973 159.346 290.162 163.412 275.425 171.814C260.688 180.216 248.626 192.611 240.629 207.571C232.632 222.531 229.025 239.447 230.226 256.368C231.426 273.289 237.384 289.527 247.413 303.208L199.021 338.68Z" fill="#A0ACC5" stroke="#F5F4F8" stroke-width="12" mask="url(#path-6-inside-4_101_30)"/>
</g>
<mask id="path-7-inside-5_101_30" fill="white">
<path d="M320 100C346.865 100 373.238 107.215 396.361 120.892C419.485 134.568 438.511 154.204 451.452 177.747C464.392 201.29 470.772 227.877 469.925 254.729C469.078 281.581 461.035 307.713 446.637 330.394L395.982 298.236C404.621 284.628 409.447 268.949 409.955 252.837C410.463 236.726 406.635 220.774 398.871 206.648C391.107 192.522 379.691 180.741 365.817 172.535C351.943 164.329 336.119 160 320 160L320 100Z"/>
</mask>
<path d="M320 100C346.865 100 373.238 107.215 396.361 120.892C419.485 134.568 438.511 154.204 451.452 177.747C464.392 201.29 470.772 227.877 469.925 254.729C469.078 281.581 461.035 307.713 446.637 330.394L395.982 298.236C404.621 284.628 409.447 268.949 409.955 252.837C410.463 236.726 406.635 220.774 398.871 206.648C391.107 192.522 379.691 180.741 365.817 172.535C351.943 164.329 336.119 160 320 160L320 100Z" fill="#DEE1E9" stroke="#F5F4F8" stroke-width="12" mask="url(#path-7-inside-5_101_30)"/>
<mask id="path-8-inside-6_101_30" fill="white">
<path d="M274.211 392.84C242.522 382.682 215.111 362.275 196.291 334.83L245.775 300.898C257.066 317.365 273.513 329.609 292.527 335.704L274.211 392.84Z"/>
</mask>
<path d="M274.211 392.84C242.522 382.682 215.111 362.275 196.291 334.83L245.775 300.898C257.066 317.365 273.513 329.609 292.527 335.704L274.211 392.84Z" fill="#DEE1E9" stroke="#F5F4F8" stroke-width="12" mask="url(#path-8-inside-6_101_30)"/>
<mask id="path-9-inside-7_101_30" fill="white">
<path d="M450.338 324.242C432.58 355.419 404.234 379.198 370.443 391.264C336.653 403.33 299.657 402.884 266.168 390.007L287.701 334.004C307.794 341.73 329.992 341.998 350.266 334.758C370.54 327.519 387.548 313.252 398.203 294.545L450.338 324.242Z"/>
</mask>
<path d="M450.338 324.242C432.58 355.419 404.234 379.198 370.443 391.264C336.653 403.33 299.657 402.884 266.168 390.007L287.701 334.004C307.794 341.73 329.992 341.998 350.266 334.758C370.54 327.519 387.548 313.252 398.203 294.545L450.338 324.242Z" fill="#F4BE37" stroke="#F5F4F8" stroke-width="12" mask="url(#path-9-inside-7_101_30)"/>
<mask id="path-10-inside-8_101_30" fill="white">
<path d="M199.021 338.68C182.307 315.878 172.377 288.815 170.376 260.614C168.375 232.412 174.386 204.219 187.715 179.285C201.043 154.352 221.147 133.693 245.708 119.69C270.27 105.687 298.288 98.9108 326.534 100.142L323.921 160.085C306.973 159.346 290.162 163.412 275.425 171.814C260.688 180.216 248.626 192.611 240.629 207.571C232.632 222.531 229.025 239.447 230.226 256.368C231.426 273.289 237.384 289.527 247.413 303.208L199.021 338.68Z"/>
</mask>
<path d="M199.021 338.68C182.307 315.878 172.377 288.815 170.376 260.614C168.375 232.412 174.386 204.219 187.715 179.285C201.043 154.352 221.147 133.693 245.708 119.69C270.27 105.687 298.288 98.9108 326.534 100.142L323.921 160.085C306.973 159.346 290.162 163.412 275.425 171.814C260.688 180.216 248.626 192.611 240.629 207.571C232.632 222.531 229.025 239.447 230.226 256.368C231.426 273.289 237.384 289.527 247.413 303.208L199.021 338.68Z" fill="#DEE1E9" stroke="#F5F4F8" stroke-width="12" mask="url(#path-10-inside-8_101_30)"/>
</svg>
