<svg width="640" height="500" viewBox="0 0 640 500" fill="none" xmlns="http://www.w3.org/2000/svg">
<rect width="640" height="500" fill="white"/>
<rect width="640" height="500" fill="#F5F4F7"/>
<path d="M301.282 237.636C301.282 239.46 300.937 241.012 300.245 242.292C299.559 243.571 298.622 244.549 297.435 245.224C296.254 245.894 294.925 246.229 293.45 246.229C291.963 246.229 290.629 245.891 289.447 245.216C288.266 244.541 287.332 243.563 286.646 242.284C285.96 241.004 285.617 239.455 285.617 237.636C285.617 235.812 285.96 234.26 286.646 232.981C287.332 231.701 288.266 230.727 289.447 230.057C290.629 229.382 291.963 229.044 293.45 229.044C294.925 229.044 296.254 229.382 297.435 230.057C298.622 230.727 299.559 231.701 300.245 232.981C300.937 234.26 301.282 235.812 301.282 237.636ZM297.697 237.636C297.697 236.455 297.52 235.458 297.166 234.647C296.817 233.836 296.325 233.22 295.688 232.801C295.05 232.382 294.304 232.172 293.45 232.172C292.595 232.172 291.849 232.382 291.212 232.801C290.575 233.22 290.079 233.836 289.725 234.647C289.377 235.458 289.202 236.455 289.202 237.636C289.202 238.818 289.377 239.814 289.725 240.626C290.079 241.437 290.575 242.052 291.212 242.472C291.849 242.891 292.595 243.1 293.45 243.1C294.304 243.1 295.05 242.891 295.688 242.472C296.325 242.052 296.817 241.437 297.166 240.626C297.52 239.814 297.697 238.818 297.697 237.636ZM311.882 240.658V233.455H315.361V246H312.021V243.721H311.89C311.607 244.456 311.136 245.047 310.477 245.494C309.824 245.94 309.026 246.163 308.084 246.163C307.245 246.163 306.508 245.973 305.87 245.592C305.233 245.21 304.735 244.669 304.376 243.966C304.022 243.264 303.842 242.423 303.837 241.442V233.455H307.316V240.822C307.322 241.562 307.52 242.148 307.912 242.578C308.304 243.008 308.83 243.223 309.489 243.223C309.908 243.223 310.3 243.128 310.665 242.937C311.03 242.741 311.324 242.453 311.547 242.071C311.776 241.69 311.887 241.219 311.882 240.658ZM324.817 233.455V236.068H317.262V233.455H324.817ZM318.977 230.449H322.457V242.145C322.457 242.466 322.506 242.717 322.604 242.896C322.702 243.071 322.838 243.193 323.012 243.264C323.192 243.335 323.399 243.37 323.633 243.37C323.796 243.37 323.96 243.356 324.123 243.329C324.286 243.297 324.412 243.272 324.499 243.256L325.046 245.845C324.872 245.899 324.627 245.962 324.311 246.033C323.995 246.109 323.611 246.155 323.159 246.172C322.321 246.204 321.586 246.093 320.954 245.837C320.328 245.581 319.84 245.183 319.492 244.644C319.144 244.105 318.972 243.424 318.977 242.602V230.449ZM327.084 246V233.455H330.457V235.643H330.588C330.816 234.865 331.2 234.277 331.739 233.879C332.278 233.476 332.899 233.275 333.602 233.275C333.776 233.275 333.964 233.286 334.165 233.308C334.367 233.329 334.544 233.359 334.696 233.397V236.485C334.533 236.436 334.307 236.392 334.018 236.354C333.73 236.316 333.465 236.297 333.226 236.297C332.714 236.297 332.257 236.408 331.854 236.632C331.456 236.85 331.14 237.154 330.906 237.547C330.678 237.939 330.563 238.391 330.563 238.902V246H327.084ZM341.579 246.245C340.311 246.245 339.213 245.975 338.288 245.436C337.368 244.892 336.657 244.135 336.156 243.166C335.655 242.191 335.405 241.061 335.405 239.776C335.405 238.48 335.655 237.348 336.156 236.379C336.657 235.404 337.368 234.647 338.288 234.108C339.213 233.563 340.311 233.291 341.579 233.291C342.848 233.291 343.942 233.563 344.863 234.108C345.788 234.647 346.502 235.404 347.003 236.379C347.504 237.348 347.754 238.48 347.754 239.776C347.754 241.061 347.504 242.191 347.003 243.166C346.502 244.135 345.788 244.892 344.863 245.436C343.942 245.975 342.848 246.245 341.579 246.245ZM341.596 243.55C342.173 243.55 342.655 243.386 343.041 243.06C343.428 242.728 343.719 242.276 343.915 241.704C344.117 241.132 344.217 240.481 344.217 239.752C344.217 239.022 344.117 238.371 343.915 237.8C343.719 237.228 343.428 236.776 343.041 236.444C342.655 236.112 342.173 235.946 341.596 235.946C341.013 235.946 340.523 236.112 340.125 236.444C339.733 236.776 339.437 237.228 339.235 237.8C339.039 238.371 338.941 239.022 338.941 239.752C338.941 240.481 339.039 241.132 339.235 241.704C339.437 242.276 339.733 242.728 340.125 243.06C340.523 243.386 341.013 243.55 341.596 243.55ZM360.455 237.032L357.269 237.228C357.215 236.956 357.098 236.711 356.918 236.493C356.738 236.27 356.502 236.093 356.207 235.962C355.919 235.826 355.573 235.758 355.17 235.758C354.631 235.758 354.176 235.872 353.806 236.101C353.436 236.324 353.251 236.624 353.251 236.999C353.251 237.299 353.371 237.552 353.61 237.759C353.85 237.966 354.261 238.132 354.843 238.257L357.114 238.714C358.334 238.965 359.243 239.368 359.842 239.923C360.441 240.479 360.741 241.208 360.741 242.112C360.741 242.934 360.498 243.656 360.014 244.277C359.534 244.897 358.876 245.382 358.037 245.73C357.204 246.074 356.243 246.245 355.154 246.245C353.493 246.245 352.17 245.899 351.184 245.208C350.204 244.511 349.63 243.563 349.461 242.365L352.883 242.186C352.987 242.692 353.237 243.079 353.635 243.346C354.032 243.607 354.541 243.738 355.162 243.738C355.772 243.738 356.262 243.621 356.632 243.386C357.008 243.147 357.198 242.839 357.204 242.463C357.198 242.148 357.065 241.889 356.804 241.688C356.542 241.481 356.139 241.323 355.595 241.214L353.422 240.781C352.197 240.536 351.285 240.111 350.686 239.507C350.093 238.902 349.796 238.132 349.796 237.195C349.796 236.389 350.014 235.695 350.449 235.113C350.89 234.53 351.508 234.081 352.303 233.765C353.104 233.449 354.04 233.291 355.113 233.291C356.698 233.291 357.944 233.626 358.854 234.296C359.769 234.966 360.302 235.878 360.455 237.032ZM308.88 257.273V274H305.344V260.63H305.246L301.415 263.031V259.895L305.556 257.273H308.88ZM312.856 274V271.452L318.81 265.939C319.316 265.449 319.741 265.007 320.084 264.615C320.433 264.223 320.697 263.839 320.876 263.464C321.056 263.083 321.146 262.672 321.146 262.23C321.146 261.74 321.034 261.318 320.811 260.964C320.588 260.605 320.283 260.33 319.896 260.14C319.51 259.944 319.071 259.846 318.581 259.846C318.069 259.846 317.623 259.949 317.242 260.156C316.861 260.363 316.567 260.66 316.36 261.046C316.153 261.433 316.049 261.893 316.049 262.426H312.692C312.692 261.332 312.94 260.382 313.436 259.576C313.931 258.77 314.625 258.147 315.518 257.706C316.411 257.265 317.441 257.044 318.606 257.044C319.804 257.044 320.846 257.256 321.734 257.681C322.627 258.1 323.321 258.683 323.817 259.429C324.312 260.175 324.56 261.03 324.56 261.994C324.56 262.625 324.435 263.249 324.184 263.864C323.939 264.479 323.501 265.163 322.869 265.914C322.238 266.66 321.347 267.556 320.199 268.601L317.756 270.994V271.109H324.781V274H312.856ZM336.499 270.864V269.982C336.499 269.312 336.641 268.696 336.924 268.136C337.212 267.569 337.629 267.117 338.173 266.78C338.723 266.437 339.393 266.265 340.183 266.265C340.983 266.265 341.656 266.434 342.2 266.772C342.75 267.109 343.164 267.561 343.441 268.127C343.725 268.688 343.866 269.306 343.866 269.982V270.864C343.866 271.533 343.725 272.151 343.441 272.718C343.158 273.279 342.742 273.728 342.192 274.065C341.642 274.408 340.972 274.58 340.183 274.58C339.382 274.58 338.71 274.408 338.165 274.065C337.621 273.728 337.207 273.279 336.924 272.718C336.641 272.151 336.499 271.533 336.499 270.864ZM338.876 269.982V270.864C338.876 271.25 338.968 271.615 339.153 271.958C339.344 272.301 339.687 272.473 340.183 272.473C340.678 272.473 341.016 272.304 341.195 271.966C341.381 271.629 341.473 271.261 341.473 270.864V269.982C341.473 269.584 341.386 269.214 341.212 268.871C341.037 268.528 340.694 268.356 340.183 268.356C339.693 268.356 339.352 268.528 339.162 268.871C338.971 269.214 338.876 269.584 338.876 269.982ZM327.915 261.291V260.409C327.915 259.734 328.059 259.116 328.348 258.555C328.636 257.989 329.053 257.537 329.597 257.199C330.147 256.862 330.812 256.693 331.59 256.693C332.396 256.693 333.071 256.862 333.616 257.199C334.16 257.537 334.574 257.989 334.857 258.555C335.14 259.116 335.282 259.734 335.282 260.409V261.291C335.282 261.966 335.138 262.584 334.849 263.145C334.566 263.706 334.149 264.155 333.6 264.493C333.055 264.825 332.385 264.991 331.59 264.991C330.795 264.991 330.123 264.822 329.573 264.485C329.028 264.142 328.615 263.692 328.331 263.137C328.054 262.576 327.915 261.961 327.915 261.291ZM330.308 260.409V261.291C330.308 261.689 330.401 262.056 330.586 262.394C330.776 262.731 331.111 262.9 331.59 262.9C332.091 262.9 332.432 262.731 332.611 262.394C332.796 262.056 332.889 261.689 332.889 261.291V260.409C332.889 260.012 332.802 259.641 332.628 259.298C332.453 258.955 332.108 258.784 331.59 258.784C331.106 258.784 330.771 258.958 330.586 259.306C330.401 259.655 330.308 260.022 330.308 260.409ZM328.993 274L340.493 257.273H342.633L331.133 274H328.993Z" fill="black"/>
<g opacity="0.4">
<mask id="path-3-inside-1_101_37" fill="white">
<path d="M466.415 217.401C472.253 243.624 470.942 270.934 462.618 296.477C454.294 322.02 439.262 344.859 419.094 362.607C398.926 380.355 374.361 392.361 347.967 397.37C321.573 402.379 294.318 400.207 269.05 391.082L289.43 334.649C304.591 340.124 320.944 341.427 336.78 338.422C352.617 335.416 367.356 328.213 379.457 317.564C391.557 306.915 400.576 293.212 405.571 277.886C410.565 262.56 411.352 246.174 407.849 230.44L466.415 217.401Z"/>
</mask>
<path d="M466.415 217.401C472.253 243.624 470.942 270.934 462.618 296.477C454.294 322.02 439.262 344.859 419.094 362.607C398.926 380.355 374.361 392.361 347.967 397.37C321.573 402.379 294.318 400.207 269.05 391.082L289.43 334.649C304.591 340.124 320.944 341.427 336.78 338.422C352.617 335.416 367.356 328.213 379.457 317.564C391.557 306.915 400.576 293.212 405.571 277.886C410.565 262.56 411.352 246.174 407.849 230.44L466.415 217.401Z" fill="#A0ACC5" stroke="#F5F4F8" stroke-width="12" mask="url(#path-3-inside-1_101_37)"/>
</g>
<mask id="path-4-inside-2_101_37" fill="white">
<path d="M274.211 392.84C242.522 382.682 215.111 362.275 196.291 334.83L245.775 300.898C257.066 317.365 273.513 329.609 292.527 335.704L274.211 392.84Z"/>
</mask>
<path d="M274.211 392.84C242.522 382.682 215.111 362.275 196.291 334.83L245.775 300.898C257.066 317.365 273.513 329.609 292.527 335.704L274.211 392.84Z" fill="#91C108" stroke="#F5F4F8" stroke-width="12" mask="url(#path-4-inside-2_101_37)"/>
<g opacity="0.4">
<mask id="path-5-inside-3_101_37" fill="white">
<path d="M320 100C355.463 100 389.778 112.564 416.857 135.463C443.936 158.362 462.026 190.114 467.916 225.084L408.75 235.05C405.215 214.068 394.361 195.017 378.114 181.278C361.867 167.539 341.278 160 320 160L320 100Z"/>
</mask>
<path d="M320 100C355.463 100 389.778 112.564 416.857 135.463C443.936 158.362 462.026 190.114 467.916 225.084L408.75 235.05C405.215 214.068 394.361 195.017 378.114 181.278C361.867 167.539 341.278 160 320 160L320 100Z" fill="#A0ACC5" stroke="#F5F4F8" stroke-width="12" mask="url(#path-5-inside-3_101_37)"/>
</g>
<g opacity="0.4">
<mask id="path-6-inside-4_101_37" fill="white">
<path d="M199.021 338.68C182.307 315.878 172.377 288.815 170.376 260.614C168.375 232.412 174.386 204.219 187.715 179.285C201.043 154.352 221.147 133.693 245.708 119.69C270.27 105.687 298.288 98.9108 326.534 100.142L323.921 160.085C306.973 159.346 290.162 163.412 275.425 171.814C260.688 180.216 248.626 192.611 240.629 207.571C232.632 222.531 229.025 239.447 230.226 256.368C231.426 273.289 237.384 289.527 247.413 303.208L199.021 338.68Z"/>
</mask>
<path d="M199.021 338.68C182.307 315.878 172.377 288.815 170.376 260.614C168.375 232.412 174.386 204.219 187.715 179.285C201.043 154.352 221.147 133.693 245.708 119.69C270.27 105.687 298.288 98.9108 326.534 100.142L323.921 160.085C306.973 159.346 290.162 163.412 275.425 171.814C260.688 180.216 248.626 192.611 240.629 207.571C232.632 222.531 229.025 239.447 230.226 256.368C231.426 273.289 237.384 289.527 247.413 303.208L199.021 338.68Z" fill="#A0ACC5" stroke="#F5F4F8" stroke-width="12" mask="url(#path-6-inside-4_101_37)"/>
</g>
<mask id="path-7-inside-5_101_37" fill="white">
<path d="M320 100C346.865 100 373.238 107.215 396.361 120.892C419.485 134.568 438.511 154.204 451.452 177.747C464.392 201.29 470.772 227.877 469.925 254.729C469.078 281.581 461.035 307.713 446.637 330.394L395.982 298.236C404.621 284.628 409.447 268.949 409.955 252.837C410.463 236.726 406.635 220.774 398.871 206.648C391.107 192.522 379.691 180.741 365.817 172.535C351.943 164.329 336.119 160 320 160L320 100Z"/>
</mask>
<path d="M320 100C346.865 100 373.238 107.215 396.361 120.892C419.485 134.568 438.511 154.204 451.452 177.747C464.392 201.29 470.772 227.877 469.925 254.729C469.078 281.581 461.035 307.713 446.637 330.394L395.982 298.236C404.621 284.628 409.447 268.949 409.955 252.837C410.463 236.726 406.635 220.774 398.871 206.648C391.107 192.522 379.691 180.741 365.817 172.535C351.943 164.329 336.119 160 320 160L320 100Z" fill="#DEE1E9" stroke="#F5F4F8" stroke-width="12" mask="url(#path-7-inside-5_101_37)"/>
<mask id="path-8-inside-6_101_37" fill="white">
<path d="M274.211 392.84C242.522 382.682 215.111 362.275 196.291 334.83L245.775 300.898C257.066 317.365 273.513 329.609 292.527 335.704L274.211 392.84Z"/>
</mask>
<path d="M274.211 392.84C242.522 382.682 215.111 362.275 196.291 334.83L245.775 300.898C257.066 317.365 273.513 329.609 292.527 335.704L274.211 392.84Z" fill="#91C108" stroke="#F5F4F8" stroke-width="12" mask="url(#path-8-inside-6_101_37)"/>
<mask id="path-9-inside-7_101_37" fill="white">
<path d="M450.338 324.242C432.58 355.419 404.234 379.198 370.443 391.264C336.653 403.33 299.657 402.884 266.168 390.007L287.701 334.004C307.794 341.73 329.992 341.998 350.266 334.758C370.54 327.519 387.548 313.252 398.203 294.545L450.338 324.242Z"/>
</mask>
<path d="M450.338 324.242C432.58 355.419 404.234 379.198 370.443 391.264C336.653 403.33 299.657 402.884 266.168 390.007L287.701 334.004C307.794 341.73 329.992 341.998 350.266 334.758C370.54 327.519 387.548 313.252 398.203 294.545L450.338 324.242Z" fill="#DEE1E9" stroke="#F5F4F8" stroke-width="12" mask="url(#path-9-inside-7_101_37)"/>
<mask id="path-10-inside-8_101_37" fill="white">
<path d="M199.021 338.68C182.307 315.878 172.377 288.815 170.376 260.614C168.375 232.412 174.386 204.219 187.715 179.285C201.043 154.352 221.147 133.693 245.708 119.69C270.27 105.687 298.288 98.9108 326.534 100.142L323.921 160.085C306.973 159.346 290.162 163.412 275.425 171.814C260.688 180.216 248.626 192.611 240.629 207.571C232.632 222.531 229.025 239.447 230.226 256.368C231.426 273.289 237.384 289.527 247.413 303.208L199.021 338.68Z"/>
</mask>
<path d="M199.021 338.68C182.307 315.878 172.377 288.815 170.376 260.614C168.375 232.412 174.386 204.219 187.715 179.285C201.043 154.352 221.147 133.693 245.708 119.69C270.27 105.687 298.288 98.9108 326.534 100.142L323.921 160.085C306.973 159.346 290.162 163.412 275.425 171.814C260.688 180.216 248.626 192.611 240.629 207.571C232.632 222.531 229.025 239.447 230.226 256.368C231.426 273.289 237.384 289.527 247.413 303.208L199.021 338.68Z" fill="#DEE1E9" stroke="#F5F4F8" stroke-width="12" mask="url(#path-10-inside-8_101_37)"/>
</svg>
