<svg width="640" height="500" viewBox="0 0 640 500" fill="none" xmlns="http://www.w3.org/2000/svg">
<rect width="640" height="500" fill="white"/>
<rect width="640" height="500" fill="#F5F4F7"/>
<path d="M278.566 229.273H282.928L287.534 240.511H287.73L292.337 229.273H296.698V246H293.268V235.113H293.129L288.8 245.918H286.464L282.135 235.072H281.997V246H278.566V229.273ZM305.215 246.245C303.946 246.245 302.849 245.975 301.923 245.436C301.003 244.892 300.293 244.135 299.792 243.166C299.291 242.191 299.04 241.061 299.04 239.776C299.04 238.48 299.291 237.348 299.792 236.379C300.293 235.404 301.003 234.647 301.923 234.108C302.849 233.563 303.946 233.291 305.215 233.291C306.484 233.291 307.578 233.563 308.498 234.108C309.424 234.647 310.137 235.404 310.638 236.379C311.139 237.348 311.39 238.48 311.39 239.776C311.39 241.061 311.139 242.191 310.638 243.166C310.137 244.135 309.424 244.892 308.498 245.436C307.578 245.975 306.484 246.245 305.215 246.245ZM305.231 243.55C305.809 243.55 306.29 243.386 306.677 243.06C307.064 242.728 307.355 242.276 307.551 241.704C307.752 241.132 307.853 240.481 307.853 239.752C307.853 239.022 307.752 238.371 307.551 237.8C307.355 237.228 307.064 236.776 306.677 236.444C306.29 236.112 305.809 235.946 305.231 235.946C304.649 235.946 304.159 236.112 303.761 236.444C303.369 236.776 303.072 237.228 302.871 237.8C302.675 238.371 302.577 239.022 302.577 239.752C302.577 240.481 302.675 241.132 302.871 241.704C303.072 242.276 303.369 242.728 303.761 243.06C304.159 243.386 304.649 243.55 305.231 243.55ZM313.652 246V233.455H317.025V235.643H317.156C317.385 234.865 317.769 234.277 318.308 233.879C318.847 233.476 319.468 233.275 320.17 233.275C320.344 233.275 320.532 233.286 320.733 233.308C320.935 233.329 321.112 233.359 321.264 233.397V236.485C321.101 236.436 320.875 236.392 320.586 236.354C320.298 236.316 320.034 236.297 319.794 236.297C319.282 236.297 318.825 236.408 318.422 236.632C318.025 236.85 317.709 237.154 317.475 237.547C317.246 237.939 317.132 238.391 317.132 238.902V246H313.652ZM326.281 246.237C325.481 246.237 324.768 246.098 324.141 245.82C323.515 245.537 323.02 245.121 322.655 244.571C322.296 244.015 322.116 243.324 322.116 242.496C322.116 241.799 322.244 241.214 322.5 240.74C322.756 240.266 323.104 239.885 323.545 239.597C323.986 239.308 324.487 239.09 325.048 238.943C325.614 238.796 326.208 238.693 326.829 238.633C327.558 238.557 328.146 238.486 328.593 238.42C329.039 238.35 329.363 238.246 329.565 238.11C329.766 237.974 329.867 237.772 329.867 237.506V237.457C329.867 236.939 329.704 236.539 329.377 236.256C329.056 235.973 328.598 235.831 328.005 235.831C327.379 235.831 326.88 235.97 326.51 236.248C326.14 236.52 325.895 236.863 325.775 237.277L322.557 237.016C322.72 236.253 323.042 235.594 323.521 235.039C324 234.478 324.618 234.048 325.375 233.749C326.137 233.444 327.019 233.291 328.021 233.291C328.718 233.291 329.385 233.373 330.022 233.536C330.665 233.7 331.234 233.953 331.729 234.296C332.23 234.639 332.625 235.08 332.913 235.619C333.202 236.153 333.346 236.792 333.346 237.538V246H330.047V244.26H329.949C329.747 244.652 329.478 244.998 329.14 245.298C328.802 245.592 328.397 245.823 327.923 245.992C327.449 246.155 326.902 246.237 326.281 246.237ZM327.278 243.836C327.79 243.836 328.242 243.735 328.634 243.533C329.026 243.326 329.333 243.049 329.557 242.7C329.78 242.352 329.891 241.957 329.891 241.516V240.185C329.783 240.255 329.633 240.321 329.442 240.381C329.257 240.435 329.047 240.487 328.813 240.536C328.579 240.579 328.345 240.62 328.111 240.658C327.877 240.691 327.664 240.721 327.474 240.748C327.065 240.808 326.709 240.903 326.404 241.034C326.099 241.165 325.862 241.342 325.693 241.565C325.524 241.783 325.44 242.055 325.44 242.382C325.44 242.855 325.612 243.218 325.955 243.468C326.303 243.713 326.744 243.836 327.278 243.836ZM340.669 246.204C339.716 246.204 338.853 245.959 338.079 245.469C337.312 244.974 336.702 244.247 336.25 243.288C335.803 242.325 335.58 241.143 335.58 239.744C335.58 238.306 335.812 237.111 336.274 236.158C336.737 235.2 337.353 234.484 338.12 234.01C338.893 233.531 339.74 233.291 340.66 233.291C341.363 233.291 341.948 233.411 342.416 233.651C342.89 233.885 343.271 234.179 343.56 234.533C343.854 234.881 344.077 235.224 344.23 235.562H344.336V229.273H347.807V246H344.377V243.991H344.23C344.066 244.339 343.835 244.685 343.535 245.028C343.241 245.366 342.858 245.646 342.384 245.869C341.916 246.093 341.344 246.204 340.669 246.204ZM341.771 243.435C342.332 243.435 342.806 243.283 343.192 242.978C343.584 242.668 343.884 242.235 344.091 241.679C344.303 241.124 344.409 240.473 344.409 239.727C344.409 238.981 344.306 238.333 344.099 237.783C343.892 237.233 343.593 236.809 343.201 236.509C342.809 236.21 342.332 236.06 341.771 236.06C341.199 236.06 340.718 236.215 340.326 236.526C339.934 236.836 339.637 237.266 339.435 237.816C339.234 238.366 339.133 239.003 339.133 239.727C339.133 240.457 339.234 241.102 339.435 241.663C339.642 242.218 339.939 242.654 340.326 242.97C340.718 243.28 341.199 243.435 341.771 243.435ZM350.668 246V233.455H354.147V246H350.668ZM352.416 231.837C351.898 231.837 351.455 231.666 351.084 231.323C350.72 230.974 350.537 230.558 350.537 230.073C350.537 229.594 350.72 229.183 351.084 228.84C351.455 228.491 351.898 228.317 352.416 228.317C352.933 228.317 353.374 228.491 353.739 228.84C354.109 229.183 354.294 229.594 354.294 230.073C354.294 230.558 354.109 230.974 353.739 231.323C353.374 231.666 352.933 231.837 352.416 231.837ZM360.512 246.237C359.711 246.237 358.998 246.098 358.372 245.82C357.746 245.537 357.25 245.121 356.885 244.571C356.526 244.015 356.346 243.324 356.346 242.496C356.346 241.799 356.474 241.214 356.73 240.74C356.986 240.266 357.335 239.885 357.776 239.597C358.217 239.308 358.718 239.09 359.278 238.943C359.845 238.796 360.438 238.693 361.059 238.633C361.789 238.557 362.377 238.486 362.823 238.42C363.27 238.35 363.594 238.246 363.795 238.11C363.997 237.974 364.097 237.772 364.097 237.506V237.457C364.097 236.939 363.934 236.539 363.607 236.256C363.286 235.973 362.829 235.831 362.235 235.831C361.609 235.831 361.111 235.97 360.741 236.248C360.37 236.52 360.125 236.863 360.005 237.277L356.787 237.016C356.951 236.253 357.272 235.594 357.751 235.039C358.23 234.478 358.848 234.048 359.605 233.749C360.368 233.444 361.25 233.291 362.252 233.291C362.948 233.291 363.616 233.373 364.253 233.536C364.895 233.7 365.464 233.953 365.96 234.296C366.461 234.639 366.855 235.08 367.144 235.619C367.432 236.153 367.577 236.792 367.577 237.538V246H364.277V244.26H364.179C363.978 244.652 363.708 244.998 363.37 245.298C363.033 245.592 362.627 245.823 362.153 245.992C361.68 246.155 361.133 246.237 360.512 246.237ZM361.508 243.836C362.02 243.836 362.472 243.735 362.864 243.533C363.256 243.326 363.564 243.049 363.787 242.7C364.01 242.352 364.122 241.957 364.122 241.516V240.185C364.013 240.255 363.863 240.321 363.673 240.381C363.488 240.435 363.278 240.487 363.044 240.536C362.81 240.579 362.575 240.62 362.341 240.658C362.107 240.691 361.895 240.721 361.704 240.748C361.296 240.808 360.939 240.903 360.634 241.034C360.329 241.165 360.093 241.342 359.924 241.565C359.755 241.783 359.671 242.055 359.671 242.382C359.671 242.855 359.842 243.218 360.185 243.468C360.534 243.713 360.975 243.836 361.508 243.836ZM305.832 274.229C304.612 274.229 303.526 274.019 302.573 273.6C301.625 273.175 300.877 272.592 300.327 271.852C299.782 271.106 299.502 270.246 299.485 269.271H303.047C303.068 269.679 303.202 270.039 303.447 270.349C303.697 270.654 304.029 270.891 304.443 271.06C304.857 271.228 305.323 271.313 305.84 271.313C306.379 271.313 306.855 271.218 307.269 271.027C307.683 270.836 308.007 270.572 308.241 270.235C308.475 269.897 308.592 269.508 308.592 269.067C308.592 268.62 308.467 268.225 308.217 267.882C307.972 267.534 307.618 267.262 307.155 267.066C306.697 266.87 306.153 266.772 305.521 266.772H303.961V264.174H305.521C306.055 264.174 306.526 264.082 306.934 263.897C307.348 263.712 307.669 263.456 307.898 263.129C308.127 262.797 308.241 262.41 308.241 261.969C308.241 261.55 308.14 261.182 307.939 260.866C307.743 260.545 307.465 260.295 307.106 260.115C306.752 259.935 306.338 259.846 305.864 259.846C305.385 259.846 304.947 259.933 304.549 260.107C304.152 260.276 303.833 260.518 303.594 260.834C303.354 261.15 303.226 261.52 303.21 261.945H299.82C299.837 260.981 300.112 260.131 300.645 259.396C301.179 258.661 301.898 258.087 302.801 257.673C303.711 257.254 304.737 257.044 305.881 257.044C307.035 257.044 308.045 257.254 308.911 257.673C309.777 258.092 310.449 258.658 310.928 259.372C311.413 260.08 311.652 260.875 311.647 261.757C311.652 262.693 311.361 263.475 310.773 264.101C310.19 264.727 309.431 265.125 308.494 265.293V265.424C309.725 265.582 310.661 266.009 311.304 266.706C311.952 267.398 312.273 268.264 312.268 269.304C312.273 270.257 311.998 271.103 311.443 271.844C310.893 272.584 310.133 273.167 309.164 273.592C308.195 274.016 307.084 274.229 305.832 274.229ZM314.81 274V271.452L320.764 265.939C321.271 265.449 321.695 265.007 322.038 264.615C322.387 264.223 322.651 263.839 322.831 263.464C323.01 263.083 323.1 262.672 323.1 262.23C323.1 261.74 322.988 261.318 322.765 260.964C322.542 260.605 322.237 260.33 321.85 260.14C321.464 259.944 321.025 259.846 320.535 259.846C320.024 259.846 319.577 259.949 319.196 260.156C318.815 260.363 318.521 260.66 318.314 261.046C318.107 261.433 318.003 261.893 318.003 262.426H314.647C314.647 261.332 314.894 260.382 315.39 259.576C315.885 258.77 316.58 258.147 317.473 257.706C318.366 257.265 319.395 257.044 320.56 257.044C321.758 257.044 322.801 257.256 323.688 257.681C324.581 258.1 325.275 258.683 325.771 259.429C326.266 260.175 326.514 261.03 326.514 261.994C326.514 262.625 326.389 263.249 326.138 263.864C325.893 264.479 325.455 265.163 324.823 265.914C324.192 266.66 323.302 267.556 322.153 268.601L319.71 270.994V271.109H326.735V274H314.81ZM338.453 270.864V269.982C338.453 269.312 338.595 268.696 338.878 268.136C339.166 267.569 339.583 267.117 340.127 266.78C340.677 266.437 341.347 266.265 342.137 266.265C342.937 266.265 343.61 266.434 344.154 266.772C344.704 267.109 345.118 267.561 345.396 268.127C345.679 268.688 345.82 269.306 345.82 269.982V270.864C345.82 271.533 345.679 272.151 345.396 272.718C345.112 273.279 344.696 273.728 344.146 274.065C343.596 274.408 342.926 274.58 342.137 274.58C341.336 274.58 340.664 274.408 340.119 274.065C339.575 273.728 339.161 273.279 338.878 272.718C338.595 272.151 338.453 271.533 338.453 270.864ZM340.83 269.982V270.864C340.83 271.25 340.922 271.615 341.108 271.958C341.298 272.301 341.641 272.473 342.137 272.473C342.632 272.473 342.97 272.304 343.15 271.966C343.335 271.629 343.427 271.261 343.427 270.864V269.982C343.427 269.584 343.34 269.214 343.166 268.871C342.992 268.528 342.649 268.356 342.137 268.356C341.647 268.356 341.306 268.528 341.116 268.871C340.925 269.214 340.83 269.584 340.83 269.982ZM329.869 261.291V260.409C329.869 259.734 330.013 259.116 330.302 258.555C330.59 257.989 331.007 257.537 331.551 257.199C332.101 256.862 332.766 256.693 333.544 256.693C334.35 256.693 335.025 256.862 335.57 257.199C336.114 257.537 336.528 257.989 336.811 258.555C337.095 259.116 337.236 259.734 337.236 260.409V261.291C337.236 261.966 337.092 262.584 336.803 263.145C336.52 263.706 336.104 264.155 335.554 264.493C335.009 264.825 334.339 264.991 333.544 264.991C332.749 264.991 332.077 264.822 331.527 264.485C330.982 264.142 330.569 263.692 330.286 263.137C330.008 262.576 329.869 261.961 329.869 261.291ZM332.262 260.409V261.291C332.262 261.689 332.355 262.056 332.54 262.394C332.73 262.731 333.065 262.9 333.544 262.9C334.045 262.9 334.386 262.731 334.565 262.394C334.75 262.056 334.843 261.689 334.843 261.291V260.409C334.843 260.012 334.756 259.641 334.582 259.298C334.407 258.955 334.062 258.784 333.544 258.784C333.06 258.784 332.725 258.958 332.54 259.306C332.355 259.655 332.262 260.022 332.262 260.409ZM330.947 274L342.447 257.273H344.587L333.087 274H330.947Z" fill="black"/>
<mask id="path-3-inside-1_2_3" fill="white">
<path d="M320 100C346.865 100 373.238 107.215 396.361 120.892C419.485 134.568 438.511 154.204 451.452 177.747C464.392 201.29 470.772 227.877 469.925 254.729C469.078 281.581 461.035 307.713 446.637 330.394L395.982 298.236C404.621 284.628 409.447 268.949 409.955 252.837C410.463 236.726 406.635 220.774 398.871 206.648C391.107 192.522 379.691 180.741 365.817 172.535C351.943 164.329 336.119 160 320 160L320 100Z"/>
</mask>
<path d="M320 100C346.865 100 373.238 107.215 396.361 120.892C419.485 134.568 438.511 154.204 451.452 177.747C464.392 201.29 470.772 227.877 469.925 254.729C469.078 281.581 461.035 307.713 446.637 330.394L395.982 298.236C404.621 284.628 409.447 268.949 409.955 252.837C410.463 236.726 406.635 220.774 398.871 206.648C391.107 192.522 379.691 180.741 365.817 172.535C351.943 164.329 336.119 160 320 160L320 100Z" fill="#DEE1E9" stroke="#F5F4F8" stroke-width="12" mask="url(#path-3-inside-1_2_3)"/>
<mask id="path-4-inside-2_2_3" fill="white">
<path d="M274.211 392.84C242.522 382.682 215.111 362.275 196.291 334.83L245.775 300.898C257.066 317.365 273.513 329.609 292.527 335.704L274.211 392.84Z"/>
</mask>
<path d="M274.211 392.84C242.522 382.682 215.111 362.275 196.291 334.83L245.775 300.898C257.066 317.365 273.513 329.609 292.527 335.704L274.211 392.84Z" fill="#DEE1E9" stroke="#F5F4F8" stroke-width="12" mask="url(#path-4-inside-2_2_3)"/>
<mask id="path-5-inside-3_2_3" fill="white">
<path d="M450.338 324.242C432.58 355.419 404.234 379.198 370.443 391.264C336.653 403.33 299.657 402.884 266.168 390.007L287.701 334.004C307.794 341.73 329.992 341.998 350.266 334.758C370.54 327.519 387.548 313.252 398.203 294.545L450.338 324.242Z"/>
</mask>
<path d="M450.338 324.242C432.58 355.419 404.234 379.198 370.443 391.264C336.653 403.33 299.657 402.884 266.168 390.007L287.701 334.004C307.794 341.73 329.992 341.998 350.266 334.758C370.54 327.519 387.548 313.252 398.203 294.545L450.338 324.242Z" fill="#DEE1E9" stroke="#F5F4F8" stroke-width="12" mask="url(#path-5-inside-3_2_3)"/>
<mask id="path-6-inside-4_2_3" fill="white">
<path d="M199.021 338.68C182.307 315.878 172.377 288.815 170.376 260.614C168.375 232.412 174.386 204.219 187.715 179.285C201.043 154.352 221.147 133.693 245.708 119.69C270.27 105.687 298.288 98.9108 326.534 100.142L323.921 160.085C306.973 159.346 290.162 163.412 275.425 171.814C260.688 180.216 248.626 192.611 240.629 207.571C232.632 222.531 229.025 239.447 230.226 256.368C231.426 273.289 237.384 289.527 247.413 303.208L199.021 338.68Z"/>
</mask>
<path d="M199.021 338.68C182.307 315.878 172.377 288.815 170.376 260.614C168.375 232.412 174.386 204.219 187.715 179.285C201.043 154.352 221.147 133.693 245.708 119.69C270.27 105.687 298.288 98.9108 326.534 100.142L323.921 160.085C306.973 159.346 290.162 163.412 275.425 171.814C260.688 180.216 248.626 192.611 240.629 207.571C232.632 222.531 229.025 239.447 230.226 256.368C231.426 273.289 237.384 289.527 247.413 303.208L199.021 338.68Z" fill="#8626E5" stroke="#F5F4F8" stroke-width="12" mask="url(#path-6-inside-4_2_3)"/>
</svg>
