<svg width="640" height="500" viewBox="0 0 640 500" fill="none" xmlns="http://www.w3.org/2000/svg">
<rect width="640" height="500" fill="white"/>
<rect x="47" y="45" width="545" height="410" rx="20" fill="#F5F4F8"/>
<path d="M265.907 227.636H271.216L276.824 241.318H277.063L282.671 227.636H287.98V248H283.804V234.746H283.635L278.365 247.901H275.522L270.252 234.696H270.083V248H265.907V227.636ZM298.349 248.298C296.804 248.298 295.469 247.97 294.342 247.314C293.221 246.651 292.356 245.73 291.746 244.55C291.137 243.363 290.832 241.988 290.832 240.423C290.832 238.846 291.137 237.467 291.746 236.287C292.356 235.1 293.221 234.179 294.342 233.523C295.469 232.86 296.804 232.528 298.349 232.528C299.893 232.528 301.226 232.86 302.346 233.523C303.473 234.179 304.341 235.1 304.951 236.287C305.561 237.467 305.866 238.846 305.866 240.423C305.866 241.988 305.561 243.363 304.951 244.55C304.341 245.73 303.473 246.651 302.346 247.314C301.226 247.97 299.893 248.298 298.349 248.298ZM298.369 245.017C299.071 245.017 299.658 244.818 300.129 244.42C300.599 244.016 300.954 243.466 301.192 242.77C301.438 242.074 301.56 241.282 301.56 240.393C301.56 239.505 301.438 238.713 301.192 238.017C300.954 237.321 300.599 236.771 300.129 236.366C299.658 235.962 299.071 235.76 298.369 235.76C297.659 235.76 297.063 235.962 296.579 236.366C296.102 236.771 295.74 237.321 295.495 238.017C295.256 238.713 295.137 239.505 295.137 240.393C295.137 241.282 295.256 242.074 295.495 242.77C295.74 243.466 296.102 244.016 296.579 244.42C297.063 244.818 297.659 245.017 298.369 245.017ZM308.62 248V232.727H312.727V235.392H312.886C313.164 234.444 313.631 233.728 314.288 233.244C314.944 232.754 315.7 232.509 316.555 232.509C316.767 232.509 316.996 232.522 317.241 232.548C317.486 232.575 317.701 232.611 317.887 232.658V236.416C317.688 236.357 317.413 236.304 317.062 236.257C316.71 236.211 316.389 236.188 316.097 236.188C315.474 236.188 314.917 236.323 314.427 236.595C313.943 236.86 313.558 237.232 313.273 237.709C312.995 238.186 312.856 238.736 312.856 239.359V248H308.62ZM323.995 248.288C323.02 248.288 322.152 248.119 321.39 247.781C320.627 247.437 320.024 246.929 319.58 246.26C319.142 245.584 318.924 244.742 318.924 243.734C318.924 242.886 319.079 242.173 319.391 241.597C319.703 241.02 320.127 240.556 320.664 240.205C321.201 239.853 321.81 239.588 322.493 239.409C323.183 239.23 323.905 239.104 324.661 239.031C325.549 238.938 326.265 238.852 326.809 238.773C327.352 238.687 327.747 238.561 327.992 238.395C328.237 238.229 328.36 237.984 328.36 237.659V237.599C328.36 236.97 328.161 236.482 327.763 236.138C327.372 235.793 326.815 235.621 326.093 235.621C325.33 235.621 324.724 235.79 324.273 236.128C323.822 236.459 323.524 236.877 323.378 237.381L319.461 237.062C319.659 236.134 320.051 235.332 320.634 234.656C321.217 233.973 321.97 233.45 322.891 233.085C323.819 232.714 324.893 232.528 326.113 232.528C326.961 232.528 327.773 232.628 328.549 232.827C329.331 233.026 330.024 233.334 330.627 233.751C331.237 234.169 331.717 234.706 332.069 235.362C332.42 236.012 332.596 236.791 332.596 237.699V248H328.578V245.882H328.459C328.214 246.359 327.886 246.78 327.475 247.145C327.064 247.503 326.57 247.785 325.993 247.99C325.417 248.189 324.75 248.288 323.995 248.288ZM325.208 245.365C325.831 245.365 326.381 245.242 326.858 244.997C327.336 244.745 327.71 244.407 327.982 243.983C328.254 243.559 328.39 243.078 328.39 242.541V240.92C328.257 241.007 328.075 241.086 327.843 241.159C327.617 241.225 327.362 241.288 327.077 241.348C326.792 241.401 326.507 241.451 326.222 241.497C325.937 241.537 325.678 241.573 325.446 241.607C324.949 241.679 324.515 241.795 324.144 241.955C323.773 242.114 323.484 242.329 323.279 242.601C323.073 242.866 322.971 243.197 322.971 243.595C322.971 244.172 323.179 244.613 323.597 244.918C324.021 245.216 324.558 245.365 325.208 245.365ZM341.51 248.249C340.35 248.249 339.299 247.95 338.358 247.354C337.423 246.75 336.681 245.866 336.13 244.699C335.587 243.526 335.315 242.087 335.315 240.384C335.315 238.634 335.597 237.179 336.16 236.018C336.724 234.852 337.473 233.98 338.407 233.403C339.349 232.82 340.379 232.528 341.5 232.528C342.355 232.528 343.067 232.674 343.637 232.966C344.214 233.251 344.678 233.609 345.029 234.04C345.387 234.464 345.659 234.882 345.845 235.293H345.974V227.636H350.2V248H346.024V245.554H345.845C345.646 245.978 345.364 246.399 345 246.817C344.642 247.228 344.174 247.569 343.598 247.841C343.028 248.113 342.332 248.249 341.51 248.249ZM342.852 244.878C343.535 244.878 344.111 244.692 344.582 244.321C345.059 243.943 345.424 243.416 345.676 242.74C345.934 242.064 346.064 241.272 346.064 240.364C346.064 239.455 345.938 238.667 345.686 237.997C345.434 237.328 345.069 236.811 344.592 236.446C344.115 236.081 343.535 235.899 342.852 235.899C342.156 235.899 341.569 236.088 341.092 236.466C340.615 236.844 340.253 237.367 340.008 238.037C339.763 238.706 339.64 239.482 339.64 240.364C339.64 241.252 339.763 242.037 340.008 242.72C340.26 243.396 340.621 243.927 341.092 244.311C341.569 244.689 342.156 244.878 342.852 244.878ZM353.683 248V232.727H357.918V248H353.683ZM355.81 230.759C355.181 230.759 354.64 230.55 354.19 230.132C353.746 229.708 353.523 229.201 353.523 228.611C353.523 228.027 353.746 227.527 354.19 227.109C354.64 226.685 355.181 226.473 355.81 226.473C356.44 226.473 356.977 226.685 357.421 227.109C357.872 227.527 358.097 228.027 358.097 228.611C358.097 229.201 357.872 229.708 357.421 230.132C356.977 230.55 356.44 230.759 355.81 230.759ZM365.667 248.288C364.692 248.288 363.824 248.119 363.061 247.781C362.299 247.437 361.696 246.929 361.252 246.26C360.814 245.584 360.596 244.742 360.596 243.734C360.596 242.886 360.751 242.173 361.063 241.597C361.374 241.02 361.799 240.556 362.336 240.205C362.873 239.853 363.482 239.588 364.165 239.409C364.855 239.23 365.577 239.104 366.333 239.031C367.221 238.938 367.937 238.852 368.48 238.773C369.024 238.687 369.418 238.561 369.664 238.395C369.909 238.229 370.032 237.984 370.032 237.659V237.599C370.032 236.97 369.833 236.482 369.435 236.138C369.044 235.793 368.487 235.621 367.765 235.621C367.002 235.621 366.396 235.79 365.945 236.128C365.494 236.459 365.196 236.877 365.05 237.381L361.132 237.062C361.331 236.134 361.722 235.332 362.306 234.656C362.889 233.973 363.641 233.45 364.563 233.085C365.491 232.714 366.565 232.528 367.784 232.528C368.633 232.528 369.445 232.628 370.221 232.827C371.003 233.026 371.695 233.334 372.299 233.751C372.908 234.169 373.389 234.706 373.74 235.362C374.092 236.012 374.267 236.791 374.267 237.699V248H370.25V245.882H370.131C369.886 246.359 369.558 246.78 369.147 247.145C368.736 247.503 368.242 247.785 367.665 247.99C367.088 248.189 366.422 248.288 365.667 248.288ZM366.88 245.365C367.503 245.365 368.053 245.242 368.53 244.997C369.007 244.745 369.382 244.407 369.654 243.983C369.926 243.559 370.061 243.078 370.061 242.541V240.92C369.929 241.007 369.747 241.086 369.515 241.159C369.289 241.225 369.034 241.288 368.749 241.348C368.464 241.401 368.179 241.451 367.894 241.497C367.609 241.537 367.35 241.573 367.118 241.607C366.621 241.679 366.187 241.795 365.816 241.955C365.444 242.114 365.156 242.329 364.951 242.601C364.745 242.866 364.642 243.197 364.642 243.595C364.642 244.172 364.851 244.613 365.269 244.918C365.693 245.216 366.23 245.365 366.88 245.365ZM299.099 282.278C297.615 282.278 296.292 282.023 295.132 281.513C293.979 280.996 293.067 280.286 292.398 279.385C291.735 278.477 291.393 277.429 291.374 276.243H295.709C295.735 276.74 295.898 277.178 296.196 277.555C296.501 277.927 296.905 278.215 297.409 278.42C297.913 278.626 298.48 278.729 299.109 278.729C299.766 278.729 300.346 278.613 300.849 278.381C301.353 278.149 301.748 277.827 302.033 277.416C302.318 277.005 302.46 276.531 302.46 275.994C302.46 275.451 302.308 274.97 302.003 274.553C301.705 274.128 301.274 273.797 300.71 273.558C300.153 273.32 299.491 273.2 298.722 273.2H296.822V270.038H298.722C299.371 270.038 299.945 269.926 300.442 269.7C300.946 269.475 301.337 269.163 301.615 268.766C301.893 268.361 302.033 267.891 302.033 267.354C302.033 266.843 301.91 266.396 301.665 266.011C301.426 265.62 301.088 265.315 300.651 265.097C300.22 264.878 299.716 264.768 299.139 264.768C298.556 264.768 298.022 264.875 297.538 265.087C297.054 265.292 296.667 265.587 296.375 265.972C296.083 266.356 295.928 266.807 295.908 267.324H291.781C291.801 266.151 292.136 265.116 292.786 264.222C293.435 263.327 294.31 262.627 295.411 262.124C296.518 261.613 297.767 261.358 299.159 261.358C300.564 261.358 301.794 261.613 302.848 262.124C303.902 262.634 304.721 263.323 305.304 264.192C305.894 265.054 306.186 266.021 306.179 267.095C306.186 268.235 305.831 269.187 305.115 269.949C304.406 270.711 303.481 271.195 302.341 271.401V271.56C303.839 271.752 304.979 272.272 305.761 273.121C306.55 273.963 306.941 275.017 306.935 276.283C306.941 277.443 306.607 278.473 305.93 279.375C305.261 280.277 304.336 280.986 303.156 281.503C301.976 282.02 300.624 282.278 299.099 282.278ZM310.029 282V278.898L317.278 272.186C317.895 271.589 318.412 271.053 318.829 270.575C319.253 270.098 319.575 269.631 319.794 269.173C320.012 268.709 320.122 268.209 320.122 267.672C320.122 267.075 319.986 266.562 319.714 266.131C319.442 265.693 319.071 265.358 318.6 265.126C318.13 264.888 317.596 264.768 317 264.768C316.377 264.768 315.833 264.894 315.369 265.146C314.905 265.398 314.547 265.759 314.295 266.23C314.043 266.701 313.917 267.261 313.917 267.911H309.831C309.831 266.578 310.132 265.421 310.735 264.44C311.339 263.459 312.184 262.7 313.271 262.163C314.358 261.626 315.611 261.358 317.029 261.358C318.488 261.358 319.757 261.616 320.838 262.134C321.925 262.644 322.77 263.353 323.373 264.261C323.976 265.17 324.278 266.21 324.278 267.384C324.278 268.152 324.126 268.911 323.821 269.661C323.522 270.41 322.989 271.241 322.22 272.156C321.451 273.064 320.367 274.155 318.968 275.428L315.995 278.341V278.48H324.547V282H310.029ZM338.812 278.182V277.108C338.812 276.293 338.985 275.544 339.33 274.861C339.681 274.171 340.188 273.621 340.851 273.21C341.52 272.793 342.336 272.584 343.297 272.584C344.271 272.584 345.09 272.789 345.753 273.2C346.422 273.611 346.926 274.161 347.264 274.851C347.609 275.534 347.781 276.286 347.781 277.108V278.182C347.781 278.997 347.609 279.75 347.264 280.439C346.92 281.122 346.412 281.669 345.743 282.08C345.073 282.497 344.258 282.706 343.297 282.706C342.322 282.706 341.504 282.497 340.841 282.08C340.178 281.669 339.674 281.122 339.33 280.439C338.985 279.75 338.812 278.997 338.812 278.182ZM341.706 277.108V278.182C341.706 278.652 341.819 279.097 342.044 279.514C342.276 279.932 342.694 280.141 343.297 280.141C343.9 280.141 344.311 279.935 344.53 279.524C344.755 279.113 344.868 278.666 344.868 278.182V277.108C344.868 276.624 344.762 276.173 344.55 275.756C344.338 275.338 343.92 275.129 343.297 275.129C342.7 275.129 342.286 275.338 342.054 275.756C341.822 276.173 341.706 276.624 341.706 277.108ZM328.362 266.528V265.455C328.362 264.633 328.538 263.88 328.889 263.197C329.241 262.508 329.748 261.958 330.411 261.547C331.08 261.136 331.889 260.93 332.837 260.93C333.818 260.93 334.64 261.136 335.303 261.547C335.965 261.958 336.469 262.508 336.814 263.197C337.159 263.88 337.331 264.633 337.331 265.455V266.528C337.331 267.35 337.155 268.103 336.804 268.786C336.459 269.468 335.952 270.015 335.283 270.426C334.62 270.83 333.804 271.033 332.837 271.033C331.869 271.033 331.05 270.827 330.381 270.416C329.718 269.999 329.214 269.452 328.869 268.776C328.531 268.093 328.362 267.344 328.362 266.528ZM331.276 265.455V266.528C331.276 267.012 331.388 267.46 331.614 267.871C331.846 268.282 332.253 268.487 332.837 268.487C333.446 268.487 333.861 268.282 334.08 267.871C334.305 267.46 334.418 267.012 334.418 266.528V265.455C334.418 264.971 334.312 264.52 334.099 264.102C333.887 263.685 333.466 263.476 332.837 263.476C332.247 263.476 331.839 263.688 331.614 264.112C331.388 264.536 331.276 264.984 331.276 265.455ZM329.675 282L343.675 261.636H346.28L332.28 282H329.675Z" fill="black"/>
<g opacity="0.4">
<mask id="path-3-inside-1_2_3" fill="white">
<path d="M490.817 211.967C497.629 242.561 496.099 274.423 486.388 304.223C476.676 334.024 459.139 360.669 435.61 381.375C412.08 402.081 383.422 416.088 352.628 421.931C321.835 427.775 290.037 425.242 260.558 414.595L284.335 348.757C302.022 355.145 321.101 356.665 339.577 353.159C358.053 349.653 375.248 341.249 389.366 328.825C403.484 316.401 414.006 300.414 419.833 282.534C425.659 264.654 426.577 245.537 422.49 227.18L490.817 211.967Z"/>
</mask>
<path d="M490.817 211.967C497.629 242.561 496.099 274.423 486.388 304.223C476.676 334.024 459.139 360.669 435.61 381.375C412.08 402.081 383.422 416.088 352.628 421.931C321.835 427.775 290.037 425.242 260.558 414.595L284.335 348.757C302.022 355.145 321.101 356.665 339.577 353.159C358.053 349.653 375.248 341.249 389.366 328.825C403.484 316.401 414.006 300.414 419.833 282.534C425.659 264.654 426.577 245.537 422.49 227.18L490.817 211.967Z" fill="#A0ACC5" stroke="#F5F4F8" stroke-width="12" mask="url(#path-3-inside-1_2_3)"/>
</g>
<g opacity="0.4">
<mask id="path-4-inside-2_2_3" fill="white">
<path d="M266.58 416.647C229.609 404.796 197.629 380.987 175.673 348.969L233.404 309.381C246.578 328.592 265.766 342.878 287.948 349.988L266.58 416.647Z"/>
</mask>
<path d="M266.58 416.647C229.609 404.796 197.629 380.987 175.673 348.969L233.404 309.381C246.578 328.592 265.766 342.878 287.948 349.988L266.58 416.647Z" fill="#A0ACC5" stroke="#F5F4F8" stroke-width="12" mask="url(#path-4-inside-2_2_3)"/>
</g>
<g opacity="0.4">
<mask id="path-5-inside-3_2_3" fill="white">
<path d="M320 75C361.373 75 401.408 89.6584 433 116.374C464.592 143.089 485.696 180.133 492.569 220.931L423.541 232.559C419.418 208.08 406.755 185.853 387.8 169.824C368.845 153.795 344.824 145 320 145V75Z"/>
</mask>
<path d="M320 75C361.373 75 401.408 89.6584 433 116.374C464.592 143.089 485.696 180.133 492.569 220.931L423.541 232.559C419.418 208.08 406.755 185.853 387.8 169.824C368.845 153.795 344.824 145 320 145V75Z" fill="#A0ACC5" stroke="#F5F4F8" stroke-width="12" mask="url(#path-5-inside-3_2_3)"/>
</g>
<mask id="path-6-inside-4_2_3" fill="white">
<path d="M178.858 353.46C159.358 326.857 147.773 295.285 145.439 262.383C143.105 229.481 150.117 196.589 165.667 167.5C181.217 138.41 204.671 114.308 233.326 97.9714C261.981 81.6348 294.67 73.7293 327.623 75.1661L324.574 145.1C304.802 144.238 285.189 148.981 267.996 158.783C250.803 168.585 236.73 183.046 227.4 200.5C218.07 217.953 213.863 237.688 215.263 257.43C216.664 277.171 223.615 296.114 235.315 312.076L178.858 353.46Z"/>
</mask>
<path d="M178.858 353.46C159.358 326.857 147.773 295.285 145.439 262.383C143.105 229.481 150.117 196.589 165.667 167.5C181.217 138.41 204.671 114.308 233.326 97.9714C261.981 81.6348 294.67 73.7293 327.623 75.1661L324.574 145.1C304.802 144.238 285.189 148.981 267.996 158.783C250.803 168.585 236.73 183.046 227.4 200.5C218.07 217.953 213.863 237.688 215.263 257.43C216.664 277.171 223.615 296.114 235.315 312.076L178.858 353.46Z" fill="#8626E5" stroke="#F5F4F8" stroke-width="12" mask="url(#path-6-inside-4_2_3)"/>
</svg>
