<svg width="640" height="500" viewBox="0 0 640 500" fill="none" xmlns="http://www.w3.org/2000/svg">
<rect width="640" height="500" fill="white"/>
<rect x="47" y="45" width="545" height="410" rx="20" fill="#F5F4F8"/>
<path d="M238.346 250H233.733L240.762 229.636H246.311L253.331 250H248.717L243.616 234.29H243.457L238.346 250ZM238.058 241.996H248.956V245.357H238.058V241.996ZM259.938 229.636V250H255.702V229.636H259.938ZM263.331 250V234.727H267.567V250H263.331ZM265.459 232.759C264.829 232.759 264.289 232.55 263.838 232.132C263.394 231.708 263.172 231.201 263.172 230.611C263.172 230.027 263.394 229.527 263.838 229.109C264.289 228.685 264.829 228.473 265.459 228.473C266.089 228.473 266.625 228.685 267.07 229.109C267.52 229.527 267.746 230.027 267.746 230.611C267.746 231.201 267.52 231.708 267.07 232.132C266.625 232.55 266.089 232.759 265.459 232.759ZM270.96 250V234.727H274.997V237.422H275.176C275.494 236.527 276.024 235.821 276.767 235.304C277.509 234.787 278.397 234.528 279.431 234.528C280.479 234.528 281.37 234.79 282.106 235.314C282.842 235.831 283.333 236.534 283.578 237.422H283.737C284.048 236.547 284.612 235.848 285.427 235.324C286.249 234.794 287.22 234.528 288.341 234.528C289.766 234.528 290.922 234.982 291.811 235.891C292.706 236.792 293.153 238.071 293.153 239.729V250H288.927V240.564C288.927 239.715 288.702 239.079 288.251 238.655C287.8 238.231 287.237 238.018 286.561 238.018C285.792 238.018 285.192 238.264 284.761 238.754C284.33 239.238 284.115 239.878 284.115 240.673V250H280.008V240.474C280.008 239.725 279.793 239.129 279.362 238.685C278.938 238.241 278.377 238.018 277.681 238.018C277.211 238.018 276.787 238.138 276.409 238.376C276.038 238.608 275.743 238.937 275.524 239.361C275.305 239.778 275.196 240.269 275.196 240.832V250H270.96ZM303.459 250.298C301.888 250.298 300.536 249.98 299.402 249.344C298.275 248.701 297.407 247.793 296.797 246.619C296.187 245.439 295.882 244.044 295.882 242.433C295.882 240.862 296.187 239.483 296.797 238.297C297.407 237.11 298.266 236.186 299.373 235.523C300.486 234.86 301.792 234.528 303.29 234.528C304.298 234.528 305.236 234.691 306.104 235.016C306.979 235.334 307.741 235.814 308.391 236.457C309.047 237.1 309.558 237.909 309.922 238.884C310.287 239.851 310.469 240.985 310.469 242.284V243.447H297.573V240.822H306.482C306.482 240.213 306.349 239.672 306.084 239.202C305.819 238.731 305.451 238.363 304.98 238.098C304.516 237.826 303.976 237.69 303.36 237.69C302.717 237.69 302.147 237.839 301.65 238.138C301.159 238.429 300.775 238.824 300.496 239.321C300.218 239.812 300.075 240.358 300.069 240.962V243.457C300.069 244.213 300.208 244.866 300.486 245.416C300.771 245.966 301.172 246.391 301.689 246.689C302.206 246.987 302.819 247.136 303.529 247.136C303.999 247.136 304.43 247.07 304.821 246.938C305.212 246.805 305.547 246.606 305.826 246.341C306.104 246.076 306.316 245.751 306.462 245.366L310.38 245.625C310.181 246.566 309.773 247.388 309.157 248.091C308.547 248.787 307.758 249.33 306.79 249.722C305.829 250.106 304.719 250.298 303.459 250.298ZM317.469 241.17V250H313.233V234.727H317.27V237.422H317.449C317.787 236.534 318.354 235.831 319.15 235.314C319.945 234.79 320.909 234.528 322.043 234.528C323.104 234.528 324.028 234.76 324.817 235.224C325.606 235.688 326.219 236.351 326.657 237.213C327.094 238.068 327.313 239.089 327.313 240.276V250H323.077V241.031C323.084 240.097 322.845 239.367 322.361 238.844C321.877 238.313 321.211 238.048 320.363 238.048C319.792 238.048 319.289 238.171 318.851 238.416C318.42 238.661 318.082 239.019 317.837 239.49C317.598 239.954 317.476 240.514 317.469 241.17ZM338.775 234.727V237.909H329.577V234.727H338.775ZM331.665 231.068H335.901V245.307C335.901 245.698 335.961 246.003 336.08 246.222C336.2 246.434 336.365 246.583 336.577 246.669C336.796 246.755 337.048 246.798 337.333 246.798C337.532 246.798 337.731 246.782 337.93 246.749C338.129 246.709 338.281 246.679 338.387 246.659L339.053 249.811C338.841 249.877 338.543 249.954 338.158 250.04C337.774 250.133 337.307 250.189 336.756 250.209C335.736 250.249 334.841 250.113 334.072 249.801C333.309 249.49 332.716 249.006 332.292 248.349C331.868 247.693 331.659 246.865 331.665 245.864V231.068ZM345.889 250.288C344.915 250.288 344.046 250.119 343.284 249.781C342.522 249.437 341.919 248.929 341.474 248.26C341.037 247.584 340.818 246.742 340.818 245.734C340.818 244.886 340.974 244.173 341.286 243.597C341.597 243.02 342.021 242.556 342.558 242.205C343.095 241.853 343.705 241.588 344.388 241.409C345.077 241.23 345.8 241.104 346.555 241.031C347.444 240.938 348.16 240.852 348.703 240.773C349.247 240.687 349.641 240.561 349.886 240.395C350.132 240.229 350.254 239.984 350.254 239.659V239.599C350.254 238.97 350.055 238.482 349.658 238.138C349.267 237.793 348.71 237.621 347.987 237.621C347.225 237.621 346.618 237.79 346.168 238.128C345.717 238.459 345.419 238.877 345.273 239.381L341.355 239.062C341.554 238.134 341.945 237.332 342.528 236.656C343.112 235.973 343.864 235.45 344.786 235.085C345.714 234.714 346.787 234.528 348.007 234.528C348.856 234.528 349.668 234.628 350.443 234.827C351.225 235.026 351.918 235.334 352.521 235.751C353.131 236.169 353.612 236.706 353.963 237.362C354.314 238.012 354.49 238.791 354.49 239.699V250H350.473V247.882H350.354C350.108 248.359 349.78 248.78 349.369 249.145C348.958 249.503 348.464 249.785 347.888 249.99C347.311 250.189 346.645 250.288 345.889 250.288ZM347.102 247.365C347.725 247.365 348.276 247.242 348.753 246.997C349.23 246.745 349.605 246.407 349.876 245.983C350.148 245.559 350.284 245.078 350.284 244.541V242.92C350.152 243.007 349.969 243.086 349.737 243.159C349.512 243.225 349.257 243.288 348.972 243.348C348.687 243.401 348.402 243.451 348.116 243.497C347.831 243.537 347.573 243.573 347.341 243.607C346.844 243.679 346.41 243.795 346.038 243.955C345.667 244.114 345.379 244.329 345.173 244.601C344.968 244.866 344.865 245.197 344.865 245.595C344.865 246.172 345.074 246.613 345.491 246.918C345.916 247.216 346.453 247.365 347.102 247.365ZM364.677 250.298C363.112 250.298 361.767 249.967 360.64 249.304C359.52 248.634 358.658 247.706 358.055 246.52C357.458 245.333 357.16 243.968 357.16 242.423C357.16 240.859 357.461 239.487 358.065 238.307C358.674 237.12 359.54 236.196 360.66 235.533C361.78 234.863 363.112 234.528 364.657 234.528C365.989 234.528 367.156 234.77 368.157 235.254C369.158 235.738 369.95 236.418 370.533 237.293C371.117 238.168 371.438 239.195 371.498 240.375H367.501C367.388 239.613 367.09 239 366.606 238.536C366.129 238.065 365.502 237.83 364.727 237.83C364.07 237.83 363.497 238.009 363.006 238.366C362.522 238.718 362.145 239.232 361.873 239.908C361.601 240.584 361.465 241.402 361.465 242.364C361.465 243.338 361.598 244.167 361.863 244.849C362.135 245.532 362.516 246.053 363.006 246.411C363.497 246.768 364.07 246.947 364.727 246.947C365.21 246.947 365.645 246.848 366.029 246.649C366.42 246.45 366.742 246.162 366.994 245.784C367.252 245.4 367.421 244.939 367.501 244.402H371.498C371.432 245.569 371.113 246.596 370.543 247.484C369.98 248.366 369.201 249.055 368.207 249.553C367.212 250.05 366.036 250.298 364.677 250.298ZM363.683 249.92H365.631L365.472 250.786C366.155 250.892 366.712 251.147 367.143 251.551C367.58 251.955 367.802 252.506 367.809 253.202C367.816 254.189 367.358 254.975 366.437 255.558C365.515 256.148 364.223 256.443 362.559 256.443L362.519 254.554C363.354 254.554 364.007 254.451 364.478 254.246C364.955 254.047 365.204 253.735 365.224 253.311C365.237 252.907 365.081 252.598 364.756 252.386C364.432 252.174 363.924 252.025 363.235 251.939L363.683 249.92ZM378.565 250.288C377.591 250.288 376.722 250.119 375.96 249.781C375.198 249.437 374.594 248.929 374.15 248.26C373.713 247.584 373.494 246.742 373.494 245.734C373.494 244.886 373.65 244.173 373.961 243.597C374.273 243.02 374.697 242.556 375.234 242.205C375.771 241.853 376.381 241.588 377.064 241.409C377.753 241.23 378.475 241.104 379.231 241.031C380.119 240.938 380.835 240.852 381.379 240.773C381.922 240.687 382.317 240.561 382.562 240.395C382.807 240.229 382.93 239.984 382.93 239.659V239.599C382.93 238.97 382.731 238.482 382.333 238.138C381.942 237.793 381.386 237.621 380.663 237.621C379.901 237.621 379.294 237.79 378.843 238.128C378.393 238.459 378.094 238.877 377.949 239.381L374.031 239.062C374.23 238.134 374.621 237.332 375.204 236.656C375.788 235.973 376.54 235.45 377.461 235.085C378.389 234.714 379.463 234.528 380.683 234.528C381.531 234.528 382.343 234.628 383.119 234.827C383.901 235.026 384.594 235.334 385.197 235.751C385.807 236.169 386.288 236.706 386.639 237.362C386.99 238.012 387.166 238.791 387.166 239.699V250H383.149V247.882H383.029C382.784 248.359 382.456 248.78 382.045 249.145C381.634 249.503 381.14 249.785 380.564 249.99C379.987 250.189 379.321 250.288 378.565 250.288ZM379.778 247.365C380.401 247.365 380.951 247.242 381.429 246.997C381.906 246.745 382.28 246.407 382.552 245.983C382.824 245.559 382.96 245.078 382.96 244.541V242.92C382.827 243.007 382.645 243.086 382.413 243.159C382.188 243.225 381.932 243.288 381.647 243.348C381.362 243.401 381.077 243.451 380.792 243.497C380.507 243.537 380.249 243.573 380.017 243.607C379.52 243.679 379.085 243.795 378.714 243.955C378.343 244.114 378.055 244.329 377.849 244.601C377.644 244.866 377.541 245.197 377.541 245.595C377.541 246.172 377.75 246.613 378.167 246.918C378.592 247.216 379.128 247.365 379.778 247.365ZM377.998 232.848L375.642 232.818C375.642 231.552 375.953 230.581 376.576 229.905C377.206 229.229 377.972 228.887 378.873 228.881C379.337 228.881 379.735 228.957 380.066 229.109C380.404 229.255 380.706 229.428 380.971 229.626C381.243 229.825 381.502 230.001 381.747 230.153C381.992 230.299 382.257 230.372 382.542 230.372C382.927 230.366 383.218 230.223 383.417 229.945C383.623 229.66 383.725 229.288 383.725 228.831L386.042 228.901C386.029 230.153 385.711 231.121 385.088 231.804C384.465 232.48 383.706 232.821 382.811 232.828C382.314 232.828 381.896 232.755 381.558 232.609C381.226 232.457 380.935 232.285 380.683 232.092C380.431 231.893 380.186 231.718 379.947 231.565C379.708 231.413 379.44 231.337 379.142 231.337C378.797 231.337 378.519 231.473 378.306 231.744C378.101 232.016 377.998 232.384 377.998 232.848ZM397.353 250.298C395.808 250.298 394.472 249.97 393.346 249.314C392.225 248.651 391.36 247.73 390.75 246.55C390.141 245.363 389.836 243.988 389.836 242.423C389.836 240.846 390.141 239.467 390.75 238.287C391.36 237.1 392.225 236.179 393.346 235.523C394.472 234.86 395.808 234.528 397.353 234.528C398.897 234.528 400.23 234.86 401.35 235.523C402.477 236.179 403.345 237.1 403.955 238.287C404.565 239.467 404.87 240.846 404.87 242.423C404.87 243.988 404.565 245.363 403.955 246.55C403.345 247.73 402.477 248.651 401.35 249.314C400.23 249.97 398.897 250.298 397.353 250.298ZM397.373 247.017C398.075 247.017 398.662 246.818 399.132 246.42C399.603 246.016 399.958 245.466 400.196 244.77C400.442 244.074 400.564 243.282 400.564 242.393C400.564 241.505 400.442 240.713 400.196 240.017C399.958 239.321 399.603 238.771 399.132 238.366C398.662 237.962 398.075 237.76 397.373 237.76C396.663 237.76 396.067 237.962 395.583 238.366C395.105 238.771 394.744 239.321 394.499 240.017C394.26 240.713 394.141 241.505 394.141 242.393C394.141 243.282 394.26 244.074 394.499 244.77C394.744 245.466 395.105 246.016 395.583 246.42C396.067 246.818 396.663 247.017 397.373 247.017ZM298.599 284.278C297.115 284.278 295.792 284.023 294.632 283.513C293.479 282.996 292.567 282.286 291.898 281.385C291.235 280.477 290.893 279.429 290.874 278.243H295.209C295.235 278.74 295.398 279.178 295.696 279.555C296.001 279.927 296.405 280.215 296.909 280.42C297.413 280.626 297.98 280.729 298.609 280.729C299.266 280.729 299.846 280.613 300.349 280.381C300.853 280.149 301.248 279.827 301.533 279.416C301.818 279.005 301.96 278.531 301.96 277.994C301.96 277.451 301.808 276.97 301.503 276.553C301.205 276.128 300.774 275.797 300.21 275.558C299.653 275.32 298.991 275.2 298.222 275.2H296.322V272.038H298.222C298.871 272.038 299.445 271.926 299.942 271.7C300.446 271.475 300.837 271.163 301.115 270.766C301.393 270.361 301.533 269.891 301.533 269.354C301.533 268.843 301.41 268.396 301.165 268.011C300.926 267.62 300.588 267.315 300.151 267.097C299.72 266.878 299.216 266.768 298.639 266.768C298.056 266.768 297.522 266.875 297.038 267.087C296.554 267.292 296.167 267.587 295.875 267.972C295.583 268.356 295.428 268.807 295.408 269.324H291.281C291.301 268.151 291.636 267.116 292.286 266.222C292.935 265.327 293.81 264.627 294.911 264.124C296.018 263.613 297.267 263.358 298.659 263.358C300.064 263.358 301.294 263.613 302.348 264.124C303.402 264.634 304.221 265.323 304.804 266.192C305.394 267.054 305.686 268.021 305.679 269.095C305.686 270.235 305.331 271.187 304.615 271.949C303.906 272.711 302.981 273.195 301.841 273.401V273.56C303.339 273.752 304.479 274.272 305.261 275.121C306.05 275.963 306.441 277.017 306.435 278.283C306.441 279.443 306.107 280.473 305.43 281.375C304.761 282.277 303.836 282.986 302.656 283.503C301.476 284.02 300.124 284.278 298.599 284.278ZM309.529 284V280.898L316.778 274.186C317.395 273.589 317.912 273.053 318.329 272.575C318.753 272.098 319.075 271.631 319.294 271.173C319.512 270.709 319.622 270.209 319.622 269.672C319.622 269.075 319.486 268.562 319.214 268.131C318.942 267.693 318.571 267.358 318.1 267.126C317.63 266.888 317.096 266.768 316.5 266.768C315.877 266.768 315.333 266.894 314.869 267.146C314.405 267.398 314.047 267.759 313.795 268.23C313.543 268.701 313.417 269.261 313.417 269.911H309.331C309.331 268.578 309.632 267.421 310.235 266.44C310.839 265.459 311.684 264.7 312.771 264.163C313.858 263.626 315.111 263.358 316.529 263.358C317.988 263.358 319.257 263.616 320.338 264.134C321.425 264.644 322.27 265.353 322.873 266.261C323.476 267.17 323.778 268.21 323.778 269.384C323.778 270.152 323.626 270.911 323.321 271.661C323.022 272.41 322.489 273.241 321.72 274.156C320.951 275.064 319.867 276.155 318.468 277.428L315.495 280.341V280.48H324.047V284H309.529ZM338.312 280.182V279.108C338.312 278.293 338.485 277.544 338.83 276.861C339.181 276.171 339.688 275.621 340.351 275.21C341.02 274.793 341.836 274.584 342.797 274.584C343.771 274.584 344.59 274.789 345.253 275.2C345.922 275.611 346.426 276.161 346.764 276.851C347.109 277.534 347.281 278.286 347.281 279.108V280.182C347.281 280.997 347.109 281.75 346.764 282.439C346.42 283.122 345.912 283.669 345.243 284.08C344.573 284.497 343.758 284.706 342.797 284.706C341.822 284.706 341.004 284.497 340.341 284.08C339.678 283.669 339.174 283.122 338.83 282.439C338.485 281.75 338.312 280.997 338.312 280.182ZM341.206 279.108V280.182C341.206 280.652 341.319 281.097 341.544 281.514C341.776 281.932 342.194 282.141 342.797 282.141C343.4 282.141 343.811 281.935 344.03 281.524C344.255 281.113 344.368 280.666 344.368 280.182V279.108C344.368 278.624 344.262 278.173 344.05 277.756C343.838 277.338 343.42 277.129 342.797 277.129C342.2 277.129 341.786 277.338 341.554 277.756C341.322 278.173 341.206 278.624 341.206 279.108ZM327.862 268.528V267.455C327.862 266.633 328.038 265.88 328.389 265.197C328.741 264.508 329.248 263.958 329.911 263.547C330.58 263.136 331.389 262.93 332.337 262.93C333.318 262.93 334.14 263.136 334.803 263.547C335.465 263.958 335.969 264.508 336.314 265.197C336.659 265.88 336.831 266.633 336.831 267.455V268.528C336.831 269.35 336.655 270.103 336.304 270.786C335.959 271.468 335.452 272.015 334.783 272.426C334.12 272.83 333.304 273.033 332.337 273.033C331.369 273.033 330.55 272.827 329.881 272.416C329.218 271.999 328.714 271.452 328.369 270.776C328.031 270.093 327.862 269.344 327.862 268.528ZM330.776 267.455V268.528C330.776 269.012 330.888 269.46 331.114 269.871C331.346 270.282 331.753 270.487 332.337 270.487C332.946 270.487 333.361 270.282 333.58 269.871C333.805 269.46 333.918 269.012 333.918 268.528V267.455C333.918 266.971 333.812 266.52 333.599 266.102C333.387 265.685 332.966 265.476 332.337 265.476C331.747 265.476 331.339 265.688 331.114 266.112C330.888 266.536 330.776 266.984 330.776 267.455ZM329.175 284L343.175 263.636H345.78L331.78 284H329.175Z" fill="black"/>
<mask id="path-3-inside-1_101_30" fill="white">
<path d="M490.817 211.967C497.629 242.561 496.099 274.423 486.388 304.223C476.676 334.024 459.139 360.669 435.61 381.375C412.08 402.081 383.422 416.088 352.628 421.931C321.835 427.775 290.037 425.242 260.558 414.595L284.335 348.757C302.022 355.145 321.101 356.665 339.577 353.159C358.053 349.653 375.248 341.249 389.366 328.825C403.484 316.401 414.006 300.414 419.833 282.534C425.659 264.654 426.577 245.537 422.49 227.18L490.817 211.967Z"/>
</mask>
<path d="M490.817 211.967C497.629 242.561 496.099 274.423 486.388 304.223C476.676 334.024 459.139 360.669 435.61 381.375C412.08 402.081 383.422 416.088 352.628 421.931C321.835 427.775 290.037 425.242 260.558 414.595L284.335 348.757C302.022 355.145 321.101 356.665 339.577 353.159C358.053 349.653 375.248 341.249 389.366 328.825C403.484 316.401 414.006 300.414 419.833 282.534C425.659 264.654 426.577 245.537 422.49 227.18L490.817 211.967Z" fill="#F4BE37" stroke="#F5F4F8" stroke-width="12" mask="url(#path-3-inside-1_101_30)"/>
<g opacity="0.4">
<mask id="path-4-inside-2_101_30" fill="white">
<path d="M266.58 416.647C229.609 404.796 197.629 380.987 175.673 348.969L233.404 309.381C246.578 328.592 265.766 342.878 287.948 349.988L266.58 416.647Z"/>
</mask>
<path d="M266.58 416.647C229.609 404.796 197.629 380.987 175.673 348.969L233.404 309.381C246.578 328.592 265.766 342.878 287.948 349.988L266.58 416.647Z" fill="#A0ACC5" stroke="#F5F4F8" stroke-width="12" mask="url(#path-4-inside-2_101_30)"/>
</g>
<g opacity="0.4">
<mask id="path-5-inside-3_101_30" fill="white">
<path d="M320 75C361.373 75 401.408 89.6584 433 116.374C464.592 143.089 485.696 180.133 492.569 220.931L423.541 232.559C419.418 208.08 406.755 185.853 387.8 169.824C368.845 153.795 344.824 145 320 145V75Z"/>
</mask>
<path d="M320 75C361.373 75 401.408 89.6584 433 116.374C464.592 143.089 485.696 180.133 492.569 220.931L423.541 232.559C419.418 208.08 406.755 185.853 387.8 169.824C368.845 153.795 344.824 145 320 145V75Z" fill="#A0ACC5" stroke="#F5F4F8" stroke-width="12" mask="url(#path-5-inside-3_101_30)"/>
</g>
<g opacity="0.4">
<mask id="path-6-inside-4_101_30" fill="white">
<path d="M178.858 353.46C159.358 326.857 147.773 295.285 145.439 262.383C143.105 229.481 150.117 196.589 165.667 167.5C181.217 138.41 204.671 114.308 233.326 97.9714C261.981 81.6348 294.67 73.7293 327.623 75.1661L324.574 145.1C304.802 144.238 285.189 148.981 267.996 158.783C250.803 168.585 236.73 183.046 227.4 200.5C218.07 217.953 213.863 237.688 215.263 257.43C216.664 277.171 223.615 296.114 235.315 312.076L178.858 353.46Z"/>
</mask>
<path d="M178.858 353.46C159.358 326.857 147.773 295.285 145.439 262.383C143.105 229.481 150.117 196.589 165.667 167.5C181.217 138.41 204.671 114.308 233.326 97.9714C261.981 81.6348 294.67 73.7293 327.623 75.1661L324.574 145.1C304.802 144.238 285.189 148.981 267.996 158.783C250.803 168.585 236.73 183.046 227.4 200.5C218.07 217.953 213.863 237.688 215.263 257.43C216.664 277.171 223.615 296.114 235.315 312.076L178.858 353.46Z" fill="#A0ACC5" stroke="#F5F4F8" stroke-width="12" mask="url(#path-6-inside-4_101_30)"/>
</g>
</svg>
