<svg width="640" height="500" viewBox="0 0 640 500" fill="none" xmlns="http://www.w3.org/2000/svg">
<rect width="640" height="500" fill="white"/>
<rect x="47" y="45" width="545" height="410" rx="20" fill="#F5F4F8"/>
<path d="M293.561 237.818C293.561 240.039 293.14 241.928 292.298 243.486C291.463 245.044 290.323 246.233 288.878 247.055C287.439 247.871 285.822 248.278 284.026 248.278C282.216 248.278 280.592 247.867 279.153 247.045C277.715 246.223 276.578 245.034 275.743 243.476C274.908 241.918 274.49 240.032 274.49 237.818C274.49 235.598 274.908 233.708 275.743 232.151C276.578 230.593 277.715 229.406 279.153 228.591C280.592 227.769 282.216 227.358 284.026 227.358C285.822 227.358 287.439 227.769 288.878 228.591C290.323 229.406 291.463 230.593 292.298 232.151C293.14 233.708 293.561 235.598 293.561 237.818ZM289.196 237.818C289.196 236.38 288.981 235.167 288.55 234.179C288.125 233.191 287.526 232.442 286.75 231.932C285.974 231.421 285.066 231.166 284.026 231.166C282.985 231.166 282.077 231.421 281.301 231.932C280.526 232.442 279.922 233.191 279.491 234.179C279.067 235.167 278.855 236.38 278.855 237.818C278.855 239.257 279.067 240.47 279.491 241.457C279.922 242.445 280.526 243.194 281.301 243.705C282.077 244.215 282.985 244.47 284.026 244.47C285.066 244.47 285.974 244.215 286.75 243.705C287.526 243.194 288.125 242.445 288.55 241.457C288.981 240.47 289.196 239.257 289.196 237.818ZM306.465 241.497V232.727H310.701V248H306.634V245.226H306.475C306.13 246.121 305.557 246.84 304.755 247.384C303.959 247.927 302.988 248.199 301.841 248.199C300.82 248.199 299.922 247.967 299.147 247.503C298.371 247.039 297.765 246.379 297.327 245.524C296.896 244.669 296.677 243.645 296.671 242.452V232.727H300.907V241.696C300.913 242.598 301.155 243.31 301.632 243.834C302.11 244.357 302.749 244.619 303.551 244.619C304.062 244.619 304.539 244.503 304.983 244.271C305.427 244.033 305.785 243.681 306.057 243.217C306.336 242.753 306.471 242.18 306.465 241.497ZM322.212 232.727V235.909H313.015V232.727H322.212ZM315.103 229.068H319.339V243.307C319.339 243.698 319.398 244.003 319.518 244.222C319.637 244.434 319.803 244.583 320.015 244.669C320.234 244.755 320.486 244.798 320.771 244.798C320.969 244.798 321.168 244.782 321.367 244.749C321.566 244.709 321.719 244.679 321.825 244.659L322.491 247.811C322.279 247.877 321.98 247.954 321.596 248.04C321.211 248.133 320.744 248.189 320.194 248.209C319.173 248.249 318.278 248.113 317.509 247.801C316.747 247.49 316.154 247.006 315.729 246.349C315.305 245.693 315.096 244.865 315.103 243.864V229.068ZM324.972 248V232.727H329.078V235.392H329.237C329.516 234.444 329.983 233.728 330.639 233.244C331.295 232.754 332.051 232.509 332.906 232.509C333.118 232.509 333.347 232.522 333.592 232.548C333.838 232.575 334.053 232.611 334.239 232.658V236.416C334.04 236.357 333.765 236.304 333.413 236.257C333.062 236.211 332.741 236.188 332.449 236.188C331.826 236.188 331.269 236.323 330.778 236.595C330.295 236.86 329.91 237.232 329.625 237.709C329.347 238.186 329.207 238.736 329.207 239.359V248H324.972ZM342.618 248.298C341.074 248.298 339.738 247.97 338.611 247.314C337.491 246.651 336.626 245.73 336.016 244.55C335.406 243.363 335.101 241.988 335.101 240.423C335.101 238.846 335.406 237.467 336.016 236.287C336.626 235.1 337.491 234.179 338.611 233.523C339.738 232.86 341.074 232.528 342.618 232.528C344.163 232.528 345.495 232.86 346.615 233.523C347.742 234.179 348.611 235.1 349.221 236.287C349.83 237.467 350.135 238.846 350.135 240.423C350.135 241.988 349.83 243.363 349.221 244.55C348.611 245.73 347.742 246.651 346.615 247.314C345.495 247.97 344.163 248.298 342.618 248.298ZM342.638 245.017C343.341 245.017 343.927 244.818 344.398 244.42C344.869 244.016 345.223 243.466 345.462 242.77C345.707 242.074 345.83 241.282 345.83 240.393C345.83 239.505 345.707 238.713 345.462 238.017C345.223 237.321 344.869 236.771 344.398 236.366C343.927 235.962 343.341 235.76 342.638 235.76C341.929 235.76 341.332 235.962 340.848 236.366C340.371 236.771 340.01 237.321 339.765 238.017C339.526 238.713 339.407 239.505 339.407 240.393C339.407 241.282 339.526 242.074 339.765 242.77C340.01 243.466 340.371 244.016 340.848 244.42C341.332 244.818 341.929 245.017 342.638 245.017ZM365.597 237.082L361.719 237.321C361.653 236.99 361.51 236.691 361.292 236.426C361.073 236.154 360.784 235.939 360.426 235.78C360.075 235.614 359.654 235.531 359.164 235.531C358.507 235.531 357.954 235.67 357.503 235.949C357.052 236.221 356.827 236.585 356.827 237.043C356.827 237.407 356.973 237.715 357.265 237.967C357.556 238.219 358.057 238.421 358.766 238.574L361.53 239.131C363.015 239.436 364.122 239.926 364.851 240.602C365.58 241.278 365.945 242.167 365.945 243.267C365.945 244.268 365.65 245.146 365.06 245.902C364.477 246.658 363.675 247.248 362.654 247.672C361.64 248.089 360.47 248.298 359.144 248.298C357.122 248.298 355.511 247.877 354.311 247.036C353.118 246.187 352.419 245.034 352.213 243.575L356.38 243.357C356.506 243.973 356.81 244.444 357.294 244.768C357.778 245.087 358.398 245.246 359.154 245.246C359.896 245.246 360.493 245.103 360.944 244.818C361.401 244.527 361.633 244.152 361.64 243.695C361.633 243.31 361.471 242.995 361.152 242.75C360.834 242.498 360.344 242.306 359.681 242.173L357.036 241.646C355.544 241.348 354.434 240.831 353.705 240.095C352.982 239.359 352.621 238.421 352.621 237.281C352.621 236.3 352.886 235.455 353.417 234.746C353.953 234.036 354.706 233.49 355.674 233.105C356.648 232.721 357.788 232.528 359.094 232.528C361.023 232.528 362.541 232.936 363.648 233.751C364.762 234.567 365.411 235.677 365.597 237.082ZM302.811 261.636V282H298.505V265.723H298.386L293.723 268.646V264.828L298.764 261.636H302.811ZM307.651 282V278.898L314.899 272.186C315.516 271.589 316.033 271.053 316.45 270.575C316.875 270.098 317.196 269.631 317.415 269.173C317.634 268.709 317.743 268.209 317.743 267.672C317.743 267.075 317.607 266.562 317.335 266.131C317.063 265.693 316.692 265.358 316.222 265.126C315.751 264.888 315.217 264.768 314.621 264.768C313.998 264.768 313.454 264.894 312.99 265.146C312.526 265.398 312.168 265.759 311.916 266.23C311.664 266.701 311.538 267.261 311.538 267.911H307.452C307.452 266.578 307.753 265.421 308.357 264.44C308.96 263.459 309.805 262.7 310.892 262.163C311.979 261.626 313.232 261.358 314.651 261.358C316.109 261.358 317.378 261.616 318.459 262.134C319.546 262.644 320.391 263.353 320.994 264.261C321.598 265.17 321.899 266.21 321.899 267.384C321.899 268.152 321.747 268.911 321.442 269.661C321.143 270.41 320.61 271.241 319.841 272.156C319.072 273.064 317.988 274.155 316.589 275.428L313.616 278.341V278.48H322.168V282H307.651ZM336.434 278.182V277.108C336.434 276.293 336.606 275.544 336.951 274.861C337.302 274.171 337.809 273.621 338.472 273.21C339.141 272.793 339.957 272.584 340.918 272.584C341.892 272.584 342.711 272.789 343.374 273.2C344.043 273.611 344.547 274.161 344.885 274.851C345.23 275.534 345.402 276.286 345.402 277.108V278.182C345.402 278.997 345.23 279.75 344.885 280.439C344.541 281.122 344.033 281.669 343.364 282.08C342.694 282.497 341.879 282.706 340.918 282.706C339.944 282.706 339.125 282.497 338.462 282.08C337.799 281.669 337.295 281.122 336.951 280.439C336.606 279.75 336.434 278.997 336.434 278.182ZM339.327 277.108V278.182C339.327 278.652 339.44 279.097 339.665 279.514C339.897 279.932 340.315 280.141 340.918 280.141C341.521 280.141 341.932 279.935 342.151 279.524C342.376 279.113 342.489 278.666 342.489 278.182V277.108C342.489 276.624 342.383 276.173 342.171 275.756C341.959 275.338 341.541 275.129 340.918 275.129C340.321 275.129 339.907 275.338 339.675 275.756C339.443 276.173 339.327 276.624 339.327 277.108ZM325.983 266.528V265.455C325.983 264.633 326.159 263.88 326.51 263.197C326.862 262.508 327.369 261.958 328.032 261.547C328.701 261.136 329.51 260.93 330.458 260.93C331.439 260.93 332.261 261.136 332.924 261.547C333.587 261.958 334.09 262.508 334.435 263.197C334.78 263.88 334.952 264.633 334.952 265.455V266.528C334.952 267.35 334.776 268.103 334.425 268.786C334.08 269.468 333.573 270.015 332.904 270.426C332.241 270.83 331.426 271.033 330.458 271.033C329.49 271.033 328.671 270.827 328.002 270.416C327.339 269.999 326.835 269.452 326.49 268.776C326.152 268.093 325.983 267.344 325.983 266.528ZM328.897 265.455V266.528C328.897 267.012 329.009 267.46 329.235 267.871C329.467 268.282 329.874 268.487 330.458 268.487C331.068 268.487 331.482 268.282 331.701 267.871C331.926 267.46 332.039 267.012 332.039 266.528V265.455C332.039 264.971 331.933 264.52 331.721 264.102C331.508 263.685 331.087 263.476 330.458 263.476C329.868 263.476 329.46 263.688 329.235 264.112C329.009 264.536 328.897 264.984 328.897 265.455ZM327.296 282L341.296 261.636H343.901L329.901 282H327.296Z" fill="black"/>
<g opacity="0.4">
<mask id="path-3-inside-1_101_37" fill="white">
<path d="M490.817 211.967C497.629 242.561 496.099 274.423 486.388 304.223C476.676 334.024 459.139 360.669 435.61 381.375C412.08 402.081 383.422 416.088 352.628 421.931C321.835 427.775 290.037 425.242 260.558 414.595L284.335 348.757C302.022 355.145 321.101 356.665 339.577 353.159C358.053 349.653 375.248 341.249 389.366 328.825C403.484 316.401 414.006 300.414 419.833 282.534C425.659 264.654 426.577 245.537 422.49 227.18L490.817 211.967Z"/>
</mask>
<path d="M490.817 211.967C497.629 242.561 496.099 274.423 486.388 304.223C476.676 334.024 459.139 360.669 435.61 381.375C412.08 402.081 383.422 416.088 352.628 421.931C321.835 427.775 290.037 425.242 260.558 414.595L284.335 348.757C302.022 355.145 321.101 356.665 339.577 353.159C358.053 349.653 375.248 341.249 389.366 328.825C403.484 316.401 414.006 300.414 419.833 282.534C425.659 264.654 426.577 245.537 422.49 227.18L490.817 211.967Z" fill="#A0ACC5" stroke="#F5F4F8" stroke-width="12" mask="url(#path-3-inside-1_101_37)"/>
</g>
<mask id="path-4-inside-2_101_37" fill="white">
<path d="M266.58 416.647C229.609 404.796 197.629 380.987 175.673 348.969L233.404 309.381C246.578 328.592 265.766 342.878 287.948 349.988L266.58 416.647Z"/>
</mask>
<path d="M266.58 416.647C229.609 404.796 197.629 380.987 175.673 348.969L233.404 309.381C246.578 328.592 265.766 342.878 287.948 349.988L266.58 416.647Z" fill="#91C108" stroke="#F5F4F8" stroke-width="12" mask="url(#path-4-inside-2_101_37)"/>
<g opacity="0.4">
<mask id="path-5-inside-3_101_37" fill="white">
<path d="M320 75C361.373 75 401.408 89.6584 433 116.374C464.592 143.089 485.696 180.133 492.569 220.931L423.541 232.559C419.418 208.08 406.755 185.853 387.8 169.824C368.845 153.795 344.824 145 320 145V75Z"/>
</mask>
<path d="M320 75C361.373 75 401.408 89.6584 433 116.374C464.592 143.089 485.696 180.133 492.569 220.931L423.541 232.559C419.418 208.08 406.755 185.853 387.8 169.824C368.845 153.795 344.824 145 320 145V75Z" fill="#A0ACC5" stroke="#F5F4F8" stroke-width="12" mask="url(#path-5-inside-3_101_37)"/>
</g>
<g opacity="0.4">
<mask id="path-6-inside-4_101_37" fill="white">
<path d="M178.858 353.46C159.358 326.857 147.773 295.285 145.439 262.383C143.105 229.481 150.117 196.589 165.667 167.5C181.217 138.41 204.671 114.308 233.326 97.9714C261.981 81.6348 294.67 73.7293 327.623 75.1661L324.574 145.1C304.802 144.238 285.189 148.981 267.996 158.783C250.803 168.585 236.73 183.046 227.4 200.5C218.07 217.953 213.863 237.688 215.263 257.43C216.664 277.171 223.615 296.114 235.315 312.076L178.858 353.46Z"/>
</mask>
<path d="M178.858 353.46C159.358 326.857 147.773 295.285 145.439 262.383C143.105 229.481 150.117 196.589 165.667 167.5C181.217 138.41 204.671 114.308 233.326 97.9714C261.981 81.6348 294.67 73.7293 327.623 75.1661L324.574 145.1C304.802 144.238 285.189 148.981 267.996 158.783C250.803 168.585 236.73 183.046 227.4 200.5C218.07 217.953 213.863 237.688 215.263 257.43C216.664 277.171 223.615 296.114 235.315 312.076L178.858 353.46Z" fill="#A0ACC5" stroke="#F5F4F8" stroke-width="12" mask="url(#path-6-inside-4_101_37)"/>
</g>
</svg>
