<svg width="640" height="500" viewBox="0 0 640 500" fill="none" xmlns="http://www.w3.org/2000/svg">
<rect width="640" height="500" fill="white"/>
<rect x="47" y="45" width="545" height="410" rx="20" fill="#F5F4F8"/>
<path d="M286.833 229.219C286.694 228.735 286.499 228.307 286.247 227.936C285.995 227.558 285.686 227.24 285.322 226.982C284.964 226.716 284.553 226.514 284.089 226.375C283.632 226.236 283.124 226.166 282.568 226.166C281.527 226.166 280.612 226.425 279.823 226.942C279.041 227.459 278.431 228.211 277.994 229.199C277.556 230.18 277.338 231.38 277.338 232.798C277.338 234.217 277.553 235.423 277.984 236.418C278.415 237.412 279.025 238.171 279.813 238.695C280.602 239.212 281.534 239.47 282.607 239.47C283.582 239.47 284.414 239.298 285.103 238.953C285.799 238.602 286.329 238.108 286.694 237.472C287.065 236.835 287.251 236.083 287.251 235.214L288.126 235.344H282.876V232.102H291.397V234.668C291.397 236.457 291.019 237.995 290.264 239.281C289.508 240.561 288.467 241.548 287.142 242.244C285.816 242.934 284.298 243.278 282.588 243.278C280.678 243.278 279.001 242.857 277.556 242.016C276.111 241.167 274.984 239.964 274.176 238.406C273.374 236.842 272.972 234.986 272.972 232.838C272.972 231.187 273.211 229.716 273.688 228.423C274.172 227.124 274.848 226.024 275.717 225.122C276.585 224.221 277.596 223.535 278.749 223.064C279.903 222.593 281.152 222.358 282.498 222.358C283.651 222.358 284.725 222.527 285.72 222.865C286.714 223.196 287.596 223.667 288.365 224.277C289.14 224.887 289.773 225.613 290.264 226.455C290.754 227.29 291.069 228.211 291.208 229.219H286.833ZM298.907 243.288C297.932 243.288 297.064 243.119 296.302 242.781C295.539 242.437 294.936 241.929 294.492 241.26C294.055 240.584 293.836 239.742 293.836 238.734C293.836 237.886 293.992 237.173 294.303 236.597C294.615 236.02 295.039 235.556 295.576 235.205C296.113 234.853 296.723 234.588 297.405 234.409C298.095 234.23 298.817 234.104 299.573 234.031C300.461 233.938 301.177 233.852 301.721 233.773C302.264 233.687 302.659 233.561 302.904 233.395C303.149 233.229 303.272 232.984 303.272 232.659V232.599C303.272 231.97 303.073 231.482 302.675 231.138C302.284 230.793 301.727 230.621 301.005 230.621C300.242 230.621 299.636 230.79 299.185 231.128C298.734 231.459 298.436 231.877 298.29 232.381L294.373 232.062C294.572 231.134 294.963 230.332 295.546 229.656C296.129 228.973 296.882 228.45 297.803 228.085C298.731 227.714 299.805 227.528 301.025 227.528C301.873 227.528 302.685 227.628 303.461 227.827C304.243 228.026 304.936 228.334 305.539 228.751C306.149 229.169 306.629 229.706 306.981 230.362C307.332 231.012 307.508 231.791 307.508 232.699V243H303.491V240.882H303.371C303.126 241.359 302.798 241.78 302.387 242.145C301.976 242.503 301.482 242.785 300.905 242.99C300.329 243.189 299.662 243.288 298.907 243.288ZM300.12 240.365C300.743 240.365 301.293 240.242 301.77 239.997C302.248 239.745 302.622 239.407 302.894 238.983C303.166 238.559 303.302 238.078 303.302 237.541V235.92C303.169 236.007 302.987 236.086 302.755 236.159C302.529 236.225 302.274 236.288 301.989 236.348C301.704 236.401 301.419 236.451 301.134 236.497C300.849 236.537 300.59 236.573 300.358 236.607C299.861 236.679 299.427 236.795 299.056 236.955C298.685 237.114 298.396 237.329 298.191 237.601C297.985 237.866 297.883 238.197 297.883 238.595C297.883 239.172 298.091 239.613 298.509 239.918C298.933 240.216 299.47 240.365 300.12 240.365ZM323.501 232.082L319.623 232.321C319.557 231.99 319.415 231.691 319.196 231.426C318.977 231.154 318.689 230.939 318.331 230.78C317.979 230.614 317.559 230.531 317.068 230.531C316.412 230.531 315.858 230.67 315.407 230.949C314.957 231.221 314.731 231.585 314.731 232.043C314.731 232.407 314.877 232.715 315.169 232.967C315.461 233.219 315.961 233.421 316.67 233.574L319.434 234.131C320.919 234.436 322.026 234.926 322.756 235.602C323.485 236.278 323.849 237.167 323.849 238.267C323.849 239.268 323.554 240.146 322.964 240.902C322.381 241.658 321.579 242.248 320.558 242.672C319.544 243.089 318.374 243.298 317.048 243.298C315.026 243.298 313.416 242.877 312.216 242.036C311.023 241.187 310.323 240.034 310.118 238.575L314.284 238.357C314.41 238.973 314.715 239.444 315.199 239.768C315.683 240.087 316.302 240.246 317.058 240.246C317.8 240.246 318.397 240.103 318.848 239.818C319.305 239.527 319.537 239.152 319.544 238.695C319.537 238.31 319.375 237.995 319.057 237.75C318.738 237.498 318.248 237.306 317.585 237.173L314.94 236.646C313.449 236.348 312.338 235.831 311.609 235.095C310.887 234.359 310.525 233.421 310.525 232.281C310.525 231.3 310.791 230.455 311.321 229.746C311.858 229.036 312.61 228.49 313.578 228.105C314.552 227.721 315.693 227.528 316.998 227.528C318.927 227.528 320.445 227.936 321.552 228.751C322.666 229.567 323.316 230.677 323.501 232.082ZM334.64 227.727V230.909H325.443V227.727H334.64ZM327.531 224.068H331.767V238.307C331.767 238.698 331.826 239.003 331.945 239.222C332.065 239.434 332.231 239.583 332.443 239.669C332.661 239.755 332.913 239.798 333.198 239.798C333.397 239.798 333.596 239.782 333.795 239.749C333.994 239.709 334.146 239.679 334.252 239.659L334.919 242.811C334.706 242.877 334.408 242.954 334.024 243.04C333.639 243.133 333.172 243.189 332.622 243.209C331.601 243.249 330.706 243.113 329.937 242.801C329.175 242.49 328.581 242.006 328.157 241.349C327.733 240.693 327.524 239.865 327.531 238.864V224.068ZM344.136 243.298C342.591 243.298 341.256 242.97 340.129 242.314C339.008 241.651 338.143 240.73 337.534 239.55C336.924 238.363 336.619 236.988 336.619 235.423C336.619 233.846 336.924 232.467 337.534 231.287C338.143 230.1 339.008 229.179 340.129 228.523C341.256 227.86 342.591 227.528 344.136 227.528C345.68 227.528 347.013 227.86 348.133 228.523C349.26 229.179 350.128 230.1 350.738 231.287C351.348 232.467 351.653 233.846 351.653 235.423C351.653 236.988 351.348 238.363 350.738 239.55C350.128 240.73 349.26 241.651 348.133 242.314C347.013 242.97 345.68 243.298 344.136 243.298ZM344.156 240.017C344.858 240.017 345.445 239.818 345.916 239.42C346.386 239.016 346.741 238.466 346.98 237.77C347.225 237.074 347.347 236.282 347.347 235.393C347.347 234.505 347.225 233.713 346.98 233.017C346.741 232.321 346.386 231.771 345.916 231.366C345.445 230.962 344.858 230.76 344.156 230.76C343.446 230.76 342.85 230.962 342.366 231.366C341.889 231.771 341.527 232.321 341.282 233.017C341.044 233.713 340.924 234.505 340.924 235.393C340.924 236.282 341.044 237.074 341.282 237.77C341.527 238.466 341.889 239.016 342.366 239.42C342.85 239.818 343.446 240.017 344.156 240.017ZM367.115 232.082L363.237 232.321C363.17 231.99 363.028 231.691 362.809 231.426C362.59 231.154 362.302 230.939 361.944 230.78C361.593 230.614 361.172 230.531 360.681 230.531C360.025 230.531 359.472 230.67 359.021 230.949C358.57 231.221 358.345 231.585 358.345 232.043C358.345 232.407 358.49 232.715 358.782 232.967C359.074 233.219 359.574 233.421 360.284 233.574L363.048 234.131C364.533 234.436 365.64 234.926 366.369 235.602C367.098 236.278 367.463 237.167 367.463 238.267C367.463 239.268 367.168 240.146 366.578 240.902C365.994 241.658 365.192 242.248 364.171 242.672C363.157 243.089 361.987 243.298 360.661 243.298C358.64 243.298 357.029 242.877 355.829 242.036C354.636 241.187 353.936 240.034 353.731 238.575L357.897 238.357C358.023 238.973 358.328 239.444 358.812 239.768C359.296 240.087 359.916 240.246 360.671 240.246C361.414 240.246 362.01 240.103 362.461 239.818C362.919 239.527 363.151 239.152 363.157 238.695C363.151 238.31 362.988 237.995 362.67 237.75C362.352 237.498 361.861 237.306 361.198 237.173L358.553 236.646C357.062 236.348 355.952 235.831 355.222 235.095C354.5 234.359 354.139 233.421 354.139 232.281C354.139 231.3 354.404 230.455 354.934 229.746C355.471 229.036 356.223 228.49 357.191 228.105C358.166 227.721 359.306 227.528 360.612 227.528C362.541 227.528 364.059 227.936 365.166 228.751C366.279 229.567 366.929 230.677 367.115 232.082ZM264.225 256.636H269.535L275.143 270.318H275.381L280.989 256.636H286.299V277H282.123V263.746H281.954L276.684 276.901H273.84L268.57 263.696H268.401V277H264.225V256.636ZM296.727 277.298C295.156 277.298 293.803 276.98 292.67 276.344C291.543 275.701 290.675 274.793 290.065 273.619C289.455 272.439 289.15 271.044 289.15 269.433C289.15 267.862 289.455 266.483 290.065 265.297C290.675 264.11 291.533 263.186 292.64 262.523C293.754 261.86 295.06 261.528 296.558 261.528C297.565 261.528 298.503 261.691 299.372 262.016C300.247 262.334 301.009 262.814 301.659 263.457C302.315 264.1 302.825 264.909 303.19 265.884C303.554 266.851 303.737 267.985 303.737 269.284V270.447H290.84V267.822H299.749C299.749 267.213 299.617 266.672 299.352 266.202C299.087 265.731 298.719 265.363 298.248 265.098C297.784 264.826 297.244 264.69 296.627 264.69C295.984 264.69 295.414 264.839 294.917 265.138C294.427 265.429 294.042 265.824 293.764 266.321C293.485 266.812 293.343 267.358 293.336 267.962V270.457C293.336 271.213 293.475 271.866 293.754 272.416C294.039 272.966 294.44 273.391 294.957 273.689C295.474 273.987 296.087 274.136 296.796 274.136C297.267 274.136 297.698 274.07 298.089 273.938C298.48 273.805 298.815 273.606 299.093 273.341C299.372 273.076 299.584 272.751 299.73 272.366L303.647 272.625C303.448 273.566 303.041 274.388 302.424 275.091C301.814 275.787 301.026 276.33 300.058 276.722C299.097 277.106 297.986 277.298 296.727 277.298ZM310.737 268.17V277H306.501V261.727H310.538V264.422H310.717C311.055 263.534 311.622 262.831 312.417 262.314C313.213 261.79 314.177 261.528 315.311 261.528C316.371 261.528 317.296 261.76 318.085 262.224C318.874 262.688 319.487 263.351 319.924 264.213C320.362 265.068 320.58 266.089 320.58 267.276V277H316.345V268.031C316.351 267.097 316.113 266.367 315.629 265.844C315.145 265.313 314.479 265.048 313.63 265.048C313.06 265.048 312.556 265.171 312.119 265.416C311.688 265.661 311.35 266.019 311.105 266.49C310.866 266.954 310.743 267.514 310.737 268.17ZM336.626 266.082L332.748 266.321C332.682 265.99 332.54 265.691 332.321 265.426C332.102 265.154 331.814 264.939 331.456 264.78C331.104 264.614 330.684 264.531 330.193 264.531C329.537 264.531 328.983 264.67 328.532 264.949C328.082 265.221 327.856 265.585 327.856 266.043C327.856 266.407 328.002 266.715 328.294 266.967C328.586 267.219 329.086 267.421 329.795 267.574L332.559 268.131C334.044 268.436 335.151 268.926 335.881 269.602C336.61 270.278 336.974 271.167 336.974 272.267C336.974 273.268 336.679 274.146 336.089 274.902C335.506 275.658 334.704 276.248 333.683 276.672C332.669 277.089 331.499 277.298 330.173 277.298C328.151 277.298 326.541 276.877 325.341 276.036C324.148 275.187 323.448 274.034 323.243 272.575L327.409 272.357C327.535 272.973 327.84 273.444 328.324 273.768C328.808 274.087 329.427 274.246 330.183 274.246C330.925 274.246 331.522 274.103 331.973 273.818C332.43 273.527 332.662 273.152 332.669 272.695C332.662 272.31 332.5 271.995 332.182 271.75C331.863 271.498 331.373 271.306 330.71 271.173L328.065 270.646C326.574 270.348 325.463 269.831 324.734 269.095C324.012 268.359 323.65 267.421 323.65 266.281C323.65 265.3 323.916 264.455 324.446 263.746C324.983 263.036 325.735 262.49 326.703 262.105C327.677 261.721 328.818 261.528 330.123 261.528C332.052 261.528 333.57 261.936 334.677 262.751C335.791 263.567 336.441 264.677 336.626 266.082ZM343.997 277.288C343.022 277.288 342.154 277.119 341.392 276.781C340.629 276.437 340.026 275.929 339.582 275.26C339.144 274.584 338.926 273.742 338.926 272.734C338.926 271.886 339.081 271.173 339.393 270.597C339.704 270.02 340.129 269.556 340.666 269.205C341.203 268.853 341.812 268.588 342.495 268.409C343.185 268.23 343.907 268.104 344.663 268.031C345.551 267.938 346.267 267.852 346.811 267.773C347.354 267.687 347.749 267.561 347.994 267.395C348.239 267.229 348.362 266.984 348.362 266.659V266.599C348.362 265.97 348.163 265.482 347.765 265.138C347.374 264.793 346.817 264.621 346.095 264.621C345.332 264.621 344.726 264.79 344.275 265.128C343.824 265.459 343.526 265.877 343.38 266.381L339.463 266.062C339.661 265.134 340.052 264.332 340.636 263.656C341.219 262.973 341.972 262.45 342.893 262.085C343.821 261.714 344.895 261.528 346.115 261.528C346.963 261.528 347.775 261.628 348.551 261.827C349.333 262.026 350.026 262.334 350.629 262.751C351.239 263.169 351.719 263.706 352.07 264.362C352.422 265.012 352.597 265.791 352.597 266.699V277H348.58V274.882H348.461C348.216 275.359 347.888 275.78 347.477 276.145C347.066 276.503 346.572 276.785 345.995 276.99C345.419 277.189 344.752 277.288 343.997 277.288ZM345.21 274.365C345.833 274.365 346.383 274.242 346.86 273.997C347.338 273.745 347.712 273.407 347.984 272.983C348.256 272.559 348.392 272.078 348.392 271.541V269.92C348.259 270.007 348.077 270.086 347.845 270.159C347.619 270.225 347.364 270.288 347.079 270.348C346.794 270.401 346.509 270.451 346.224 270.497C345.939 270.537 345.68 270.573 345.448 270.607C344.951 270.679 344.517 270.795 344.146 270.955C343.775 271.114 343.486 271.329 343.281 271.601C343.075 271.866 342.972 272.197 342.972 272.595C342.972 273.172 343.181 273.613 343.599 273.918C344.023 274.216 344.56 274.365 345.21 274.365ZM355.884 277V261.727H360.119V277H355.884ZM358.012 259.759C357.382 259.759 356.842 259.55 356.391 259.132C355.947 258.708 355.725 258.201 355.725 257.611C355.725 257.027 355.947 256.527 356.391 256.109C356.842 255.685 357.382 255.473 358.012 255.473C358.641 255.473 359.178 255.685 359.622 256.109C360.073 256.527 360.298 257.027 360.298 257.611C360.298 258.201 360.073 258.708 359.622 259.132C359.178 259.55 358.641 259.759 358.012 259.759ZM376.22 266.082L372.342 266.321C372.276 265.99 372.133 265.691 371.915 265.426C371.696 265.154 371.407 264.939 371.05 264.78C370.698 264.614 370.277 264.531 369.787 264.531C369.131 264.531 368.577 264.67 368.126 264.949C367.675 265.221 367.45 265.585 367.45 266.043C367.45 266.407 367.596 266.715 367.888 266.967C368.179 267.219 368.68 267.421 369.389 267.574L372.153 268.131C373.638 268.436 374.745 268.926 375.474 269.602C376.203 270.278 376.568 271.167 376.568 272.267C376.568 273.268 376.273 274.146 375.683 274.902C375.1 275.658 374.298 276.248 373.277 276.672C372.263 277.089 371.093 277.298 369.767 277.298C367.745 277.298 366.134 276.877 364.934 276.036C363.741 275.187 363.042 274.034 362.836 272.575L367.003 272.357C367.129 272.973 367.434 273.444 367.917 273.768C368.401 274.087 369.021 274.246 369.777 274.246C370.519 274.246 371.116 274.103 371.567 273.818C372.024 273.527 372.256 273.152 372.263 272.695C372.256 272.31 372.094 271.995 371.775 271.75C371.457 271.498 370.967 271.306 370.304 271.173L367.659 270.646C366.167 270.348 365.057 269.831 364.328 269.095C363.605 268.359 363.244 267.421 363.244 266.281C363.244 265.3 363.509 264.455 364.04 263.746C364.577 263.036 365.329 262.49 366.297 262.105C367.271 261.721 368.411 261.528 369.717 261.528C371.646 261.528 373.164 261.936 374.271 262.751C375.385 263.567 376.034 264.677 376.22 266.082Z" fill="black"/>
<mask id="path-3-inside-1_102_70" fill="white">
<path d="M490.817 211.967C497.629 242.561 496.099 274.423 486.388 304.223C476.676 334.024 459.139 360.669 435.61 381.375C412.08 402.081 383.422 416.088 352.628 421.931C321.835 427.775 290.037 425.242 260.558 414.595L284.335 348.757C302.022 355.145 321.101 356.665 339.577 353.159C358.053 349.653 375.248 341.249 389.366 328.825C403.484 316.401 414.006 300.414 419.833 282.534C425.659 264.654 426.577 245.537 422.49 227.18L490.817 211.967Z"/>
</mask>
<path d="M490.817 211.967C497.629 242.561 496.099 274.423 486.388 304.223C476.676 334.024 459.139 360.669 435.61 381.375C412.08 402.081 383.422 416.088 352.628 421.931C321.835 427.775 290.037 425.242 260.558 414.595L284.335 348.757C302.022 355.145 321.101 356.665 339.577 353.159C358.053 349.653 375.248 341.249 389.366 328.825C403.484 316.401 414.006 300.414 419.833 282.534C425.659 264.654 426.577 245.537 422.49 227.18L490.817 211.967Z" fill="#F4BE37" stroke="#F5F4F8" stroke-width="12" mask="url(#path-3-inside-1_102_70)"/>
<mask id="path-4-inside-2_102_70" fill="white">
<path d="M266.58 416.647C229.609 404.796 197.629 380.987 175.673 348.969L233.404 309.381C246.578 328.592 265.766 342.878 287.948 349.988L266.58 416.647Z"/>
</mask>
<path d="M266.58 416.647C229.609 404.796 197.629 380.987 175.673 348.969L233.404 309.381C246.578 328.592 265.766 342.878 287.948 349.988L266.58 416.647Z" fill="#91C108" stroke="#F5F4F8" stroke-width="12" mask="url(#path-4-inside-2_102_70)"/>
<mask id="path-5-inside-3_102_70" fill="white">
<path d="M320 75C361.373 75 401.408 89.6584 433 116.374C464.592 143.089 485.696 180.133 492.569 220.931L423.541 232.559C419.418 208.08 406.755 185.853 387.8 169.824C368.845 153.795 344.824 145 320 145V75Z"/>
</mask>
<path d="M320 75C361.373 75 401.408 89.6584 433 116.374C464.592 143.089 485.696 180.133 492.569 220.931L423.541 232.559C419.418 208.08 406.755 185.853 387.8 169.824C368.845 153.795 344.824 145 320 145V75Z" fill="#AC387E" stroke="#F5F4F8" stroke-width="12" mask="url(#path-5-inside-3_102_70)"/>
<mask id="path-6-inside-4_102_70" fill="white">
<path d="M178.858 353.46C159.358 326.857 147.773 295.285 145.439 262.383C143.105 229.481 150.117 196.589 165.667 167.5C181.217 138.41 204.671 114.308 233.326 97.9714C261.981 81.6348 294.67 73.7293 327.623 75.1661L324.574 145.1C304.802 144.238 285.189 148.981 267.996 158.783C250.803 168.585 236.73 183.046 227.4 200.5C218.07 217.953 213.863 237.688 215.263 257.43C216.664 277.171 223.615 296.114 235.315 312.076L178.858 353.46Z"/>
</mask>
<path d="M178.858 353.46C159.358 326.857 147.773 295.285 145.439 262.383C143.105 229.481 150.117 196.589 165.667 167.5C181.217 138.41 204.671 114.308 233.326 97.9714C261.981 81.6348 294.67 73.7293 327.623 75.1661L324.574 145.1C304.802 144.238 285.189 148.981 267.996 158.783C250.803 168.585 236.73 183.046 227.4 200.5C218.07 217.953 213.863 237.688 215.263 257.43C216.664 277.171 223.615 296.114 235.315 312.076L178.858 353.46Z" fill="#8626E5" stroke="#F5F4F8" stroke-width="12" mask="url(#path-6-inside-4_102_70)"/>
</svg>
