<svg width="640" height="500" viewBox="0 0 640 500" fill="none" xmlns="http://www.w3.org/2000/svg">
<rect width="640" height="500" fill="white"/>
<rect width="640" height="500" fill="#F5F4F7"/>
<path d="M256.338 246H252.548L258.323 229.273H262.88L268.647 246H264.857L260.667 233.095H260.536L256.338 246ZM256.101 239.425H265.053V242.186H256.101V239.425ZM274.074 229.273V246H270.595V229.273H274.074ZM276.861 246V233.455H280.341V246H276.861ZM278.609 231.837C278.092 231.837 277.648 231.666 277.278 231.323C276.913 230.974 276.73 230.558 276.73 230.073C276.73 229.594 276.913 229.183 277.278 228.84C277.648 228.491 278.092 228.317 278.609 228.317C279.126 228.317 279.567 228.491 279.932 228.84C280.302 229.183 280.488 229.594 280.488 230.073C280.488 230.558 280.302 230.974 279.932 231.323C279.567 231.666 279.126 231.837 278.609 231.837ZM283.128 246V233.455H286.444V235.668H286.591C286.852 234.933 287.288 234.353 287.898 233.928C288.507 233.504 289.237 233.291 290.087 233.291C290.947 233.291 291.679 233.506 292.284 233.936C292.888 234.361 293.291 234.938 293.492 235.668H293.623C293.879 234.949 294.342 234.375 295.012 233.945C295.687 233.509 296.485 233.291 297.405 233.291C298.575 233.291 299.526 233.664 300.255 234.41C300.99 235.151 301.358 236.202 301.358 237.563V246H297.887V238.249C297.887 237.552 297.701 237.029 297.331 236.681C296.961 236.332 296.498 236.158 295.943 236.158C295.311 236.158 294.818 236.359 294.464 236.762C294.11 237.16 293.934 237.685 293.934 238.339V246H290.56V238.175C290.56 237.56 290.383 237.07 290.029 236.705C289.681 236.34 289.221 236.158 288.649 236.158C288.262 236.158 287.914 236.256 287.604 236.452C287.299 236.643 287.056 236.912 286.877 237.261C286.697 237.604 286.607 238.007 286.607 238.469V246H283.128ZM309.824 246.245C308.533 246.245 307.422 245.984 306.491 245.461C305.566 244.933 304.852 244.187 304.351 243.223C303.85 242.254 303.6 241.108 303.6 239.784C303.6 238.494 303.85 237.361 304.351 236.387C304.852 235.412 305.557 234.652 306.467 234.108C307.381 233.563 308.454 233.291 309.685 233.291C310.512 233.291 311.283 233.425 311.996 233.691C312.715 233.953 313.341 234.348 313.875 234.876C314.414 235.404 314.833 236.068 315.133 236.869C315.432 237.664 315.582 238.595 315.582 239.662V240.618H304.988V238.461H312.307C312.307 237.96 312.198 237.517 311.98 237.13C311.762 236.743 311.46 236.441 311.073 236.223C310.692 236 310.248 235.888 309.742 235.888C309.214 235.888 308.745 236.011 308.337 236.256C307.934 236.496 307.618 236.82 307.39 237.228C307.161 237.631 307.044 238.08 307.038 238.576V240.626C307.038 241.246 307.153 241.783 307.381 242.235C307.616 242.687 307.945 243.035 308.37 243.28C308.794 243.525 309.298 243.648 309.881 243.648C310.267 243.648 310.621 243.593 310.943 243.484C311.264 243.375 311.539 243.212 311.767 242.994C311.996 242.777 312.17 242.51 312.29 242.194L315.508 242.406C315.345 243.179 315.01 243.855 314.504 244.432C314.003 245.004 313.355 245.45 312.56 245.771C311.77 246.087 310.858 246.245 309.824 246.245ZM321.332 238.747V246H317.852V233.455H321.168V235.668H321.315C321.593 234.938 322.059 234.361 322.712 233.936C323.366 233.506 324.158 233.291 325.089 233.291C325.96 233.291 326.72 233.482 327.368 233.863C328.016 234.244 328.519 234.789 328.879 235.496C329.238 236.199 329.418 237.037 329.418 238.012V246H325.938V238.633C325.944 237.865 325.748 237.266 325.35 236.836C324.953 236.4 324.406 236.183 323.709 236.183C323.24 236.183 322.826 236.283 322.467 236.485C322.113 236.686 321.835 236.98 321.634 237.367C321.438 237.748 321.337 238.208 321.332 238.747ZM338.833 233.455V236.068H331.278V233.455H338.833ZM332.993 230.449H336.472V242.145C336.472 242.466 336.521 242.717 336.619 242.896C336.718 243.071 336.854 243.193 337.028 243.264C337.208 243.335 337.414 243.37 337.649 243.37C337.812 243.37 337.975 243.356 338.139 243.329C338.302 243.297 338.427 243.272 338.514 243.256L339.062 245.845C338.887 245.899 338.642 245.962 338.327 246.033C338.011 246.109 337.627 246.155 337.175 246.172C336.336 246.204 335.601 246.093 334.97 245.837C334.343 245.581 333.856 245.183 333.508 244.644C333.159 244.105 332.988 243.424 332.993 242.602V230.449ZM344.677 246.237C343.876 246.237 343.163 246.098 342.537 245.82C341.911 245.537 341.415 245.121 341.05 244.571C340.691 244.015 340.511 243.324 340.511 242.496C340.511 241.799 340.639 241.214 340.895 240.74C341.151 240.266 341.5 239.885 341.941 239.597C342.382 239.308 342.883 239.09 343.444 238.943C344.01 238.796 344.603 238.693 345.224 238.633C345.954 238.557 346.542 238.486 346.988 238.42C347.435 238.35 347.759 238.246 347.96 238.11C348.162 237.974 348.262 237.772 348.262 237.506V237.457C348.262 236.939 348.099 236.539 347.772 236.256C347.451 235.973 346.994 235.831 346.4 235.831C345.774 235.831 345.276 235.97 344.906 236.248C344.535 236.52 344.29 236.863 344.17 237.277L340.952 237.016C341.116 236.253 341.437 235.594 341.916 235.039C342.395 234.478 343.013 234.048 343.77 233.749C344.533 233.444 345.415 233.291 346.417 233.291C347.114 233.291 347.781 233.373 348.418 233.536C349.06 233.7 349.629 233.953 350.125 234.296C350.626 234.639 351.02 235.08 351.309 235.619C351.598 236.153 351.742 236.792 351.742 237.538V246H348.442V244.26H348.344C348.143 244.652 347.873 244.998 347.536 245.298C347.198 245.592 346.792 245.823 346.319 245.992C345.845 246.155 345.298 246.237 344.677 246.237ZM345.673 243.836C346.185 243.836 346.637 243.735 347.029 243.533C347.421 243.326 347.729 243.049 347.952 242.7C348.175 242.352 348.287 241.957 348.287 241.516V240.185C348.178 240.255 348.028 240.321 347.838 240.381C347.653 240.435 347.443 240.487 347.209 240.536C346.975 240.579 346.741 240.62 346.506 240.658C346.272 240.691 346.06 240.721 345.869 240.748C345.461 240.808 345.104 240.903 344.799 241.034C344.494 241.165 344.258 241.342 344.089 241.565C343.92 241.783 343.836 242.055 343.836 242.382C343.836 242.855 344.007 243.218 344.35 243.468C344.699 243.713 345.14 243.836 345.673 243.836ZM360.11 246.245C358.825 246.245 357.719 245.973 356.794 245.428C355.873 244.878 355.165 244.116 354.67 243.141C354.18 242.167 353.935 241.045 353.935 239.776C353.935 238.491 354.183 237.364 354.678 236.395C355.179 235.42 355.89 234.661 356.81 234.116C357.73 233.566 358.825 233.291 360.093 233.291C361.188 233.291 362.146 233.49 362.968 233.887C363.79 234.285 364.441 234.843 364.92 235.562C365.399 236.281 365.664 237.125 365.713 238.094H362.429C362.337 237.468 362.092 236.964 361.694 236.583C361.302 236.196 360.787 236.003 360.15 236.003C359.611 236.003 359.14 236.15 358.737 236.444C358.34 236.732 358.03 237.154 357.806 237.71C357.583 238.265 357.471 238.938 357.471 239.727C357.471 240.528 357.58 241.208 357.798 241.769C358.021 242.33 358.334 242.757 358.737 243.051C359.14 243.346 359.611 243.493 360.15 243.493C360.548 243.493 360.905 243.411 361.22 243.248C361.542 243.084 361.806 242.847 362.013 242.537C362.225 242.221 362.364 241.843 362.429 241.402H365.713C365.658 242.36 365.397 243.204 364.928 243.934C364.466 244.658 363.826 245.224 363.009 245.632C362.192 246.041 361.226 246.245 360.11 246.245ZM359.293 245.935H360.894L360.763 246.645C361.324 246.732 361.781 246.942 362.135 247.274C362.494 247.606 362.677 248.058 362.682 248.63C362.688 249.441 362.312 250.087 361.555 250.566C360.798 251.05 359.737 251.293 358.37 251.293L358.337 249.741C359.023 249.741 359.56 249.656 359.946 249.488C360.338 249.324 360.542 249.068 360.559 248.72C360.57 248.388 360.442 248.134 360.175 247.96C359.908 247.786 359.492 247.663 358.925 247.593L359.293 245.935ZM371.518 246.237C370.717 246.237 370.004 246.098 369.378 245.82C368.752 245.537 368.256 245.121 367.891 244.571C367.532 244.015 367.352 243.324 367.352 242.496C367.352 241.799 367.48 241.214 367.736 240.74C367.992 240.266 368.34 239.885 368.782 239.597C369.223 239.308 369.724 239.09 370.284 238.943C370.851 238.796 371.444 238.693 372.065 238.633C372.795 238.557 373.383 238.486 373.829 238.42C374.276 238.35 374.6 238.246 374.801 238.11C375.003 237.974 375.103 237.772 375.103 237.506V237.457C375.103 236.939 374.94 236.539 374.613 236.256C374.292 235.973 373.835 235.831 373.241 235.831C372.615 235.831 372.117 235.97 371.746 236.248C371.376 236.52 371.131 236.863 371.011 237.277L367.793 237.016C367.957 236.253 368.278 235.594 368.757 235.039C369.236 234.478 369.854 234.048 370.611 233.749C371.373 233.444 372.255 233.291 373.257 233.291C373.954 233.291 374.621 233.373 375.258 233.536C375.901 233.7 376.47 233.953 376.965 234.296C377.466 234.639 377.861 235.08 378.15 235.619C378.438 236.153 378.583 236.792 378.583 237.538V246H375.283V244.26H375.185C374.983 244.652 374.714 244.998 374.376 245.298C374.039 245.592 373.633 245.823 373.159 245.992C372.686 246.155 372.138 246.237 371.518 246.237ZM372.514 243.836C373.026 243.836 373.478 243.735 373.87 243.533C374.262 243.326 374.57 243.049 374.793 242.7C375.016 242.352 375.128 241.957 375.128 241.516V240.185C375.019 240.255 374.869 240.321 374.679 240.381C374.493 240.435 374.284 240.487 374.05 240.536C373.815 240.579 373.581 240.62 373.347 240.658C373.113 240.691 372.901 240.721 372.71 240.748C372.302 240.808 371.945 240.903 371.64 241.034C371.335 241.165 371.098 241.342 370.93 241.565C370.761 241.783 370.676 242.055 370.676 242.382C370.676 242.855 370.848 243.218 371.191 243.468C371.539 243.713 371.98 243.836 372.514 243.836ZM371.052 231.911L369.116 231.886C369.116 230.846 369.372 230.049 369.884 229.493C370.401 228.938 371.03 228.657 371.771 228.652C372.152 228.652 372.479 228.715 372.751 228.84C373.029 228.96 373.276 229.101 373.494 229.265C373.717 229.428 373.93 229.572 374.131 229.697C374.333 229.817 374.551 229.877 374.785 229.877C375.101 229.872 375.34 229.755 375.503 229.526C375.672 229.292 375.757 228.987 375.757 228.611L377.66 228.668C377.649 229.697 377.387 230.492 376.876 231.053C376.364 231.609 375.74 231.889 375.005 231.895C374.597 231.895 374.254 231.835 373.976 231.715C373.704 231.59 373.464 231.448 373.257 231.29C373.05 231.127 372.849 230.982 372.653 230.857C372.457 230.732 372.236 230.669 371.991 230.669C371.708 230.669 371.48 230.781 371.305 231.004C371.137 231.228 371.052 231.53 371.052 231.911ZM386.95 246.245C385.682 246.245 384.584 245.975 383.659 245.436C382.739 244.892 382.028 244.135 381.527 243.166C381.026 242.191 380.776 241.061 380.776 239.776C380.776 238.48 381.026 237.348 381.527 236.379C382.028 235.404 382.739 234.647 383.659 234.108C384.584 233.563 385.682 233.291 386.95 233.291C388.219 233.291 389.314 233.563 390.234 234.108C391.159 234.647 391.873 235.404 392.374 236.379C392.875 237.348 393.125 238.48 393.125 239.776C393.125 241.061 392.875 242.191 392.374 243.166C391.873 244.135 391.159 244.892 390.234 245.436C389.314 245.975 388.219 246.245 386.95 246.245ZM386.967 243.55C387.544 243.55 388.026 243.386 388.412 243.06C388.799 242.728 389.09 242.276 389.286 241.704C389.488 241.132 389.589 240.481 389.589 239.752C389.589 239.022 389.488 238.371 389.286 237.8C389.09 237.228 388.799 236.776 388.412 236.444C388.026 236.112 387.544 235.946 386.967 235.946C386.384 235.946 385.894 236.112 385.497 236.444C385.104 236.776 384.808 237.228 384.606 237.8C384.41 238.371 384.312 239.022 384.312 239.752C384.312 240.481 384.41 241.132 384.606 241.704C384.808 242.276 385.104 242.728 385.497 243.06C385.894 243.386 386.384 243.55 386.967 243.55ZM307.449 274.229C306.229 274.229 305.143 274.019 304.19 273.6C303.243 273.175 302.494 272.592 301.944 271.852C301.399 271.106 301.119 270.246 301.103 269.271H304.664C304.685 269.679 304.819 270.039 305.064 270.349C305.314 270.654 305.647 270.891 306.06 271.06C306.474 271.228 306.94 271.313 307.457 271.313C307.996 271.313 308.473 271.218 308.886 271.027C309.3 270.836 309.624 270.572 309.858 270.235C310.092 269.897 310.21 269.508 310.21 269.067C310.21 268.62 310.084 268.225 309.834 267.882C309.589 267.534 309.235 267.262 308.772 267.066C308.315 266.87 307.77 266.772 307.138 266.772H305.578V264.174H307.138C307.672 264.174 308.143 264.082 308.551 263.897C308.965 263.712 309.287 263.456 309.515 263.129C309.744 262.797 309.858 262.41 309.858 261.969C309.858 261.55 309.758 261.182 309.556 260.866C309.36 260.545 309.082 260.295 308.723 260.115C308.369 259.935 307.955 259.846 307.482 259.846C307.002 259.846 306.564 259.933 306.167 260.107C305.769 260.276 305.451 260.518 305.211 260.834C304.971 261.15 304.843 261.52 304.827 261.945H301.438C301.454 260.981 301.729 260.131 302.262 259.396C302.796 258.661 303.515 258.087 304.419 257.673C305.328 257.254 306.354 257.044 307.498 257.044C308.652 257.044 309.662 257.254 310.528 257.673C311.394 258.092 312.066 258.658 312.545 259.372C313.03 260.08 313.27 260.875 313.264 261.757C313.27 262.693 312.978 263.475 312.39 264.101C311.808 264.727 311.048 265.125 310.112 265.293V265.424C311.342 265.582 312.279 266.009 312.921 266.706C313.569 267.398 313.89 268.264 313.885 269.304C313.89 270.257 313.615 271.103 313.06 271.844C312.51 272.584 311.75 273.167 310.781 273.592C309.812 274.016 308.701 274.229 307.449 274.229ZM323.704 257.273V274H320.168V260.63H320.07L316.239 263.031V259.895L320.38 257.273H323.704ZM336.836 270.864V269.982C336.836 269.312 336.978 268.696 337.261 268.136C337.549 267.569 337.966 267.117 338.51 266.78C339.06 266.437 339.73 266.265 340.52 266.265C341.32 266.265 341.992 266.434 342.537 266.772C343.087 267.109 343.501 267.561 343.778 268.127C344.062 268.688 344.203 269.306 344.203 269.982V270.864C344.203 271.533 344.062 272.151 343.778 272.718C343.495 273.279 343.079 273.728 342.529 274.065C341.979 274.408 341.309 274.58 340.52 274.58C339.719 274.58 339.047 274.408 338.502 274.065C337.958 273.728 337.544 273.279 337.261 272.718C336.978 272.151 336.836 271.533 336.836 270.864ZM339.213 269.982V270.864C339.213 271.25 339.305 271.615 339.49 271.958C339.681 272.301 340.024 272.473 340.52 272.473C341.015 272.473 341.353 272.304 341.532 271.966C341.717 271.629 341.81 271.261 341.81 270.864V269.982C341.81 269.584 341.723 269.214 341.549 268.871C341.374 268.528 341.031 268.356 340.52 268.356C340.029 268.356 339.689 268.528 339.499 268.871C339.308 269.214 339.213 269.584 339.213 269.982ZM328.252 261.291V260.409C328.252 259.734 328.396 259.116 328.685 258.555C328.973 257.989 329.39 257.537 329.934 257.199C330.484 256.862 331.149 256.693 331.927 256.693C332.733 256.693 333.408 256.862 333.953 257.199C334.497 257.537 334.911 257.989 335.194 258.555C335.477 259.116 335.619 259.734 335.619 260.409V261.291C335.619 261.966 335.475 262.584 335.186 263.145C334.903 263.706 334.486 264.155 333.936 264.493C333.392 264.825 332.722 264.991 331.927 264.991C331.132 264.991 330.46 264.822 329.91 264.485C329.365 264.142 328.951 263.692 328.668 263.137C328.391 262.576 328.252 261.961 328.252 261.291ZM330.645 260.409V261.291C330.645 261.689 330.737 262.056 330.923 262.394C331.113 262.731 331.448 262.9 331.927 262.9C332.428 262.9 332.768 262.731 332.948 262.394C333.133 262.056 333.226 261.689 333.226 261.291V260.409C333.226 260.012 333.139 259.641 332.964 259.298C332.79 258.955 332.444 258.784 331.927 258.784C331.443 258.784 331.108 258.958 330.923 259.306C330.737 259.655 330.645 260.022 330.645 260.409ZM329.33 274L340.83 257.273H342.97L331.47 274H329.33Z" fill="black"/>
<g opacity="0.4">
<mask id="path-3-inside-1_101_23" fill="white">
<path d="M466.415 217.401C472.253 243.624 470.942 270.934 462.618 296.477C454.294 322.02 439.262 344.859 419.094 362.607C398.926 380.355 374.361 392.361 347.967 397.37C321.573 402.379 294.318 400.207 269.05 391.082L289.43 334.649C304.591 340.124 320.944 341.427 336.78 338.422C352.617 335.416 367.356 328.213 379.457 317.564C391.557 306.915 400.576 293.212 405.571 277.886C410.565 262.56 411.352 246.174 407.849 230.44L466.415 217.401Z"/>
</mask>
<path d="M466.415 217.401C472.253 243.624 470.942 270.934 462.618 296.477C454.294 322.02 439.262 344.859 419.094 362.607C398.926 380.355 374.361 392.361 347.967 397.37C321.573 402.379 294.318 400.207 269.05 391.082L289.43 334.649C304.591 340.124 320.944 341.427 336.78 338.422C352.617 335.416 367.356 328.213 379.457 317.564C391.557 306.915 400.576 293.212 405.571 277.886C410.565 262.56 411.352 246.174 407.849 230.44L466.415 217.401Z" fill="#A0ACC5" stroke="#F5F4F8" stroke-width="12" mask="url(#path-3-inside-1_101_23)"/>
</g>
<g opacity="0.4">
<mask id="path-4-inside-2_101_23" fill="white">
<path d="M274.211 392.84C242.522 382.682 215.111 362.275 196.291 334.83L245.775 300.898C257.066 317.365 273.513 329.609 292.527 335.704L274.211 392.84Z"/>
</mask>
<path d="M274.211 392.84C242.522 382.682 215.111 362.275 196.291 334.83L245.775 300.898C257.066 317.365 273.513 329.609 292.527 335.704L274.211 392.84Z" fill="#A0ACC5" stroke="#F5F4F8" stroke-width="12" mask="url(#path-4-inside-2_101_23)"/>
</g>
<mask id="path-5-inside-3_101_23" fill="white">
<path d="M320 100C355.463 100 389.778 112.564 416.857 135.463C443.936 158.362 462.026 190.114 467.916 225.084L408.75 235.05C405.215 214.068 394.361 195.017 378.114 181.278C361.867 167.539 341.278 160 320 160L320 100Z"/>
</mask>
<path d="M320 100C355.463 100 389.778 112.564 416.857 135.463C443.936 158.362 462.026 190.114 467.916 225.084L408.75 235.05C405.215 214.068 394.361 195.017 378.114 181.278C361.867 167.539 341.278 160 320 160L320 100Z" fill="#AC387E" stroke="#F5F4F8" stroke-width="12" mask="url(#path-5-inside-3_101_23)"/>
<g opacity="0.4">
<mask id="path-6-inside-4_101_23" fill="white">
<path d="M199.021 338.68C182.307 315.878 172.377 288.815 170.376 260.614C168.375 232.412 174.386 204.219 187.715 179.285C201.043 154.352 221.147 133.693 245.708 119.69C270.27 105.687 298.288 98.9108 326.534 100.142L323.921 160.085C306.973 159.346 290.162 163.412 275.425 171.814C260.688 180.216 248.626 192.611 240.629 207.571C232.632 222.531 229.025 239.447 230.226 256.368C231.426 273.289 237.384 289.527 247.413 303.208L199.021 338.68Z"/>
</mask>
<path d="M199.021 338.68C182.307 315.878 172.377 288.815 170.376 260.614C168.375 232.412 174.386 204.219 187.715 179.285C201.043 154.352 221.147 133.693 245.708 119.69C270.27 105.687 298.288 98.9108 326.534 100.142L323.921 160.085C306.973 159.346 290.162 163.412 275.425 171.814C260.688 180.216 248.626 192.611 240.629 207.571C232.632 222.531 229.025 239.447 230.226 256.368C231.426 273.289 237.384 289.527 247.413 303.208L199.021 338.68Z" fill="#A0ACC5" stroke="#F5F4F8" stroke-width="12" mask="url(#path-6-inside-4_101_23)"/>
</g>
<mask id="path-7-inside-5_101_23" fill="white">
<path d="M320 100C346.865 100 373.238 107.215 396.361 120.892C419.485 134.568 438.511 154.204 451.452 177.747C464.392 201.29 470.772 227.877 469.925 254.729C469.078 281.581 461.035 307.713 446.637 330.394L395.982 298.236C404.621 284.628 409.447 268.949 409.955 252.837C410.463 236.726 406.635 220.774 398.871 206.648C391.107 192.522 379.691 180.741 365.817 172.535C351.943 164.329 336.119 160 320 160L320 100Z"/>
</mask>
<path d="M320 100C346.865 100 373.238 107.215 396.361 120.892C419.485 134.568 438.511 154.204 451.452 177.747C464.392 201.29 470.772 227.877 469.925 254.729C469.078 281.581 461.035 307.713 446.637 330.394L395.982 298.236C404.621 284.628 409.447 268.949 409.955 252.837C410.463 236.726 406.635 220.774 398.871 206.648C391.107 192.522 379.691 180.741 365.817 172.535C351.943 164.329 336.119 160 320 160L320 100Z" fill="#AC387E" stroke="#F5F4F8" stroke-width="12" mask="url(#path-7-inside-5_101_23)"/>
<mask id="path-8-inside-6_101_23" fill="white">
<path d="M274.211 392.84C242.522 382.682 215.111 362.275 196.291 334.83L245.775 300.898C257.066 317.365 273.513 329.609 292.527 335.704L274.211 392.84Z"/>
</mask>
<path d="M274.211 392.84C242.522 382.682 215.111 362.275 196.291 334.83L245.775 300.898C257.066 317.365 273.513 329.609 292.527 335.704L274.211 392.84Z" fill="#DEE1E9" stroke="#F5F4F8" stroke-width="12" mask="url(#path-8-inside-6_101_23)"/>
<mask id="path-9-inside-7_101_23" fill="white">
<path d="M450.338 324.242C432.58 355.419 404.234 379.198 370.443 391.264C336.653 403.33 299.657 402.884 266.168 390.007L287.701 334.004C307.794 341.73 329.992 341.998 350.266 334.758C370.54 327.519 387.548 313.252 398.203 294.545L450.338 324.242Z"/>
</mask>
<path d="M450.338 324.242C432.58 355.419 404.234 379.198 370.443 391.264C336.653 403.33 299.657 402.884 266.168 390.007L287.701 334.004C307.794 341.73 329.992 341.998 350.266 334.758C370.54 327.519 387.548 313.252 398.203 294.545L450.338 324.242Z" fill="#DEE1E9" stroke="#F5F4F8" stroke-width="12" mask="url(#path-9-inside-7_101_23)"/>
<mask id="path-10-inside-8_101_23" fill="white">
<path d="M199.021 338.68C182.307 315.878 172.377 288.815 170.376 260.614C168.375 232.412 174.386 204.219 187.715 179.285C201.043 154.352 221.147 133.693 245.708 119.69C270.27 105.687 298.288 98.9108 326.534 100.142L323.921 160.085C306.973 159.346 290.162 163.412 275.425 171.814C260.688 180.216 248.626 192.611 240.629 207.571C232.632 222.531 229.025 239.447 230.226 256.368C231.426 273.289 237.384 289.527 247.413 303.208L199.021 338.68Z"/>
</mask>
<path d="M199.021 338.68C182.307 315.878 172.377 288.815 170.376 260.614C168.375 232.412 174.386 204.219 187.715 179.285C201.043 154.352 221.147 133.693 245.708 119.69C270.27 105.687 298.288 98.9108 326.534 100.142L323.921 160.085C306.973 159.346 290.162 163.412 275.425 171.814C260.688 180.216 248.626 192.611 240.629 207.571C232.632 222.531 229.025 239.447 230.226 256.368C231.426 273.289 237.384 289.527 247.413 303.208L199.021 338.68Z" fill="#DEE1E9" stroke="#F5F4F8" stroke-width="12" mask="url(#path-10-inside-8_101_23)"/>
</svg>
